<svg id="visual" viewBox="0 0 960 540" width="960" height="540" xmlns="http://www.w3.org/2000/svg" xmlns:xlink="http://www.w3.org/1999/xlink" version="1.1"><g fill="#a7a7ff"><circle r="13" cx="138" cy="534"></circle><circle r="2" cx="674" cy="396"></circle><circle r="11" cx="801" cy="160"></circle><circle r="7" cx="940" cy="156"></circle><circle r="8" cx="859" cy="412"></circle><circle r="5" cx="690" cy="59"></circle><circle r="8" cx="120" cy="415"></circle><circle r="2" cx="207" cy="143"></circle><circle r="3" cx="158" cy="280"></circle><circle r="9" cx="237" cy="196"></circle><circle r="10" cx="767" cy="313"></circle><circle r="3" cx="820" cy="494"></circle><circle r="1" cx="199" cy="214"></circle><circle r="1" cx="362" cy="46"></circle><circle r="1" cx="854" cy="330"></circle><circle r="3" cx="58" cy="56"></circle><circle r="10" cx="142" cy="452"></circle><circle r="1" cx="730" cy="367"></circle><circle r="4" cx="240" cy="51"></circle><circle r="10" cx="535" cy="352"></circle><circle r="9" cx="291" cy="281"></circle><circle r="10" cx="850" cy="179"></circle><circle r="7" cx="923" cy="77"></circle><circle r="4" cx="210" cy="382"></circle><circle r="6" cx="408" cy="193"></circle><circle r="7" cx="688" cy="90"></circle><circle r="9" cx="200" cy="537"></circle><circle r="6" cx="219" cy="324"></circle><circle r="9" cx="2" cy="425"></circle><circle r="9" cx="395" cy="94"></circle><circle r="8" cx="308" cy="419"></circle><circle r="5" cx="573" cy="96"></circle><circle r="7" cx="112" cy="158"></circle><circle r="3" cx="953" cy="352"></circle><circle r="9" cx="507" cy="384"></circle><circle r="11" cx="100" cy="468"></circle><circle r="7" cx="137" cy="376"></circle><circle r="6" cx="109" cy="521"></circle><circle r="6" cx="84" cy="48"></circle><circle r="5" cx="502" cy="65"></circle><circle r="9" cx="28" cy="15"></circle><circle r="5" cx="124" cy="134"></circle><circle r="8" cx="695" cy="155"></circle><circle r="8" cx="231" cy="131"></circle><circle r="1" cx="449" cy="17"></circle><circle r="6" cx="357" cy="72"></circle><circle r="8" cx="767" cy="69"></circle><circle r="7" cx="159" cy="92"></circle><circle r="11" cx="111" cy="443"></circle><circle r="7" cx="238" cy="521"></circle><circle r="5" cx="690" cy="436"></circle><circle r="3" cx="476" cy="191"></circle><circle r="3" cx="760" cy="139"></circle><circle r="8" cx="648" cy="381"></circle><circle r="7" cx="198" cy="44"></circle><circle r="5" cx="47" cy="494"></circle><circle r="1" cx="350" cy="439"></circle><circle r="5" cx="612" cy="103"></circle><circle r="10" cx="785" cy="48"></circle><circle r="6" cx="430" cy="392"></circle><circle r="8" cx="293" cy="113"></circle><circle r="10" cx="725" cy="57"></circle><circle r="10" cx="73" cy="208"></circle><circle r="9" cx="251" cy="299"></circle><circle r="11" cx="627" cy="308"></circle><circle r="3" cx="288" cy="487"></circle><circle r="2" cx="308" cy="24"></circle><circle r="1" cx="16" cy="399"></circle><circle r="9" cx="89" cy="418"></circle><circle r="1" cx="944" cy="499"></circle><circle r="6" cx="913" cy="503"></circle><circle r="2" cx="126" cy="207"></circle><circle r="10" cx="510" cy="213"></circle><circle r="6" cx="83" cy="139"></circle><circle r="1" cx="847" cy="130"></circle><circle r="8" cx="916" cy="462"></circle><circle r="5" cx="525" cy="131"></circle><circle r="9" cx="696" cy="468"></circle><circle r="3" cx="637" cy="508"></circle><circle r="4" cx="275" cy="525"></circle><circle r="1" cx="576" cy="265"></circle><circle r="10" cx="836" cy="462"></circle><circle r="3" cx="589" cy="465"></circle><circle r="8" cx="575" cy="200"></circle><circle r="4" cx="466" cy="129"></circle></g></svg>