<svg id="visual" viewBox="0 0 960 540" width="960" height="540" xmlns="http://www.w3.org/2000/svg" xmlns:xlink="http://www.w3.org/1999/xlink" version="1.1"><path d="M0 147L120 147L120 141L240 141L240 141L360 141L360 104L480 104L480 158L600 158L600 158L720 158L720 174L840 174L840 93L960 93L960 104L960 0L960 0L840 0L840 0L720 0L720 0L600 0L600 0L480 0L480 0L360 0L360 0L240 0L240 0L120 0L120 0L0 0Z" fill="#121039"></path><path d="M0 244L120 244L120 282L240 282L240 271L360 271L360 276L480 276L480 271L600 271L600 271L720 271L720 266L840 266L840 244L960 244L960 266L960 102L960 91L840 91L840 172L720 172L720 156L600 156L600 156L480 156L480 102L360 102L360 139L240 139L240 139L120 139L120 145L0 145Z" fill="#292556"></path><path d="M0 314L120 314L120 325L240 325L240 314L360 314L360 341L480 341L480 330L600 330L600 314L720 314L720 347L840 347L840 298L960 298L960 320L960 264L960 242L840 242L840 264L720 264L720 269L600 269L600 269L480 269L480 274L360 274L360 269L240 269L240 280L120 280L120 242L0 242Z" fill="#413c75"></path><path d="M0 395L120 395L120 411L240 411L240 411L360 411L360 417L480 417L480 401L600 401L600 401L720 401L720 428L840 428L840 390L960 390L960 411L960 318L960 296L840 296L840 345L720 345L720 312L600 312L600 328L480 328L480 339L360 339L360 312L240 312L240 323L120 323L120 312L0 312Z" fill="#595596"></path><path d="M0 438L120 438L120 444L240 444L240 444L360 444L360 465L480 465L480 428L600 428L600 444L720 444L720 455L840 455L840 438L960 438L960 449L960 409L960 388L840 388L840 426L720 426L720 399L600 399L600 399L480 399L480 415L360 415L360 409L240 409L240 409L120 409L120 393L0 393Z" fill="#726fb8"></path><path d="M0 482L120 482L120 503L240 503L240 482L360 482L360 503L480 503L480 482L600 482L600 498L720 498L720 503L840 503L840 482L960 482L960 482L960 447L960 436L840 436L840 453L720 453L720 442L600 442L600 426L480 426L480 463L360 463L360 442L240 442L240 442L120 442L120 436L0 436Z" fill="#8c8bdb"></path><path d="M0 541L120 541L120 541L240 541L240 541L360 541L360 541L480 541L480 541L600 541L600 541L720 541L720 541L840 541L840 541L960 541L960 541L960 480L960 480L840 480L840 501L720 501L720 496L600 496L600 480L480 480L480 501L360 501L360 480L240 480L240 501L120 501L120 480L0 480Z" fill="#a7a7ff"></path></svg>