<svg id="visual" viewBox="0 0 900 600" width="900" height="600" xmlns="http://www.w3.org/2000/svg" xmlns:xlink="http://www.w3.org/1999/xlink" version="1.1"><rect x="0" y="0" width="900" height="600" fill="#0f1113"></rect><g fill="none" stroke="#2c2c2c" stroke-width="2"><circle r="12" cx="821" cy="436"></circle><circle r="8" cx="554" cy="143"></circle><circle r="9" cx="353" cy="85"></circle><circle r="9" cx="547" cy="102"></circle><circle r="10" cx="726" cy="347"></circle><circle r="8" cx="882" cy="351"></circle><circle r="10" cx="503" cy="430"></circle><circle r="10" cx="166" cy="64"></circle><circle r="7" cx="806" cy="115"></circle><circle r="7" cx="316" cy="265"></circle><circle r="8" cx="782" cy="569"></circle><circle r="10" cx="397" cy="411"></circle><circle r="8" cx="575" cy="71"></circle><circle r="7" cx="7" cy="597"></circle><circle r="10" cx="717" cy="548"></circle><circle r="9" cx="49" cy="579"></circle><circle r="7" cx="152" cy="210"></circle><circle r="10" cx="430" cy="213"></circle><circle r="7" cx="549" cy="476"></circle><circle r="7" cx="497" cy="375"></circle><circle r="7" cx="714" cy="48"></circle><circle r="10" cx="619" cy="438"></circle><circle r="10" cx="321" cy="467"></circle><circle r="8" cx="645" cy="426"></circle><circle r="8" cx="862" cy="290"></circle><circle r="9" cx="557" cy="189"></circle><circle r="9" cx="420" cy="589"></circle><circle r="9" cx="50" cy="338"></circle><circle r="9" cx="319" cy="417"></circle><circle r="9" cx="395" cy="208"></circle><circle r="9" cx="894" cy="309"></circle><circle r="9" cx="281" cy="325"></circle><circle r="9" cx="540" cy="220"></circle><circle r="9" cx="809" cy="281"></circle><circle r="9" cx="339" cy="284"></circle><circle r="10" cx="359" cy="166"></circle><circle r="8" cx="192" cy="127"></circle><circle r="7" cx="519" cy="203"></circle><circle r="10" cx="837" cy="562"></circle><circle r="9" cx="847" cy="410"></circle><circle r="10" cx="225" cy="159"></circle><circle r="9" cx="336" cy="127"></circle><circle r="7" cx="26" cy="473"></circle><circle r="7" cx="776" cy="449"></circle><circle r="7" cx="605" cy="29"></circle><circle r="8" cx="504" cy="331"></circle><circle r="10" cx="207" cy="332"></circle><circle r="7" cx="897" cy="507"></circle><circle r="9" cx="661" cy="321"></circle><circle r="8" cx="708" cy="82"></circle><circle r="7" cx="28" cy="297"></circle><circle r="8" cx="151" cy="10"></circle><circle r="7" cx="173" cy="166"></circle><circle r="10" cx="773" cy="28"></circle><circle r="10" cx="662" cy="534"></circle><circle r="7" cx="286" cy="142"></circle><circle r="9" cx="379" cy="553"></circle><circle r="7" cx="745" cy="51"></circle><circle r="7" cx="4" cy="414"></circle><circle r="9" cx="578" cy="33"></circle><circle r="7" cx="407" cy="363"></circle><circle r="9" cx="312" cy="155"></circle><circle r="8" cx="293" cy="211"></circle><circle r="9" cx="662" cy="273"></circle><circle r="7" cx="703" cy="578"></circle><circle r="10" cx="613" cy="522"></circle><circle r="10" cx="598" cy="278"></circle><circle r="10" cx="227" cy="439"></circle><circle r="8" cx="505" cy="489"></circle><circle r="7" cx="802" cy="538"></circle><circle r="9" cx="867" cy="479"></circle><circle r="8" cx="775" cy="312"></circle><circle r="8" cx="499" cy="113"></circle><circle r="7" cx="498" cy="548"></circle><circle r="7" cx="572" cy="573"></circle><circle r="8" cx="300" cy="76"></circle><circle r="10" cx="101" cy="58"></circle><circle r="10" cx="4" cy="348"></circle><circle r="9" cx="840" cy="107"></circle><circle r="8" cx="804" cy="148"></circle><circle r="8" cx="834" cy="480"></circle><circle r="8" cx="290" cy="30"></circle><circle r="9" cx="587" cy="359"></circle><circle r="10" cx="5" cy="168"></circle><circle r="8" cx="259" cy="300"></circle><circle r="10" cx="608" cy="562"></circle><circle r="10" cx="339" cy="13"></circle><circle r="7" cx="701" cy="448"></circle><circle r="7" cx="480" cy="408"></circle><circle r="7" cx="746" cy="471"></circle><circle r="8" cx="44" cy="449"></circle><circle r="9" cx="396" cy="22"></circle><circle r="9" cx="258" cy="441"></circle><circle r="9" cx="881" cy="538"></circle><circle r="9" cx="418" cy="162"></circle><circle r="7" cx="817" cy="238"></circle><circle r="9" cx="54" cy="374"></circle><circle r="9" cx="813" cy="52"></circle><circle r="9" cx="862" cy="73"></circle><circle r="8" cx="206" cy="567"></circle><circle r="10" cx="267" cy="490"></circle><circle r="10" cx="9" cy="259"></circle><circle r="8" cx="405" cy="324"></circle><circle r="8" cx="44" cy="116"></circle><circle r="8" cx="221" cy="249"></circle><circle r="8" cx="495" cy="9"></circle><circle r="10" cx="79" cy="479"></circle><circle r="8" cx="16" cy="73"></circle><circle r="8" cx="448" cy="49"></circle><circle r="8" cx="396" cy="527"></circle><circle r="9" cx="283" cy="541"></circle><circle r="7" cx="84" cy="453"></circle><circle r="8" cx="471" cy="253"></circle><circle r="9" cx="629" cy="393"></circle><circle r="10" cx="807" cy="18"></circle><circle r="10" cx="85" cy="359"></circle><circle r="7" cx="631" cy="597"></circle><circle r="8" cx="648" cy="37"></circle><circle r="8" cx="572" cy="534"></circle><circle r="8" cx="37" cy="268"></circle><circle r="10" cx="430" cy="416"></circle><circle r="8" cx="762" cy="193"></circle><circle r="8" cx="249" cy="105"></circle><circle r="9" cx="12" cy="543"></circle><circle r="10" cx="451" cy="85"></circle><circle r="10" cx="886" cy="569"></circle><circle r="8" cx="408" cy="48"></circle><circle r="10" cx="895" cy="375"></circle><circle r="7" cx="2" cy="442"></circle><circle r="9" cx="539" cy="588"></circle><circle r="7" cx="402" cy="289"></circle><circle r="7" cx="761" cy="512"></circle><circle r="10" cx="286" cy="467"></circle><circle r="10" cx="241" cy="23"></circle><circle r="8" cx="76" cy="320"></circle><circle r="8" cx="538" cy="545"></circle><circle r="8" cx="813" cy="198"></circle><circle r="9" cx="314" cy="564"></circle><circle r="10" cx="238" cy="411"></circle><circle r="10" cx="78" cy="216"></circle><circle r="9" cx="570" cy="392"></circle><circle r="7" cx="228" cy="379"></circle><circle r="10" cx="237" cy="321"></circle><circle r="7" cx="94" cy="103"></circle><circle r="9" cx="375" cy="369"></circle><circle r="10" cx="808" cy="581"></circle><circle r="10" cx="642" cy="455"></circle><circle r="8" cx="196" cy="296"></circle><circle r="9" cx="142" cy="84"></circle><circle r="9" cx="848" cy="340"></circle><circle r="7" cx="765" cy="355"></circle><circle r="9" cx="205" cy="215"></circle><circle r="10" cx="258" cy="68"></circle><circle r="9" cx="853" cy="137"></circle><circle r="9" cx="473" cy="307"></circle><circle r="8" cx="308" cy="592"></circle><circle r="7" cx="722" cy="187"></circle><circle r="7" cx="140" cy="508"></circle><circle r="8" cx="705" cy="165"></circle><circle r="7" cx="644" cy="503"></circle><circle r="9" cx="39" cy="193"></circle><circle r="8" cx="162" cy="460"></circle><circle r="7" cx="110" cy="526"></circle><circle r="10" cx="618" cy="135"></circle><circle r="7" cx="666" cy="373"></circle><circle r="7" cx="568" cy="302"></circle></g></svg>