<svg width="196" height="244" viewBox="0 0 196 244" fill="none" xmlns="http://www.w3.org/2000/svg">
<g clip-path="url(#clip0_1_34)">
<path d="M0 130.5C0 130.777 0.198071 131 0.444246 131H195.556C195.802 131 196 130.777 196 130.5C196 130.223 195.802 130 195.556 130H0.444246C0.198071 130 0 130.223 0 130.5Z" fill="#3F3D56"/>
<path d="M128.54 44.1429L129.454 30.0648L147.932 29.3347L147.697 41.9134L128.54 44.1429Z" fill="#CC9393"/>
<path d="M58.6075 196.1L60.7353 215.917L75.385 211.433L73.0208 195.628L58.6075 196.1Z" fill="#CC9393"/>
<path d="M109.939 109.01C109.939 109.01 61.966 118.21 56.2961 132.131C50.6263 146.052 57.2418 198.187 57.2418 198.187L73.5466 199.839L80.3986 139.916C80.3986 139.916 121.992 139.208 125.061 134.256C128.131 129.304 127.662 111.37 127.662 111.37L109.939 109.01Z" fill="#2F2E41"/>
<path d="M58.7993 206.169L49.2975 215.592C49.2975 215.592 33.082 228.889 43.4804 228.181C53.8789 227.473 80.8185 221.105 80.582 216.149C80.3456 211.192 76.0899 201.288 76.0899 201.288L58.7948 206.164H58.7993L58.7993 206.169Z" fill="#2F2E41"/>
<path d="M114.146 201.809L124.861 218.625L136 208.119L126.855 195L114.146 201.809Z" fill="#CC9393"/>
<path d="M121.827 100.736C121.827 100.736 82.9279 130.234 84.0297 145.219C85.1361 160.205 114.239 203.994 114.239 203.994L129.585 198.249L109.091 141.514C109.091 141.514 146.05 122.454 146.599 116.656C147.147 110.858 138.756 95 138.756 95L121.823 100.736L121.827 100.736Z" fill="#2F2E41"/>
<path d="M119.111 209.629L113.7 224C113.7 224 105.853 242.503 114.855 237.262C123.858 232.02 145.167 214.381 142.754 210.043C140.341 205.706 132.124 198.714 132.124 198.714L119.111 209.629Z" fill="#2F2E41"/>
<path d="M136.675 36.0683C144.556 37.7412 152.299 32.7197 153.969 24.8526C155.639 16.9854 150.604 9.25165 142.723 7.57875C134.842 5.90586 127.1 10.9273 125.43 18.7945C123.76 26.6617 128.795 34.3954 136.675 36.0683Z" fill="#CC9393"/>
<path d="M147.93 34.9974L127.337 44.3747L112.413 101.017L104.339 106.055L122.652 133.579C122.652 133.579 149.745 131.131 149.749 118.59L149.752 106.048L153.511 92.8517C159.012 73.5559 157.013 52.8958 147.92 34.9999L147.929 35.0018L147.93 34.9974Z" fill="#9972DF"/>
<path d="M147.579 35.2325L138.956 33.1016C138.956 33.1016 144.091 19.997 138.708 18.9317L133.319 17.8698L134.345 15.5972C134.345 15.5972 123.942 4.85759 130.233 2.61467C136.527 0.377028 141.063 -1.87403 143.87 0.565514C146.681 3.00598 152.984 5.06335 152.984 5.06335C152.984 5.06335 163.405 12.3014 162.211 16.2499C161.017 20.1984 154.678 37.2585 147.575 35.2272L147.58 35.2282L147.579 35.2325Z" fill="#2F2E41"/>
<path d="M188.431 120.111C187.309 118.237 185.757 116.66 183.905 115.513L173.182 95.3776L163.753 100.779L175.647 120.622C175.84 122.798 176.557 124.894 177.724 126.735C180.591 131.385 185.31 133.668 188.266 131.839C191.222 130.01 191.294 124.76 188.431 120.111Z" fill="#CC9393"/>
<path d="M146.415 43.5732L128.272 55.7761L166.088 111.251L179.267 106.277L146.415 43.5732Z" fill="#9972DF"/>
<path fill-rule="evenodd" clip-rule="evenodd" d="M153.095 94.4052L153.975 93.5249L133 59L153.095 94.4052Z" fill="#3B3349"/>
</g>
<defs>
<clipPath id="clip0_1_34">
<rect width="196" height="244" fill="white"/>
</clipPath>
</defs>
</svg>
