<svg width="196" height="244" viewBox="0 0 196 244" fill="none" xmlns="http://www.w3.org/2000/svg">
<path d="M96.0082 131.812C97.3153 130.062 98.1807 128.027 98.5376 125.876L113.08 108.294L104.497 101.632L90.6685 120.184C88.7324 121.191 87.064 122.647 85.8061 124.433C82.5987 128.851 82.2775 134.088 85.0968 136.123C87.9116 138.162 92.7963 136.23 96.0038 131.812L96.0082 131.812Z" fill="#CC9393"/>
<path d="M154.91 62.0337L136.719 49.8986L99.8 105.974L109.413 116.275L154.91 62.0337Z" fill="#876DB7"/>
<path d="M0 130.5C0 130.777 0.198071 131 0.444246 131H195.556C195.802 131 196 130.777 196 130.5C196 130.223 195.802 130 195.556 130H0.444246C0.198071 130 0 130.223 0 130.5Z" fill="#3F3D56"/>
<path d="M123.862 46.336L121.833 32.375L139.757 27.8237L142.139 40.1771L123.862 46.336Z" fill="#CC9393"/>
<path d="M69.8002 195.903L71.9281 215.72L86.5778 211.236L84.2135 195.431L69.8002 195.903Z" fill="#CC9393"/>
<path d="M121.552 109.795C121.552 109.795 73.5786 118.995 67.9088 132.916C62.239 146.837 68.8545 198.972 68.8545 198.972L85.1592 200.624L92.0112 140.701C92.0112 140.701 133.605 139.993 136.674 135.041C139.743 130.089 139.275 112.155 139.275 112.155L121.552 109.795Z" fill="#2F2E41"/>
<path d="M69.9921 205.972L60.4903 215.395C60.4903 215.395 44.2748 228.693 54.6732 227.985C65.0716 227.277 92.0112 220.908 91.7748 215.952C91.5384 210.995 87.2826 201.091 87.2826 201.091L69.9876 205.968H69.992L69.9921 205.972Z" fill="#2F2E41"/>
<path d="M125.339 201.612L136.054 218.428L147.193 207.923L138.048 194.803L125.339 201.612Z" fill="#CC9393"/>
<path d="M133.44 101.521C133.44 101.521 94.5406 131.019 95.6424 146.005C96.7487 160.99 125.852 204.779 125.852 204.779L141.197 199.034L120.704 142.299C120.704 142.299 157.663 123.239 158.211 117.441C158.76 111.643 150.369 95.785 150.369 95.785L133.435 101.521L133.44 101.521Z" fill="#2F2E41"/>
<path d="M130.304 209.432L124.893 223.803C124.893 223.803 117.046 242.306 126.048 237.065C135.05 231.823 156.36 214.184 153.947 209.847C151.533 205.509 143.316 198.517 143.316 198.517L130.304 209.432Z" fill="#2F2E41"/>
<path d="M130.143 36.7481C138.2 36.7481 144.731 30.2284 144.731 22.1859C144.731 14.1434 138.2 7.62372 130.143 7.62372C122.087 7.62372 115.556 14.1434 115.556 22.1859C115.556 30.2284 122.087 36.7481 130.143 36.7481Z" fill="#CC9393"/>
<path d="M140.93 33.3636L122.734 46.8125L119.897 105.319L113.045 111.924L136.674 135.045C136.674 135.045 162.668 127.025 160.067 114.756L157.467 102.487L158.403 88.7979C159.777 68.7804 153.532 48.9857 140.921 33.368H140.93V33.3636Z" fill="#9972DF"/>
<path d="M140.635 33.6664L131.758 33.3725C131.758 33.3725 134.06 19.4872 128.573 19.5629L123.082 19.6431L123.613 17.2072C123.613 17.2072 111.207 8.86174 116.894 5.36147C122.586 1.86565 126.557 -1.27835 129.809 0.525221C133.065 2.32879 139.658 3.03241 139.658 3.03241C139.658 3.03241 151.355 7.94881 151.007 12.0592C150.659 16.1695 148 34.1741 140.631 33.662H140.635V33.6664Z" fill="#2F2E41"/>
<path d="M101.915 132.752C103.132 130.939 103.9 128.864 104.149 126.7L117.809 108.428L108.909 102.193L96.0127 121.4C94.1257 122.5 92.5332 124.041 91.3644 125.88C88.3756 130.454 88.3176 135.695 91.2306 137.592C94.1436 139.489 98.9257 137.321 101.915 132.752Z" fill="#CC9393"/>
<path d="M153.301 62.1634L134.539 50.9367L100.426 108.762L110.534 118.573L153.301 62.1634Z" fill="#9972DF"/>
<path d="M113.979 113.649L144.637 71.7405L115.36 114.979L113.979 113.649Z" fill="#493371"/>
</svg>
