<svg width="487" height="578" viewBox="0 0 487 578" fill="none" xmlns="http://www.w3.org/2000/svg">
<path d="M63.72 33.368V36.392H44.568V33.368H63.72ZM56.772 75.12L45.504 35.088H48.744L60.012 75.12H56.772ZM78.884 45.348V47.796L71.216 43.692V40.848L78.884 45.348ZM99.902 44.88L101.198 47.22L96.194 49.308L101.234 51.36L99.866 53.772L95.51 50.604L96.086 56.04H93.386L93.926 50.604L89.57 53.808L88.166 51.36L93.17 49.272L88.166 47.256L89.498 44.844L93.962 48.048L93.386 42.576H96.122L95.51 48.048L99.902 44.88ZM126.05 54.42V57.192H111.686V54.42H126.05ZM139.362 69.216C138.738 69.216 138.21 69 137.778 68.568C137.346 68.136 137.13 67.608 137.13 66.984C137.13 66.36 137.346 65.832 137.778 65.4C138.21 64.968 138.738 64.752 139.362 64.752C139.962 64.752 140.466 64.968 140.874 65.4C141.306 65.832 141.522 66.36 141.522 66.984C141.522 67.608 141.306 68.136 140.874 68.568C140.466 69 139.962 69.216 139.362 69.216ZM58.234 112.696V112.372C60.706 109.828 62.578 106.864 63.85 103.48C65.146 100.096 65.794 96.5441 65.794 92.8241C65.794 89.0081 65.11 85.336 63.742 81.808C62.398 78.256 60.382 75.22 57.694 72.7V72.376H61.114C63.634 74.704 65.566 77.668 66.91 81.268C68.278 84.844 68.962 88.6961 68.962 92.8241C68.962 96.8561 68.314 100.612 67.018 104.092C65.746 107.572 63.958 110.44 61.654 112.696H58.234ZM133.341 107.368V110.392H114.189V107.368H133.341ZM151.211 82.348V84.796L143.543 80.692V77.848L151.211 82.348ZM174.749 91.42V94.192H160.385V91.42H174.749ZM188.062 106.216C187.438 106.216 186.91 106 186.478 105.568C186.046 105.136 185.83 104.608 185.83 103.984C185.83 103.36 186.046 102.832 186.478 102.4C186.91 101.968 187.438 101.752 188.062 101.752C188.662 101.752 189.166 101.968 189.574 102.4C190.006 102.832 190.222 103.36 190.222 103.984C190.222 104.608 190.006 105.136 189.574 105.568C189.166 106 188.662 106.216 188.062 106.216ZM44.604 143.216C43.98 143.216 43.452 143 43.02 142.568C42.588 142.136 42.372 141.608 42.372 140.984C42.372 140.36 42.588 139.832 43.02 139.4C43.452 138.968 43.98 138.752 44.604 138.752C45.204 138.752 45.708 138.968 46.116 139.4C46.548 139.832 46.764 140.36 46.764 140.984C46.764 141.608 46.548 142.136 46.116 142.568C45.708 143 45.204 143.216 44.604 143.216ZM89.718 143.216C89.094 143.216 88.566 143 88.134 142.568C87.702 142.136 87.486 141.608 87.486 140.984C87.486 140.36 87.702 139.832 88.134 139.4C88.566 138.968 89.094 138.752 89.718 138.752C90.318 138.752 90.822 138.968 91.23 139.4C91.662 139.832 91.878 140.36 91.878 140.984C91.878 141.608 91.662 142.136 91.23 142.568C90.822 143 90.318 143.216 89.718 143.216ZM89.718 127.808C89.094 127.808 88.566 127.592 88.134 127.16C87.702 126.728 87.486 126.2 87.486 125.576C87.486 124.952 87.702 124.424 88.134 123.992C88.566 123.56 89.094 123.344 89.718 123.344C90.318 123.344 90.822 123.56 91.23 123.992C91.662 124.424 91.878 124.952 91.878 125.576C91.878 126.2 91.662 126.728 91.23 127.16C90.822 127.592 90.318 127.808 89.718 127.808ZM123.684 119.348V121.796L116.016 117.692V114.848L123.684 119.348ZM134.586 143.216C133.962 143.216 133.434 143 133.002 142.568C132.57 142.136 132.354 141.608 132.354 140.984C132.354 140.36 132.57 139.832 133.002 139.4C133.434 138.968 133.962 138.752 134.586 138.752C135.186 138.752 135.69 138.968 136.098 139.4C136.53 139.832 136.746 140.36 136.746 140.984C136.746 141.608 136.53 142.136 136.098 142.568C135.69 143 135.186 143.216 134.586 143.216ZM163.982 143.216C163.358 143.216 162.83 143 162.398 142.568C161.966 142.136 161.75 141.608 161.75 140.984C161.75 140.36 161.966 139.832 162.398 139.4C162.83 138.968 163.358 138.752 163.982 138.752C164.582 138.752 165.086 138.968 165.494 139.4C165.926 139.832 166.142 140.36 166.142 140.984C166.142 141.608 165.926 142.136 165.494 142.568C165.086 143 164.582 143.216 163.982 143.216ZM44.604 180.216C43.98 180.216 43.452 180 43.02 179.568C42.588 179.136 42.372 178.608 42.372 177.984C42.372 177.36 42.588 176.832 43.02 176.4C43.452 175.968 43.98 175.752 44.604 175.752C45.204 175.752 45.708 175.968 46.116 176.4C46.548 176.832 46.764 177.36 46.764 177.984C46.764 178.608 46.548 179.136 46.116 179.568C45.708 180 45.204 180.216 44.604 180.216ZM44.604 164.808C43.98 164.808 43.452 164.592 43.02 164.16C42.588 163.728 42.372 163.2 42.372 162.576C42.372 161.952 42.588 161.424 43.02 160.992C43.452 160.56 43.98 160.344 44.604 160.344C45.204 160.344 45.708 160.56 46.116 160.992C46.548 161.424 46.764 161.952 46.764 162.576C46.764 163.2 46.548 163.728 46.116 164.16C45.708 164.592 45.204 164.808 44.604 164.808ZM93.222 181.368V184.392H74.07V181.368H93.222ZM154.393 151.344L153.961 158.508H151.693L151.225 151.344H154.393ZM209.235 186.12L197.967 146.088H201.207L212.475 186.12H209.235ZM45.468 201.772C44.844 201.772 44.316 201.556 43.884 201.124C43.452 200.692 43.236 200.164 43.236 199.54C43.236 198.916 43.452 198.388 43.884 197.956C44.316 197.524 44.844 197.308 45.468 197.308C46.068 197.308 46.572 197.524 46.98 197.956C47.412 198.388 47.628 198.916 47.628 199.54C47.628 200.164 47.412 200.692 46.98 201.124C46.572 201.556 46.068 201.772 45.468 201.772ZM47.844 212.464L43.812 222.148H41.616L44.244 212.464H47.844ZM86.05 192.88L87.346 195.22L82.342 197.308L87.382 199.36L86.014 201.772L81.658 198.604L82.234 204.04H79.534L80.074 198.604L75.718 201.808L74.314 199.36L79.318 197.272L74.314 195.256L75.646 192.844L80.11 196.048L79.534 190.576H82.27L81.658 196.048L86.05 192.88ZM104.026 193.348V195.796L96.358 191.692V188.848L104.026 193.348ZM149.762 218.368V221.392H130.61V218.368H149.762ZM163.168 217.216C162.544 217.216 162.016 217 161.584 216.568C161.152 216.136 160.936 215.608 160.936 214.984C160.936 214.36 161.152 213.832 161.584 213.4C162.016 212.968 162.544 212.752 163.168 212.752C163.768 212.752 164.272 212.968 164.68 213.4C165.112 213.832 165.328 214.36 165.328 214.984C165.328 215.608 165.112 216.136 164.68 216.568C164.272 217 163.768 217.216 163.168 217.216ZM228.464 193.348V195.796L220.796 191.692V188.848L228.464 193.348ZM249.482 192.88L250.778 195.22L245.774 197.308L250.814 199.36L249.446 201.772L245.09 198.604L245.666 204.04H242.966L243.506 198.604L239.15 201.808L237.746 199.36L242.75 197.272L237.746 195.256L239.078 192.844L243.542 196.048L242.966 190.576H245.702L245.09 196.048L249.482 192.88ZM275.63 202.42V205.192H261.266V202.42H275.63ZM288.942 217.216C288.318 217.216 287.79 217 287.358 216.568C286.926 216.136 286.71 215.608 286.71 214.984C286.71 214.36 286.926 213.832 287.358 213.4C287.79 212.968 288.318 212.752 288.942 212.752C289.542 212.752 290.046 212.968 290.454 213.4C290.886 213.832 291.102 214.36 291.102 214.984C291.102 215.608 290.886 216.136 290.454 216.568C290.046 217 289.542 217.216 288.942 217.216ZM321.736 218.368V221.392H302.584V218.368H321.736ZM49.068 230.348V232.796L41.4 228.692V225.848L49.068 230.348ZM72.607 239.42V242.192H58.243V239.42H72.607ZM85.919 254.216C85.295 254.216 84.767 254 84.335 253.568C83.903 253.136 83.687 252.608 83.687 251.984C83.687 251.36 83.903 250.832 84.335 250.4C84.767 249.968 85.295 249.752 85.919 249.752C86.519 249.752 87.023 249.968 87.431 250.4C87.863 250.832 88.079 251.36 88.079 251.984C88.079 252.608 87.863 253.136 87.431 253.568C87.023 254 86.519 254.216 85.919 254.216ZM112.233 239.42V242.192H97.869V239.42H112.233ZM126.157 225.344L125.725 232.508H123.457L122.989 225.344H126.157ZM299.036 230.348V232.796L291.368 228.692V225.848L299.036 230.348ZM322.574 239.42V242.192H308.21V239.42H322.574ZM335.887 254.216C335.263 254.216 334.735 254 334.303 253.568C333.871 253.136 333.655 252.608 333.655 251.984C333.655 251.36 333.871 250.832 334.303 250.4C334.735 249.968 335.263 249.752 335.887 249.752C336.487 249.752 336.991 249.968 337.399 250.4C337.831 250.832 338.047 251.36 338.047 251.984C338.047 252.608 337.831 253.136 337.399 253.568C336.991 254 336.487 254.216 335.887 254.216ZM76.904 275.772C76.28 275.772 75.752 275.556 75.32 275.124C74.888 274.692 74.672 274.164 74.672 273.54C74.672 272.916 74.888 272.388 75.32 271.956C75.752 271.524 76.28 271.308 76.904 271.308C77.504 271.308 78.008 271.524 78.416 271.956C78.848 272.388 79.064 272.916 79.064 273.54C79.064 274.164 78.848 274.692 78.416 275.124C78.008 275.556 77.504 275.772 76.904 275.772ZM79.28 286.464L75.248 296.148H73.052L75.68 286.464H79.28ZM206.14 267.348V269.796L198.472 265.692V262.848L206.14 267.348ZM331.529 267.348V269.796L323.861 265.692V262.848L331.529 267.348ZM342.431 291.216C341.807 291.216 341.279 291 340.847 290.568C340.415 290.136 340.199 289.608 340.199 288.984C340.199 288.36 340.415 287.832 340.847 287.4C341.279 286.968 341.807 286.752 342.431 286.752C343.031 286.752 343.535 286.968 343.943 287.4C344.375 287.832 344.591 288.36 344.591 288.984C344.591 289.608 344.375 290.136 343.943 290.568C343.535 291 343.031 291.216 342.431 291.216ZM76.04 328.216C75.416 328.216 74.888 328 74.456 327.568C74.024 327.136 73.808 326.608 73.808 325.984C73.808 325.36 74.024 324.832 74.456 324.4C74.888 323.968 75.416 323.752 76.04 323.752C76.64 323.752 77.144 323.968 77.552 324.4C77.984 324.832 78.2 325.36 78.2 325.984C78.2 326.608 77.984 327.136 77.552 327.568C77.144 328 76.64 328.216 76.04 328.216ZM76.04 312.808C75.416 312.808 74.888 312.592 74.456 312.16C74.024 311.728 73.808 311.2 73.808 310.576C73.808 309.952 74.024 309.424 74.456 308.992C74.888 308.56 75.416 308.344 76.04 308.344C76.64 308.344 77.144 308.56 77.552 308.992C77.984 309.424 78.2 309.952 78.2 310.576C78.2 311.2 77.984 311.728 77.552 312.16C77.144 312.592 76.64 312.808 76.04 312.808ZM89.824 328.216C89.2 328.216 88.672 328 88.24 327.568C87.808 327.136 87.592 326.608 87.592 325.984C87.592 325.36 87.808 324.832 88.24 324.4C88.672 323.968 89.2 323.752 89.824 323.752C90.424 323.752 90.928 323.968 91.336 324.4C91.768 324.832 91.984 325.36 91.984 325.984C91.984 326.608 91.768 327.136 91.336 327.568C90.928 328 90.424 328.216 89.824 328.216ZM213.526 328.216C212.902 328.216 212.374 328 211.942 327.568C211.51 327.136 211.294 326.608 211.294 325.984C211.294 325.36 211.51 324.832 211.942 324.4C212.374 323.968 212.902 323.752 213.526 323.752C214.126 323.752 214.63 323.968 215.038 324.4C215.47 324.832 215.686 325.36 215.686 325.984C215.686 326.608 215.47 327.136 215.038 327.568C214.63 328 214.126 328.216 213.526 328.216ZM365.114 334.12L353.846 294.088H357.086L368.354 334.12H365.114ZM76.04 365.216C75.416 365.216 74.888 365 74.456 364.568C74.024 364.136 73.808 363.608 73.808 362.984C73.808 362.36 74.024 361.832 74.456 361.4C74.888 360.968 75.416 360.752 76.04 360.752C76.64 360.752 77.144 360.968 77.552 361.4C77.984 361.832 78.2 362.36 78.2 362.984C78.2 363.608 77.984 364.136 77.552 364.568C77.144 365 76.64 365.216 76.04 365.216ZM117.604 371.12L106.336 331.088H109.576L120.844 371.12H117.604ZM166.687 365.216C166.063 365.216 165.535 365 165.103 364.568C164.671 364.136 164.455 363.608 164.455 362.984C164.455 362.36 164.671 361.832 165.103 361.4C165.535 360.968 166.063 360.752 166.687 360.752C167.287 360.752 167.791 360.968 168.199 361.4C168.631 361.832 168.847 362.36 168.847 362.984C168.847 363.608 168.631 364.136 168.199 364.568C167.791 365 167.287 365.216 166.687 365.216ZM227.518 365.216C226.894 365.216 226.366 365 225.934 364.568C225.502 364.136 225.286 363.608 225.286 362.984C225.286 362.36 225.502 361.832 225.934 361.4C226.366 360.968 226.894 360.752 227.518 360.752C228.118 360.752 228.622 360.968 229.03 361.4C229.462 361.832 229.678 362.36 229.678 362.984C229.678 363.608 229.462 364.136 229.03 364.568C228.622 365 228.118 365.216 227.518 365.216ZM227.518 349.808C226.894 349.808 226.366 349.592 225.934 349.16C225.502 348.728 225.286 348.2 225.286 347.576C225.286 346.952 225.502 346.424 225.934 345.992C226.366 345.56 226.894 345.344 227.518 345.344C228.118 345.344 228.622 345.56 229.03 345.992C229.462 346.424 229.678 346.952 229.678 347.576C229.678 348.2 229.462 348.728 229.03 349.16C228.622 349.592 228.118 349.808 227.518 349.808ZM288.455 365.216C287.831 365.216 287.303 365 286.871 364.568C286.439 364.136 286.223 363.608 286.223 362.984C286.223 362.36 286.439 361.832 286.871 361.4C287.303 360.968 287.831 360.752 288.455 360.752C289.055 360.752 289.559 360.968 289.967 361.4C290.399 361.832 290.615 362.36 290.615 362.984C290.615 363.608 290.399 364.136 289.967 364.568C289.559 365 289.055 365.216 288.455 365.216ZM314.77 350.42V353.192H300.406V350.42H314.77ZM328.694 336.344L328.262 343.508H325.994L325.526 336.344H328.694ZM371.368 365.216C370.744 365.216 370.216 365 369.784 364.568C369.352 364.136 369.136 363.608 369.136 362.984C369.136 362.36 369.352 361.832 369.784 361.4C370.216 360.968 370.744 360.752 371.368 360.752C371.968 360.752 372.472 360.968 372.88 361.4C373.312 361.832 373.528 362.36 373.528 362.984C373.528 363.608 373.312 364.136 372.88 364.568C372.472 365 371.968 365.216 371.368 365.216ZM76.652 373.344L76.22 380.508H73.952L73.484 373.344H76.652ZM154.159 403.368V406.392H135.007V403.368H154.159ZM167.566 402.216C166.942 402.216 166.414 402 165.982 401.568C165.55 401.136 165.334 400.608 165.334 399.984C165.334 399.36 165.55 398.832 165.982 398.4C166.414 397.968 166.942 397.752 167.566 397.752C168.166 397.752 168.67 397.968 169.078 398.4C169.51 398.832 169.726 399.36 169.726 399.984C169.726 400.608 169.51 401.136 169.078 401.568C168.67 402 168.166 402.216 167.566 402.216ZM182.108 386.772C181.484 386.772 180.956 386.556 180.524 386.124C180.092 385.692 179.876 385.164 179.876 384.54C179.876 383.916 180.092 383.388 180.524 382.956C180.956 382.524 181.484 382.308 182.108 382.308C182.708 382.308 183.212 382.524 183.62 382.956C184.052 383.388 184.268 383.916 184.268 384.54C184.268 385.164 184.052 385.692 183.62 386.124C183.212 386.556 182.708 386.772 182.108 386.772ZM184.484 397.464L180.452 407.148H178.256L180.884 397.464H184.484ZM229.156 386.772C228.532 386.772 228.004 386.556 227.572 386.124C227.14 385.692 226.924 385.164 226.924 384.54C226.924 383.916 227.14 383.388 227.572 382.956C228.004 382.524 228.532 382.308 229.156 382.308C229.756 382.308 230.26 382.524 230.668 382.956C231.1 383.388 231.316 383.916 231.316 384.54C231.316 385.164 231.1 385.692 230.668 386.124C230.26 386.556 229.756 386.772 229.156 386.772ZM231.532 397.464L227.5 407.148H225.304L227.932 397.464H231.532ZM275.951 373.344L275.519 380.508H273.251L272.783 373.344H275.951ZM381.496 402.216C380.872 402.216 380.344 402 379.912 401.568C379.48 401.136 379.264 400.608 379.264 399.984C379.264 399.36 379.48 398.832 379.912 398.4C380.344 397.968 380.872 397.752 381.496 397.752C382.096 397.752 382.6 397.968 383.008 398.4C383.44 398.832 383.656 399.36 383.656 399.984C383.656 400.608 383.44 401.136 383.008 401.568C382.6 402 382.096 402.216 381.496 402.216ZM381.496 386.808C380.872 386.808 380.344 386.592 379.912 386.16C379.48 385.728 379.264 385.2 379.264 384.576C379.264 383.952 379.48 383.424 379.912 382.992C380.344 382.56 380.872 382.344 381.496 382.344C382.096 382.344 382.6 382.56 383.008 382.992C383.44 383.424 383.656 383.952 383.656 384.576C383.656 385.2 383.44 385.728 383.008 386.16C382.6 386.592 382.096 386.808 381.496 386.808ZM76.04 439.216C75.416 439.216 74.888 439 74.456 438.568C74.024 438.136 73.808 437.608 73.808 436.984C73.808 436.36 74.024 435.832 74.456 435.4C74.888 434.968 75.416 434.752 76.04 434.752C76.64 434.752 77.144 434.968 77.552 435.4C77.984 435.832 78.2 436.36 78.2 436.984C78.2 437.608 77.984 438.136 77.552 438.568C77.144 439 76.64 439.216 76.04 439.216ZM76.04 423.808C75.416 423.808 74.888 423.592 74.456 423.16C74.024 422.728 73.808 422.2 73.808 421.576C73.808 420.952 74.024 420.424 74.456 419.992C74.888 419.56 75.416 419.344 76.04 419.344C76.64 419.344 77.144 419.56 77.552 419.992C77.984 420.424 78.2 420.952 78.2 421.576C78.2 422.2 77.984 422.728 77.552 423.16C77.144 423.592 76.64 423.808 76.04 423.808ZM121.871 410.344L121.439 417.508H119.171L118.703 410.344H121.871ZM167.605 442.816H164.329V410.38H167.605V442.816ZM244.876 423.772C244.252 423.772 243.724 423.556 243.292 423.124C242.86 422.692 242.644 422.164 242.644 421.54C242.644 420.916 242.86 420.388 243.292 419.956C243.724 419.524 244.252 419.308 244.876 419.308C245.476 419.308 245.98 419.524 246.388 419.956C246.82 420.388 247.036 420.916 247.036 421.54C247.036 422.164 246.82 422.692 246.388 423.124C245.98 423.556 245.476 423.772 244.876 423.772ZM247.252 434.464L243.22 444.148H241.024L243.652 434.464H247.252ZM370.512 423.772C369.888 423.772 369.36 423.556 368.928 423.124C368.496 422.692 368.28 422.164 368.28 421.54C368.28 420.916 368.496 420.388 368.928 419.956C369.36 419.524 369.888 419.308 370.512 419.308C371.112 419.308 371.616 419.524 372.024 419.956C372.456 420.388 372.672 420.916 372.672 421.54C372.672 422.164 372.456 422.692 372.024 423.124C371.616 423.556 371.112 423.772 370.512 423.772ZM372.888 434.464L368.856 444.148H366.66L369.288 434.464H372.888ZM397.896 424.42V427.192H383.532V424.42H397.896ZM411.208 439.216C410.584 439.216 410.056 439 409.624 438.568C409.192 438.136 408.976 437.608 408.976 436.984C408.976 436.36 409.192 435.832 409.624 435.4C410.056 434.968 410.584 434.752 411.208 434.752C411.808 434.752 412.312 434.968 412.72 435.4C413.152 435.832 413.368 436.36 413.368 436.984C413.368 437.608 413.152 438.136 412.72 438.568C412.312 439 411.808 439.216 411.208 439.216ZM76.904 460.772C76.28 460.772 75.752 460.556 75.32 460.124C74.888 459.692 74.672 459.164 74.672 458.54C74.672 457.916 74.888 457.388 75.32 456.956C75.752 456.524 76.28 456.308 76.904 456.308C77.504 456.308 78.008 456.524 78.416 456.956C78.848 457.388 79.064 457.916 79.064 458.54C79.064 459.164 78.848 459.692 78.416 460.124C78.008 460.556 77.504 460.772 76.904 460.772ZM79.28 471.464L75.248 481.148H73.052L75.68 471.464H79.28ZM107.982 447.344L107.55 454.508H105.282L104.814 447.344H107.982ZM166.373 476.216C165.749 476.216 165.221 476 164.789 475.568C164.357 475.136 164.141 474.608 164.141 473.984C164.141 473.36 164.357 472.832 164.789 472.4C165.221 471.968 165.749 471.752 166.373 471.752C166.973 471.752 167.477 471.968 167.885 472.4C168.317 472.832 168.533 473.36 168.533 473.984C168.533 474.608 168.317 475.136 167.885 475.568C167.477 476 166.973 476.216 166.373 476.216ZM166.373 460.808C165.749 460.808 165.221 460.592 164.789 460.16C164.357 459.728 164.141 459.2 164.141 458.576C164.141 457.952 164.357 457.424 164.789 456.992C165.221 456.56 165.749 456.344 166.373 456.344C166.973 456.344 167.477 456.56 167.885 456.992C168.317 457.424 168.533 457.952 168.533 458.576C168.533 459.2 168.317 459.728 167.885 460.16C167.477 460.592 166.973 460.808 166.373 460.808ZM195.875 476.216C195.251 476.216 194.723 476 194.291 475.568C193.859 475.136 193.643 474.608 193.643 473.984C193.643 473.36 193.859 472.832 194.291 472.4C194.723 471.968 195.251 471.752 195.875 471.752C196.475 471.752 196.979 471.968 197.387 472.4C197.819 472.832 198.035 473.36 198.035 473.984C198.035 474.608 197.819 475.136 197.387 475.568C196.979 476 196.475 476.216 195.875 476.216ZM195.875 460.808C195.251 460.808 194.723 460.592 194.291 460.16C193.859 459.728 193.643 459.2 193.643 458.576C193.643 457.952 193.859 457.424 194.291 456.992C194.723 456.56 195.251 456.344 195.875 456.344C196.475 456.344 196.979 456.56 197.387 456.992C197.819 457.424 198.035 457.952 198.035 458.576C198.035 459.2 197.819 459.728 197.387 460.16C196.979 460.592 196.475 460.808 195.875 460.808ZM214.123 452.348V454.796L206.455 450.692V447.848L214.123 452.348ZM237.661 461.42V464.192H223.297V461.42H237.661ZM250.973 476.216C250.349 476.216 249.821 476 249.389 475.568C248.957 475.136 248.741 474.608 248.741 473.984C248.741 473.36 248.957 472.832 249.389 472.4C249.821 471.968 250.349 471.752 250.973 471.752C251.573 471.752 252.077 471.968 252.485 472.4C252.917 472.832 253.133 473.36 253.133 473.984C253.133 474.608 252.917 475.136 252.485 475.568C252.077 476 251.573 476.216 250.973 476.216ZM250.973 460.808C250.349 460.808 249.821 460.592 249.389 460.16C248.957 459.728 248.741 459.2 248.741 458.576C248.741 457.952 248.957 457.424 249.389 456.992C249.821 456.56 250.349 456.344 250.973 456.344C251.573 456.344 252.077 456.56 252.485 456.992C252.917 457.424 253.133 457.952 253.133 458.576C253.133 459.2 252.917 459.728 252.485 460.16C252.077 460.592 251.573 460.808 250.973 460.808ZM362.461 477.368V480.392H343.309V477.368H362.461ZM375.868 476.216C375.244 476.216 374.716 476 374.284 475.568C373.852 475.136 373.636 474.608 373.636 473.984C373.636 473.36 373.852 472.832 374.284 472.4C374.716 471.968 375.244 471.752 375.868 471.752C376.468 471.752 376.972 471.968 377.38 472.4C377.812 472.832 378.028 473.36 378.028 473.984C378.028 474.608 377.812 475.136 377.38 475.568C376.972 476 376.468 476.216 375.868 476.216ZM394.01 452.348V454.796L386.342 450.692V447.848L394.01 452.348ZM415.028 451.88L416.324 454.22L411.32 456.308L416.36 458.36L414.992 460.772L410.636 457.604L411.212 463.04H408.512L409.052 457.604L404.696 460.808L403.292 458.36L408.296 456.272L403.292 454.256L404.624 451.844L409.088 455.048L408.512 449.576H411.248L410.636 455.048L415.028 451.88ZM445.122 460.772C444.498 460.772 443.97 460.556 443.538 460.124C443.106 459.692 442.89 459.164 442.89 458.54C442.89 457.916 443.106 457.388 443.538 456.956C443.97 456.524 444.498 456.308 445.122 456.308C445.722 456.308 446.226 456.524 446.634 456.956C447.066 457.388 447.282 457.916 447.282 458.54C447.282 459.164 447.066 459.692 446.634 460.124C446.226 460.556 445.722 460.772 445.122 460.772ZM447.498 471.464L443.466 481.148H441.27L443.898 471.464H447.498ZM44.604 513.216C43.98 513.216 43.452 513 43.02 512.568C42.588 512.136 42.372 511.608 42.372 510.984C42.372 510.36 42.588 509.832 43.02 509.4C43.452 508.968 43.98 508.752 44.604 508.752C45.204 508.752 45.708 508.968 46.116 509.4C46.548 509.832 46.764 510.36 46.764 510.984C46.764 511.608 46.548 512.136 46.116 512.568C45.708 513 45.204 513.216 44.604 513.216ZM68.399 488.88L69.695 491.22L64.691 493.308L69.731 495.36L68.363 497.772L64.007 494.604L64.583 500.04H61.883L62.423 494.604L58.067 497.808L56.663 495.36L61.667 493.272L56.663 491.256L57.995 488.844L62.459 492.048L61.883 486.576H64.619L64.007 492.048L68.399 488.88ZM82.523 484.344L82.091 491.508H79.823L79.355 484.344H82.523ZM120.675 479.088L110.811 519.12H107.571L117.399 479.088H120.675ZM164.155 513.216C163.531 513.216 163.003 513 162.571 512.568C162.139 512.136 161.923 511.608 161.923 510.984C161.923 510.36 162.139 509.832 162.571 509.4C163.003 508.968 163.531 508.752 164.155 508.752C164.755 508.752 165.259 508.968 165.667 509.4C166.099 509.832 166.315 510.36 166.315 510.984C166.315 511.608 166.099 512.136 165.667 512.568C165.259 513 164.755 513.216 164.155 513.216ZM187.95 488.88L189.246 491.22L184.242 493.308L189.282 495.36L187.914 497.772L183.558 494.604L184.134 500.04H181.434L181.974 494.604L177.618 497.808L176.214 495.36L181.218 493.272L176.214 491.256L177.546 488.844L182.01 492.048L181.434 486.576H184.17L183.558 492.048L187.95 488.88ZM202.074 484.344L201.642 491.508H199.374L198.906 484.344H202.074ZM229.894 497.772C229.27 497.772 228.742 497.556 228.31 497.124C227.878 496.692 227.662 496.164 227.662 495.54C227.662 494.916 227.878 494.388 228.31 493.956C228.742 493.524 229.27 493.308 229.894 493.308C230.494 493.308 230.998 493.524 231.406 493.956C231.838 494.388 232.054 494.916 232.054 495.54C232.054 496.164 231.838 496.692 231.406 497.124C230.998 497.556 230.494 497.772 229.894 497.772ZM232.27 508.464L228.238 518.148H226.042L228.67 508.464H232.27ZM260.36 513.216C259.736 513.216 259.208 513 258.776 512.568C258.344 512.136 258.128 511.608 258.128 510.984C258.128 510.36 258.344 509.832 258.776 509.4C259.208 508.968 259.736 508.752 260.36 508.752C260.96 508.752 261.464 508.968 261.872 509.4C262.304 509.832 262.52 510.36 262.52 510.984C262.52 511.608 262.304 512.136 261.872 512.568C261.464 513 260.96 513.216 260.36 513.216ZM284.154 488.88L285.45 491.22L280.446 493.308L285.486 495.36L284.118 497.772L279.762 494.604L280.338 500.04H277.638L278.178 494.604L273.822 497.808L272.418 495.36L277.422 493.272L272.418 491.256L273.75 488.844L278.214 492.048L277.638 486.576H280.374L279.762 492.048L284.154 488.88ZM302.13 489.348V491.796L294.462 487.692V484.848L302.13 489.348ZM325.668 498.42V501.192H311.304V498.42H325.668ZM372.374 501.228H364.706V509.004H361.646V501.228H354.014V498.456H361.646V490.644H364.706V498.456H372.374V501.228ZM386.004 484.344L385.572 491.508H383.304L382.836 484.344H386.004ZM433.142 489.348V491.796L425.474 487.692V484.848L433.142 489.348ZM454.16 488.88L455.456 491.22L450.452 493.308L455.492 495.36L454.124 497.772L449.768 494.604L450.344 500.04H447.644L448.184 494.604L443.828 497.808L442.424 495.36L447.428 493.272L442.424 491.256L443.756 488.844L448.22 492.048L447.644 486.576H450.38L449.768 492.048L454.16 488.88ZM468.284 484.344L467.852 491.508H465.584L465.116 484.344H468.284ZM33.351 526.348V528.796L25.683 524.692V521.848L33.351 526.348ZM54.369 525.88L55.665 528.22L50.661 530.308L55.701 532.36L54.333 534.772L49.977 531.604L50.553 537.04H47.853L48.393 531.604L44.037 534.808L42.633 532.36L47.637 530.272L42.633 528.256L43.965 525.844L48.429 529.048L47.853 523.576H50.589L49.977 529.048L54.369 525.88ZM80.517 535.42V538.192H66.153V535.42H80.517ZM103.945 525.88L105.241 528.22L100.237 530.308L105.277 532.36L103.909 534.772L99.553 531.604L100.129 537.04H97.429L97.969 531.604L93.613 534.808L92.209 532.36L97.213 530.272L92.209 528.256L93.541 525.844L98.005 529.048L97.429 523.576H100.165L99.553 529.048L103.945 525.88ZM169.074 526.348V528.796L161.406 524.692V521.848L169.074 526.348ZM190.092 525.88L191.388 528.22L186.384 530.308L191.424 532.36L190.056 534.772L185.7 531.604L186.276 537.04H183.576L184.116 531.604L179.76 534.808L178.356 532.36L183.36 530.272L178.356 528.256L179.688 525.844L184.152 529.048L183.576 523.576H186.312L185.7 529.048L190.092 525.88ZM216.24 535.42V538.192H201.876V535.42H216.24ZM239.668 525.88L240.964 528.22L235.96 530.308L241 532.36L239.632 534.772L235.276 531.604L235.852 537.04H233.152L233.692 531.604L229.336 534.808L227.932 532.36L232.936 530.272L227.932 528.256L229.264 525.844L233.728 529.048L233.152 523.576H235.888L235.276 529.048L239.668 525.88ZM289.079 526.348V528.796L281.411 524.692V521.848L289.079 526.348ZM310.097 525.88L311.393 528.22L306.389 530.308L311.429 532.36L310.061 534.772L305.705 531.604L306.281 537.04H303.581L304.121 531.604L299.765 534.808L298.361 532.36L303.365 530.272L298.361 528.256L299.693 525.844L304.157 529.048L303.581 523.576H306.317L305.705 529.048L310.097 525.88ZM336.245 535.42V538.192H321.881V535.42H336.245ZM359.673 525.88L360.969 528.22L355.965 530.308L361.005 532.36L359.637 534.772L355.281 531.604L355.857 537.04H353.157L353.697 531.604L349.341 534.808L347.937 532.36L352.941 530.272L347.937 528.256L349.269 525.844L353.733 529.048L353.157 523.576H355.893L355.281 529.048L359.673 525.88ZM373.797 521.344L373.365 528.508H371.097L370.629 521.344H373.797Z" fill="#8D8D8D"/>
</svg>
