<svg width="1419" height="1180" viewBox="0 0 1419 1180" fill="none" xmlns="http://www.w3.org/2000/svg">
<g filter="url(#filter0_d_1_303)">
<g style="mix-blend-mode:color-dodge">
<rect width="10" height="96" transform="translate(422 148)" fill="black"/>
<ellipse cx="427" cy="196" rx="5" ry="48" fill="url(#paint0_radial_1_303)"/>
</g>
<g style="mix-blend-mode:color-dodge">
<rect width="10" height="96" transform="translate(379 201) rotate(-90)" fill="black"/>
<ellipse cx="427" cy="196" rx="5" ry="48" transform="rotate(-90 427 196)" fill="url(#paint1_radial_1_303)"/>
</g>
<g style="mix-blend-mode:color-dodge">
<rect width="10" height="96" transform="translate(581 244)" fill="black"/>
<ellipse cx="586" cy="292" rx="5" ry="48" fill="url(#paint2_radial_1_303)"/>
</g>
<g style="mix-blend-mode:color-dodge">
<rect width="10" height="96" transform="translate(538 297) rotate(-90)" fill="black"/>
<ellipse cx="586" cy="292" rx="5" ry="48" transform="rotate(-90 586 292)" fill="url(#paint3_radial_1_303)"/>
</g>
<g style="mix-blend-mode:color-dodge">
<rect width="10" height="96" transform="translate(889 842)" fill="black"/>
<ellipse cx="894" cy="890" rx="5" ry="48" fill="url(#paint4_radial_1_303)"/>
</g>
<g style="mix-blend-mode:color-dodge">
<rect width="10" height="96" transform="translate(846 895) rotate(-90)" fill="black"/>
<ellipse cx="894" cy="890" rx="5" ry="48" transform="rotate(-90 894 890)" fill="url(#paint5_radial_1_303)"/>
</g>
<g style="mix-blend-mode:color-dodge">
<rect width="10" height="96" transform="translate(889 358)" fill="black"/>
<ellipse cx="894" cy="406" rx="5" ry="48" fill="url(#paint6_radial_1_303)"/>
</g>
<g style="mix-blend-mode:color-dodge">
<rect width="10" height="96" transform="translate(846 411) rotate(-90)" fill="black"/>
<ellipse cx="894" cy="406" rx="5" ry="48" transform="rotate(-90 894 406)" fill="url(#paint7_radial_1_303)"/>
</g>
<g style="mix-blend-mode:color-dodge">
<rect width="10" height="96" transform="translate(475 454)" fill="black"/>
<ellipse cx="480" cy="502" rx="5" ry="48" fill="url(#paint8_radial_1_303)"/>
</g>
<g style="mix-blend-mode:color-dodge">
<rect width="10" height="96" transform="translate(432 507) rotate(-90)" fill="black"/>
<ellipse cx="480" cy="502" rx="5" ry="48" transform="rotate(-90 480 502)" fill="url(#paint9_radial_1_303)"/>
</g>
<g style="mix-blend-mode:color-dodge">
<rect width="10" height="96" transform="translate(634 550)" fill="black"/>
<ellipse cx="639" cy="598" rx="5" ry="48" fill="url(#paint10_radial_1_303)"/>
</g>
<g style="mix-blend-mode:color-dodge">
<rect width="10" height="96" transform="translate(591 603) rotate(-90)" fill="black"/>
<ellipse cx="639" cy="598" rx="5" ry="48" transform="rotate(-90 639 598)" fill="url(#paint11_radial_1_303)"/>
</g>
<g style="mix-blend-mode:color-dodge">
<rect width="10" height="96" transform="translate(809 664)" fill="black"/>
<ellipse cx="814" cy="712" rx="5" ry="48" fill="url(#paint12_radial_1_303)"/>
</g>
<g style="mix-blend-mode:color-dodge">
<rect width="10" height="96" transform="translate(766 717) rotate(-90)" fill="black"/>
<ellipse cx="814" cy="712" rx="5" ry="48" transform="rotate(-90 814 712)" fill="url(#paint13_radial_1_303)"/>
</g>
<g style="mix-blend-mode:color-dodge">
<rect width="10" height="96" transform="translate(985 502)" fill="black"/>
<ellipse cx="990" cy="550" rx="5" ry="48" fill="url(#paint14_radial_1_303)"/>
</g>
<g style="mix-blend-mode:color-dodge">
<rect width="10" height="96" transform="translate(942 555) rotate(-90)" fill="black"/>
<ellipse cx="990" cy="550" rx="5" ry="48" transform="rotate(-90 990 550)" fill="url(#paint15_radial_1_303)"/>
</g>
<g style="mix-blend-mode:color-dodge">
<rect width="10" height="96" transform="translate(422 148)" fill="black"/>
<ellipse cx="427" cy="196" rx="5" ry="48" fill="url(#paint16_radial_1_303)"/>
</g>
<g style="mix-blend-mode:color-dodge">
<rect width="10" height="96" transform="translate(379 201) rotate(-90)" fill="black"/>
<ellipse cx="427" cy="196" rx="5" ry="48" transform="rotate(-90 427 196)" fill="url(#paint17_radial_1_303)"/>
</g>
<g style="mix-blend-mode:color-dodge">
<rect width="10" height="96" transform="translate(164 568)" fill="black"/>
<ellipse cx="169" cy="616" rx="5" ry="48" fill="url(#paint18_radial_1_303)"/>
</g>
<g style="mix-blend-mode:color-dodge">
<rect width="10" height="96" transform="translate(121 621) rotate(-90)" fill="black"/>
<ellipse cx="169" cy="616" rx="5" ry="48" transform="rotate(-90 169 616)" fill="url(#paint19_radial_1_303)"/>
</g>
<g style="mix-blend-mode:color-dodge">
<rect width="10" height="96" transform="translate(646 782)" fill="black"/>
<ellipse cx="651" cy="830" rx="5" ry="48" fill="url(#paint20_radial_1_303)"/>
</g>
<g style="mix-blend-mode:color-dodge">
<rect width="10" height="96" transform="translate(603 835) rotate(-90)" fill="black"/>
<ellipse cx="651" cy="830" rx="5" ry="48" transform="rotate(-90 651 830)" fill="url(#paint21_radial_1_303)"/>
</g>
<g style="mix-blend-mode:color-dodge">
<rect width="10" height="96" transform="translate(730 388)" fill="black"/>
<ellipse cx="735" cy="436" rx="5" ry="48" fill="url(#paint22_radial_1_303)"/>
</g>
<g style="mix-blend-mode:color-dodge">
<rect width="10" height="96" transform="translate(687 441) rotate(-90)" fill="black"/>
<ellipse cx="735" cy="436" rx="5" ry="48" transform="rotate(-90 735 436)" fill="url(#paint23_radial_1_303)"/>
</g>
<g style="mix-blend-mode:color-dodge">
<rect width="10" height="96" transform="translate(193 52)" fill="black"/>
<ellipse cx="198" cy="100" rx="5" ry="48" fill="url(#paint24_radial_1_303)"/>
</g>
<g style="mix-blend-mode:color-dodge">
<rect width="10" height="96" transform="translate(150 105) rotate(-90)" fill="black"/>
<ellipse cx="198" cy="100" rx="5" ry="48" transform="rotate(-90 198 100)" fill="url(#paint25_radial_1_303)"/>
</g>
<g style="mix-blend-mode:color-dodge">
<rect width="10" height="96" transform="translate(756 148)" fill="black"/>
<ellipse cx="761" cy="196" rx="5" ry="48" fill="url(#paint26_radial_1_303)"/>
</g>
<g style="mix-blend-mode:color-dodge">
<rect width="10" height="96" transform="translate(713 201) rotate(-90)" fill="black"/>
<ellipse cx="761" cy="196" rx="5" ry="48" transform="rotate(-90 761 196)" fill="url(#paint27_radial_1_303)"/>
</g>
<g style="mix-blend-mode:color-dodge">
<rect width="10" height="96" transform="translate(1362 568)" fill="black"/>
<ellipse cx="1367" cy="616" rx="5" ry="48" fill="url(#paint28_radial_1_303)"/>
</g>
<g style="mix-blend-mode:color-dodge">
<rect width="10" height="96" transform="translate(1319 621) rotate(-90)" fill="black"/>
<ellipse cx="1367" cy="616" rx="5" ry="48" transform="rotate(-90 1367 616)" fill="url(#paint29_radial_1_303)"/>
</g>
<g style="mix-blend-mode:color-dodge">
<rect width="10" height="96" transform="translate(937 148)" fill="black"/>
<ellipse cx="942" cy="196" rx="5" ry="48" fill="url(#paint30_radial_1_303)"/>
</g>
<g style="mix-blend-mode:color-dodge">
<rect width="10" height="96" transform="translate(894 201) rotate(-90)" fill="black"/>
<ellipse cx="942" cy="196" rx="5" ry="48" transform="rotate(-90 942 196)" fill="url(#paint31_radial_1_303)"/>
</g>
<g style="mix-blend-mode:color-dodge">
<rect width="10" height="96" transform="translate(233 292)" fill="black"/>
<ellipse cx="238" cy="340" rx="5" ry="48" fill="url(#paint32_radial_1_303)"/>
</g>
<g style="mix-blend-mode:color-dodge">
<rect width="10" height="96" transform="translate(190 345) rotate(-90)" fill="black"/>
<ellipse cx="238" cy="340" rx="5" ry="48" transform="rotate(-90 238 340)" fill="url(#paint33_radial_1_303)"/>
</g>
<g style="mix-blend-mode:color-dodge">
<rect width="10" height="96" transform="translate(708)" fill="black"/>
<ellipse cx="713" cy="48" rx="5" ry="48" fill="url(#paint34_radial_1_303)"/>
</g>
<g style="mix-blend-mode:color-dodge">
<rect width="10" height="96" transform="translate(665 53) rotate(-90)" fill="black"/>
<ellipse cx="713" cy="48" rx="5" ry="48" transform="rotate(-90 713 48)" fill="url(#paint35_radial_1_303)"/>
</g>
<g style="mix-blend-mode:color-dodge">
<rect width="10" height="96" transform="translate(349 686)" fill="black"/>
<ellipse cx="354" cy="734" rx="5" ry="48" fill="url(#paint36_radial_1_303)"/>
</g>
<g style="mix-blend-mode:color-dodge">
<rect width="10" height="96" transform="translate(306 739) rotate(-90)" fill="black"/>
<ellipse cx="354" cy="734" rx="5" ry="48" transform="rotate(-90 354 734)" fill="url(#paint37_radial_1_303)"/>
</g>
<g style="mix-blend-mode:color-dodge">
<rect width="10" height="96" transform="translate(1103 83)" fill="black"/>
<ellipse cx="1108" cy="131" rx="5" ry="48" fill="url(#paint38_radial_1_303)"/>
</g>
<g style="mix-blend-mode:color-dodge">
<rect width="10" height="96" transform="translate(1060 136) rotate(-90)" fill="black"/>
<ellipse cx="1108" cy="131" rx="5" ry="48" transform="rotate(-90 1108 131)" fill="url(#paint39_radial_1_303)"/>
</g>
<g style="mix-blend-mode:color-dodge">
<rect width="96" height="96" transform="translate(1079 292)" fill="black"/>
<ellipse cx="1127" cy="340" rx="48" ry="5" transform="rotate(-180 1127 340)" fill="url(#paint40_radial_1_303)"/>
<ellipse cx="1127" cy="340" rx="48" ry="4.99999" transform="rotate(-90 1127 340)" fill="url(#paint41_radial_1_303)"/>
</g>
<g style="mix-blend-mode:color-dodge">
<rect width="10" height="96" transform="matrix(-1 0 0 1 997 382)" fill="black"/>
<ellipse cx="5" cy="48" rx="5" ry="48" transform="matrix(-1 0 0 1 997 382)" fill="url(#paint42_radial_1_303)"/>
</g>
<g style="mix-blend-mode:color-dodge">
<rect width="10" height="96" transform="matrix(4.37114e-08 -1 -1 -4.37114e-08 1040 435)" fill="black"/>
<ellipse cx="5" cy="48" rx="5" ry="48" transform="matrix(4.37114e-08 -1 -1 -4.37114e-08 1040 435)" fill="url(#paint43_radial_1_303)"/>
</g>
<g style="mix-blend-mode:color-dodge">
<rect width="10" height="96" transform="matrix(-1 0 0 1 838 478)" fill="black"/>
<ellipse cx="5" cy="48" rx="5" ry="48" transform="matrix(-1 0 0 1 838 478)" fill="url(#paint44_radial_1_303)"/>
</g>
<g style="mix-blend-mode:color-dodge">
<rect width="10" height="96" transform="matrix(4.37114e-08 -1 -1 -4.37114e-08 881 531)" fill="black"/>
<ellipse cx="5" cy="48" rx="5" ry="48" transform="matrix(4.37114e-08 -1 -1 -4.37114e-08 881 531)" fill="url(#paint45_radial_1_303)"/>
</g>
<g style="mix-blend-mode:color-dodge">
<rect width="10" height="96" transform="matrix(-1 0 0 1 530 1076)" fill="black"/>
<ellipse cx="5" cy="48" rx="5" ry="48" transform="matrix(-1 0 0 1 530 1076)" fill="url(#paint46_radial_1_303)"/>
</g>
<g style="mix-blend-mode:color-dodge">
<rect width="10" height="96" transform="matrix(4.37114e-08 -1 -1 -4.37114e-08 573 1129)" fill="black"/>
<ellipse cx="5" cy="48" rx="5" ry="48" transform="matrix(4.37114e-08 -1 -1 -4.37114e-08 573 1129)" fill="url(#paint47_radial_1_303)"/>
</g>
<g style="mix-blend-mode:color-dodge">
<rect width="10" height="96" transform="matrix(-1 0 0 1 530 592)" fill="black"/>
<ellipse cx="5" cy="48" rx="5" ry="48" transform="matrix(-1 0 0 1 530 592)" fill="url(#paint48_radial_1_303)"/>
</g>
<g style="mix-blend-mode:color-dodge">
<rect width="10" height="96" transform="matrix(4.37114e-08 -1 -1 -4.37114e-08 573 645)" fill="black"/>
<ellipse cx="5" cy="48" rx="5" ry="48" transform="matrix(4.37114e-08 -1 -1 -4.37114e-08 573 645)" fill="url(#paint49_radial_1_303)"/>
</g>
<g style="mix-blend-mode:color-dodge">
<rect width="10" height="96" transform="matrix(-1 0 0 1 944 688)" fill="black"/>
<ellipse cx="5" cy="48" rx="5" ry="48" transform="matrix(-1 0 0 1 944 688)" fill="url(#paint50_radial_1_303)"/>
</g>
<g style="mix-blend-mode:color-dodge">
<rect width="10" height="96" transform="matrix(4.37114e-08 -1 -1 -4.37114e-08 987 741)" fill="black"/>
<ellipse cx="5" cy="48" rx="5" ry="48" transform="matrix(4.37114e-08 -1 -1 -4.37114e-08 987 741)" fill="url(#paint51_radial_1_303)"/>
</g>
<g style="mix-blend-mode:color-dodge">
<rect width="10" height="96" transform="matrix(-1 0 0 1 785 784)" fill="black"/>
<ellipse cx="5" cy="48" rx="5" ry="48" transform="matrix(-1 0 0 1 785 784)" fill="url(#paint52_radial_1_303)"/>
</g>
<g style="mix-blend-mode:color-dodge">
<rect width="10" height="96" transform="matrix(4.37114e-08 -1 -1 -4.37114e-08 828 837)" fill="black"/>
<ellipse cx="5" cy="48" rx="5" ry="48" transform="matrix(4.37114e-08 -1 -1 -4.37114e-08 828 837)" fill="url(#paint53_radial_1_303)"/>
</g>
<g style="mix-blend-mode:color-dodge">
<rect width="10" height="96" transform="matrix(-1 0 0 1 610 898)" fill="black"/>
<ellipse cx="5" cy="48" rx="5" ry="48" transform="matrix(-1 0 0 1 610 898)" fill="url(#paint54_radial_1_303)"/>
</g>
<g style="mix-blend-mode:color-dodge">
<rect width="10" height="96" transform="matrix(4.37114e-08 -1 -1 -4.37114e-08 653 951)" fill="black"/>
<ellipse cx="5" cy="48" rx="5" ry="48" transform="matrix(4.37114e-08 -1 -1 -4.37114e-08 653 951)" fill="url(#paint55_radial_1_303)"/>
</g>
<g style="mix-blend-mode:color-dodge">
<rect width="10" height="96" transform="matrix(-1 0 0 1 434 736)" fill="black"/>
<ellipse cx="5" cy="48" rx="5" ry="48" transform="matrix(-1 0 0 1 434 736)" fill="url(#paint56_radial_1_303)"/>
</g>
<g style="mix-blend-mode:color-dodge">
<rect width="10" height="96" transform="matrix(4.37114e-08 -1 -1 -4.37114e-08 477 789)" fill="black"/>
<ellipse cx="5" cy="48" rx="5" ry="48" transform="matrix(4.37114e-08 -1 -1 -4.37114e-08 477 789)" fill="url(#paint57_radial_1_303)"/>
</g>
<g style="mix-blend-mode:color-dodge">
<rect width="10" height="96" transform="matrix(-1 0 0 1 997 382)" fill="black"/>
<ellipse cx="5" cy="48" rx="5" ry="48" transform="matrix(-1 0 0 1 997 382)" fill="url(#paint58_radial_1_303)"/>
</g>
<g style="mix-blend-mode:color-dodge">
<rect width="10" height="96" transform="matrix(4.37114e-08 -1 -1 -4.37114e-08 1040 435)" fill="black"/>
<ellipse cx="5" cy="48" rx="5" ry="48" transform="matrix(4.37114e-08 -1 -1 -4.37114e-08 1040 435)" fill="url(#paint59_radial_1_303)"/>
</g>
<g style="mix-blend-mode:color-dodge">
<rect width="10" height="96" transform="matrix(-1 0 0 1 1255 802)" fill="black"/>
<ellipse cx="5" cy="48" rx="5" ry="48" transform="matrix(-1 0 0 1 1255 802)" fill="url(#paint60_radial_1_303)"/>
</g>
<g style="mix-blend-mode:color-dodge">
<rect width="10" height="96" transform="matrix(4.37114e-08 -1 -1 -4.37114e-08 1298 855)" fill="black"/>
<ellipse cx="5" cy="48" rx="5" ry="48" transform="matrix(4.37114e-08 -1 -1 -4.37114e-08 1298 855)" fill="url(#paint61_radial_1_303)"/>
</g>
<g style="mix-blend-mode:color-dodge">
<rect width="10" height="96" transform="matrix(-1 0 0 1 773 1016)" fill="black"/>
<ellipse cx="5" cy="48" rx="5" ry="48" transform="matrix(-1 0 0 1 773 1016)" fill="url(#paint62_radial_1_303)"/>
</g>
<g style="mix-blend-mode:color-dodge">
<rect width="10" height="96" transform="matrix(4.37114e-08 -1 -1 -4.37114e-08 816 1069)" fill="black"/>
<ellipse cx="5" cy="48" rx="5" ry="48" transform="matrix(4.37114e-08 -1 -1 -4.37114e-08 816 1069)" fill="url(#paint63_radial_1_303)"/>
</g>
<g style="mix-blend-mode:color-dodge">
<rect width="10" height="96" transform="matrix(-1 0 0 1 689 622)" fill="black"/>
<ellipse cx="5" cy="48" rx="5" ry="48" transform="matrix(-1 0 0 1 689 622)" fill="url(#paint64_radial_1_303)"/>
</g>
<g style="mix-blend-mode:color-dodge">
<rect width="10" height="96" transform="matrix(4.37114e-08 -1 -1 -4.37114e-08 732 675)" fill="black"/>
<ellipse cx="5" cy="48" rx="5" ry="48" transform="matrix(4.37114e-08 -1 -1 -4.37114e-08 732 675)" fill="url(#paint65_radial_1_303)"/>
</g>
<g style="mix-blend-mode:color-dodge">
<rect width="10" height="96" transform="matrix(-1 0 0 1 1226 286)" fill="black"/>
<ellipse cx="5" cy="48" rx="5" ry="48" transform="matrix(-1 0 0 1 1226 286)" fill="url(#paint66_radial_1_303)"/>
</g>
<g style="mix-blend-mode:color-dodge">
<rect width="10" height="96" transform="matrix(4.37114e-08 -1 -1 -4.37114e-08 1269 339)" fill="black"/>
<ellipse cx="5" cy="48" rx="5" ry="48" transform="matrix(4.37114e-08 -1 -1 -4.37114e-08 1269 339)" fill="url(#paint67_radial_1_303)"/>
</g>
<g style="mix-blend-mode:color-dodge">
<rect width="10" height="96" transform="matrix(-1 0 0 1 663 382)" fill="black"/>
<ellipse cx="5" cy="48" rx="5" ry="48" transform="matrix(-1 0 0 1 663 382)" fill="url(#paint68_radial_1_303)"/>
</g>
<g style="mix-blend-mode:color-dodge">
<rect width="10" height="96" transform="matrix(4.37114e-08 -1 -1 -4.37114e-08 706 435)" fill="black"/>
<ellipse cx="5" cy="48" rx="5" ry="48" transform="matrix(4.37114e-08 -1 -1 -4.37114e-08 706 435)" fill="url(#paint69_radial_1_303)"/>
</g>
<g style="mix-blend-mode:color-dodge">
<rect width="10" height="96" transform="matrix(-1 0 0 1 57 802)" fill="black"/>
<ellipse cx="5" cy="48" rx="5" ry="48" transform="matrix(-1 0 0 1 57 802)" fill="url(#paint70_radial_1_303)"/>
</g>
<g style="mix-blend-mode:color-dodge">
<rect width="10" height="96" transform="matrix(4.37114e-08 -1 -1 -4.37114e-08 100 855)" fill="black"/>
<ellipse cx="5" cy="48" rx="5" ry="48" transform="matrix(4.37114e-08 -1 -1 -4.37114e-08 100 855)" fill="url(#paint71_radial_1_303)"/>
</g>
<g style="mix-blend-mode:color-dodge">
<rect width="10" height="96" transform="matrix(-1 0 0 1 482 382)" fill="black"/>
<ellipse cx="5" cy="48" rx="5" ry="48" transform="matrix(-1 0 0 1 482 382)" fill="url(#paint72_radial_1_303)"/>
</g>
<g style="mix-blend-mode:color-dodge">
<rect width="10" height="96" transform="matrix(4.37114e-08 -1 -1 -4.37114e-08 525 435)" fill="black"/>
<ellipse cx="5" cy="48" rx="5" ry="48" transform="matrix(4.37114e-08 -1 -1 -4.37114e-08 525 435)" fill="url(#paint73_radial_1_303)"/>
</g>
<g style="mix-blend-mode:color-dodge">
<rect width="10" height="96" transform="matrix(-1 0 0 1 1186 526)" fill="black"/>
<ellipse cx="5" cy="48" rx="5" ry="48" transform="matrix(-1 0 0 1 1186 526)" fill="url(#paint74_radial_1_303)"/>
</g>
<g style="mix-blend-mode:color-dodge">
<rect width="10" height="96" transform="matrix(4.37114e-08 -1 -1 -4.37114e-08 1229 579)" fill="black"/>
<ellipse cx="5" cy="48" rx="5" ry="48" transform="matrix(4.37114e-08 -1 -1 -4.37114e-08 1229 579)" fill="url(#paint75_radial_1_303)"/>
</g>
<g style="mix-blend-mode:color-dodge">
<rect width="10" height="96" transform="matrix(-1 0 0 1 711 234)" fill="black"/>
<ellipse cx="5" cy="48" rx="5" ry="48" transform="matrix(-1 0 0 1 711 234)" fill="url(#paint76_radial_1_303)"/>
</g>
<g style="mix-blend-mode:color-dodge">
<rect width="10" height="96" transform="matrix(4.37114e-08 -1 -1 -4.37114e-08 754 287)" fill="black"/>
<ellipse cx="5" cy="48" rx="5" ry="48" transform="matrix(4.37114e-08 -1 -1 -4.37114e-08 754 287)" fill="url(#paint77_radial_1_303)"/>
</g>
<g style="mix-blend-mode:color-dodge">
<rect width="10" height="96" transform="matrix(-1 0 0 1 1070 920)" fill="black"/>
<ellipse cx="5" cy="48" rx="5" ry="48" transform="matrix(-1 0 0 1 1070 920)" fill="url(#paint78_radial_1_303)"/>
</g>
<g style="mix-blend-mode:color-dodge">
<rect width="10" height="96" transform="matrix(4.37114e-08 -1 -1 -4.37114e-08 1113 973)" fill="black"/>
<ellipse cx="5" cy="48" rx="5" ry="48" transform="matrix(4.37114e-08 -1 -1 -4.37114e-08 1113 973)" fill="url(#paint79_radial_1_303)"/>
</g>
<g style="mix-blend-mode:color-dodge">
<rect width="10" height="96" transform="matrix(-1 0 0 1 316 317)" fill="black"/>
<ellipse cx="5" cy="48" rx="5" ry="48" transform="matrix(-1 0 0 1 316 317)" fill="url(#paint80_radial_1_303)"/>
</g>
<g style="mix-blend-mode:color-dodge">
<rect width="10" height="96" transform="matrix(4.37114e-08 -1 -1 -4.37114e-08 359 370)" fill="black"/>
<ellipse cx="5" cy="48" rx="5" ry="48" transform="matrix(4.37114e-08 -1 -1 -4.37114e-08 359 370)" fill="url(#paint81_radial_1_303)"/>
</g>
<g style="mix-blend-mode:color-dodge">
<rect width="96" height="96" transform="matrix(-1 0 0 1 340 526)" fill="black"/>
<ellipse cx="48" cy="5" rx="48" ry="5" transform="matrix(1 -8.74228e-08 -8.74228e-08 -1 244 579)" fill="url(#paint82_radial_1_303)"/>
<ellipse cx="48" cy="4.99999" rx="48" ry="4.99999" transform="matrix(-1.31134e-07 -1 -1 1.31134e-07 297 622)" fill="url(#paint83_radial_1_303)"/>
</g>
</g>
<defs>
<filter id="filter0_d_1_303" x="0" y="0" width="1419" height="1180" filterUnits="userSpaceOnUse" color-interpolation-filters="sRGB">
<feFlood flood-opacity="0" result="BackgroundImageFix"/>
<feColorMatrix in="SourceAlpha" type="matrix" values="0 0 0 0 0 0 0 0 0 0 0 0 0 0 0 0 0 0 127 0" result="hardAlpha"/>
<feOffset dy="4"/>
<feGaussianBlur stdDeviation="2"/>
<feComposite in2="hardAlpha" operator="out"/>
<feColorMatrix type="matrix" values="0 0 0 0 0 0 0 0 0 0 0 0 0 0 0 0 0 0 0.25 0"/>
<feBlend mode="normal" in2="BackgroundImageFix" result="effect1_dropShadow_1_303"/>
<feBlend mode="normal" in="SourceGraphic" in2="effect1_dropShadow_1_303" result="shape"/>
</filter>
<radialGradient id="paint0_radial_1_303" cx="0" cy="0" r="1" gradientUnits="userSpaceOnUse" gradientTransform="translate(427 196) rotate(90) scale(48 5)">
<stop offset="0.0364583" stop-color="#FFF1E4"/>
<stop offset="1" stop-color="#3A71FF" stop-opacity="0"/>
</radialGradient>
<radialGradient id="paint1_radial_1_303" cx="0" cy="0" r="1" gradientUnits="userSpaceOnUse" gradientTransform="translate(427 196) rotate(90) scale(48 5)">
<stop offset="0.0364583" stop-color="#FFF1E4"/>
<stop offset="1" stop-color="#3A71FF" stop-opacity="0"/>
</radialGradient>
<radialGradient id="paint2_radial_1_303" cx="0" cy="0" r="1" gradientUnits="userSpaceOnUse" gradientTransform="translate(586 292) rotate(90) scale(48 5)">
<stop offset="0.151042" stop-color="#FFF1E4"/>
<stop offset="1" stop-color="#FFC83A" stop-opacity="0"/>
</radialGradient>
<radialGradient id="paint3_radial_1_303" cx="0" cy="0" r="1" gradientUnits="userSpaceOnUse" gradientTransform="translate(586 292) rotate(90) scale(48 5)">
<stop offset="0.151042" stop-color="#FFF1E4"/>
<stop offset="1" stop-color="#FFC83A" stop-opacity="0"/>
</radialGradient>
<radialGradient id="paint4_radial_1_303" cx="0" cy="0" r="1" gradientUnits="userSpaceOnUse" gradientTransform="translate(894 890) rotate(90) scale(48 5)">
<stop offset="0.151042" stop-color="#F0FFE4"/>
<stop offset="1" stop-color="#3A71FF" stop-opacity="0"/>
</radialGradient>
<radialGradient id="paint5_radial_1_303" cx="0" cy="0" r="1" gradientUnits="userSpaceOnUse" gradientTransform="translate(894 890) rotate(90) scale(48 5)">
<stop offset="0.151042" stop-color="#F0FFE4"/>
<stop offset="1" stop-color="#3A71FF" stop-opacity="0"/>
</radialGradient>
<radialGradient id="paint6_radial_1_303" cx="0" cy="0" r="1" gradientUnits="userSpaceOnUse" gradientTransform="translate(894 406) rotate(90) scale(48 5)">
<stop offset="0.151042" stop-color="white"/>
<stop offset="1" stop-color="white" stop-opacity="0"/>
</radialGradient>
<radialGradient id="paint7_radial_1_303" cx="0" cy="0" r="1" gradientUnits="userSpaceOnUse" gradientTransform="translate(894 406) rotate(90) scale(48 5)">
<stop offset="0.151042" stop-color="white"/>
<stop offset="1" stop-color="white" stop-opacity="0"/>
</radialGradient>
<radialGradient id="paint8_radial_1_303" cx="0" cy="0" r="1" gradientUnits="userSpaceOnUse" gradientTransform="translate(480 502) rotate(90) scale(48 5)">
<stop offset="0.0364583" stop-color="#FFF1E4"/>
<stop offset="1" stop-color="#3A71FF" stop-opacity="0"/>
</radialGradient>
<radialGradient id="paint9_radial_1_303" cx="0" cy="0" r="1" gradientUnits="userSpaceOnUse" gradientTransform="translate(480 502) rotate(90) scale(48 5)">
<stop offset="0.0364583" stop-color="#FFF1E4"/>
<stop offset="1" stop-color="#3A71FF" stop-opacity="0"/>
</radialGradient>
<radialGradient id="paint10_radial_1_303" cx="0" cy="0" r="1" gradientUnits="userSpaceOnUse" gradientTransform="translate(639 598) rotate(90) scale(48 5)">
<stop offset="0.151042" stop-color="#FFF1E4"/>
<stop offset="1" stop-color="#FFC83A" stop-opacity="0"/>
</radialGradient>
<radialGradient id="paint11_radial_1_303" cx="0" cy="0" r="1" gradientUnits="userSpaceOnUse" gradientTransform="translate(639 598) rotate(90) scale(48 5)">
<stop offset="0.151042" stop-color="#FFF1E4"/>
<stop offset="1" stop-color="#FFC83A" stop-opacity="0"/>
</radialGradient>
<radialGradient id="paint12_radial_1_303" cx="0" cy="0" r="1" gradientUnits="userSpaceOnUse" gradientTransform="translate(814 712) rotate(90) scale(48 5)">
<stop offset="0.151042" stop-color="#F0FFE4"/>
<stop offset="1" stop-color="#3A71FF" stop-opacity="0"/>
</radialGradient>
<radialGradient id="paint13_radial_1_303" cx="0" cy="0" r="1" gradientUnits="userSpaceOnUse" gradientTransform="translate(814 712) rotate(90) scale(48 5)">
<stop offset="0.151042" stop-color="#F0FFE4"/>
<stop offset="1" stop-color="#3A71FF" stop-opacity="0"/>
</radialGradient>
<radialGradient id="paint14_radial_1_303" cx="0" cy="0" r="1" gradientUnits="userSpaceOnUse" gradientTransform="translate(990 550) rotate(90) scale(48 5)">
<stop offset="0.151042" stop-color="white"/>
<stop offset="1" stop-color="white" stop-opacity="0"/>
</radialGradient>
<radialGradient id="paint15_radial_1_303" cx="0" cy="0" r="1" gradientUnits="userSpaceOnUse" gradientTransform="translate(990 550) rotate(90) scale(48 5)">
<stop offset="0.151042" stop-color="white"/>
<stop offset="1" stop-color="white" stop-opacity="0"/>
</radialGradient>
<radialGradient id="paint16_radial_1_303" cx="0" cy="0" r="1" gradientUnits="userSpaceOnUse" gradientTransform="translate(427 196) rotate(90) scale(48 5)">
<stop offset="0.0364583" stop-color="#FFF1E4"/>
<stop offset="1" stop-color="#3A71FF" stop-opacity="0"/>
</radialGradient>
<radialGradient id="paint17_radial_1_303" cx="0" cy="0" r="1" gradientUnits="userSpaceOnUse" gradientTransform="translate(427 196) rotate(90) scale(48 5)">
<stop offset="0.0364583" stop-color="#FFF1E4"/>
<stop offset="1" stop-color="#3A71FF" stop-opacity="0"/>
</radialGradient>
<radialGradient id="paint18_radial_1_303" cx="0" cy="0" r="1" gradientUnits="userSpaceOnUse" gradientTransform="translate(169 616) rotate(90) scale(48 5)">
<stop offset="0.151042" stop-color="#FFF1E4"/>
<stop offset="1" stop-color="#FFC83A" stop-opacity="0"/>
</radialGradient>
<radialGradient id="paint19_radial_1_303" cx="0" cy="0" r="1" gradientUnits="userSpaceOnUse" gradientTransform="translate(169 616) rotate(90) scale(48 5)">
<stop offset="0.151042" stop-color="#FFF1E4"/>
<stop offset="1" stop-color="#FFC83A" stop-opacity="0"/>
</radialGradient>
<radialGradient id="paint20_radial_1_303" cx="0" cy="0" r="1" gradientUnits="userSpaceOnUse" gradientTransform="translate(651 830) rotate(90) scale(48 5)">
<stop offset="0.151042" stop-color="#F0FFE4"/>
<stop offset="1" stop-color="#3A71FF" stop-opacity="0"/>
</radialGradient>
<radialGradient id="paint21_radial_1_303" cx="0" cy="0" r="1" gradientUnits="userSpaceOnUse" gradientTransform="translate(651 830) rotate(90) scale(48 5)">
<stop offset="0.151042" stop-color="#F0FFE4"/>
<stop offset="1" stop-color="#3A71FF" stop-opacity="0"/>
</radialGradient>
<radialGradient id="paint22_radial_1_303" cx="0" cy="0" r="1" gradientUnits="userSpaceOnUse" gradientTransform="translate(735 436) rotate(90) scale(48 5)">
<stop offset="0.151042" stop-color="white"/>
<stop offset="1" stop-color="white" stop-opacity="0"/>
</radialGradient>
<radialGradient id="paint23_radial_1_303" cx="0" cy="0" r="1" gradientUnits="userSpaceOnUse" gradientTransform="translate(735 436) rotate(90) scale(48 5)">
<stop offset="0.151042" stop-color="white"/>
<stop offset="1" stop-color="white" stop-opacity="0"/>
</radialGradient>
<radialGradient id="paint24_radial_1_303" cx="0" cy="0" r="1" gradientUnits="userSpaceOnUse" gradientTransform="translate(198 100) rotate(90) scale(48 5)">
<stop offset="0.0364583" stop-color="#FFF1E4"/>
<stop offset="1" stop-color="#3A71FF" stop-opacity="0"/>
</radialGradient>
<radialGradient id="paint25_radial_1_303" cx="0" cy="0" r="1" gradientUnits="userSpaceOnUse" gradientTransform="translate(198 100) rotate(90) scale(48 5)">
<stop offset="0.0364583" stop-color="#FFF1E4"/>
<stop offset="1" stop-color="#3A71FF" stop-opacity="0"/>
</radialGradient>
<radialGradient id="paint26_radial_1_303" cx="0" cy="0" r="1" gradientUnits="userSpaceOnUse" gradientTransform="translate(761 196) rotate(90) scale(48 5)">
<stop offset="0.151042" stop-color="#FFF1E4"/>
<stop offset="1" stop-color="#FFC83A" stop-opacity="0"/>
</radialGradient>
<radialGradient id="paint27_radial_1_303" cx="0" cy="0" r="1" gradientUnits="userSpaceOnUse" gradientTransform="translate(761 196) rotate(90) scale(48 5)">
<stop offset="0.151042" stop-color="#FFF1E4"/>
<stop offset="1" stop-color="#FFC83A" stop-opacity="0"/>
</radialGradient>
<radialGradient id="paint28_radial_1_303" cx="0" cy="0" r="1" gradientUnits="userSpaceOnUse" gradientTransform="translate(1367 616) rotate(90) scale(48 5)">
<stop offset="0.151042" stop-color="#F0FFE4"/>
<stop offset="1" stop-color="#3A71FF" stop-opacity="0"/>
</radialGradient>
<radialGradient id="paint29_radial_1_303" cx="0" cy="0" r="1" gradientUnits="userSpaceOnUse" gradientTransform="translate(1367 616) rotate(90) scale(48 5)">
<stop offset="0.151042" stop-color="#F0FFE4"/>
<stop offset="1" stop-color="#3A71FF" stop-opacity="0"/>
</radialGradient>
<radialGradient id="paint30_radial_1_303" cx="0" cy="0" r="1" gradientUnits="userSpaceOnUse" gradientTransform="translate(942 196) rotate(90) scale(48 5)">
<stop offset="0.151042" stop-color="white"/>
<stop offset="1" stop-color="white" stop-opacity="0"/>
</radialGradient>
<radialGradient id="paint31_radial_1_303" cx="0" cy="0" r="1" gradientUnits="userSpaceOnUse" gradientTransform="translate(942 196) rotate(90) scale(48 5)">
<stop offset="0.151042" stop-color="white"/>
<stop offset="1" stop-color="white" stop-opacity="0"/>
</radialGradient>
<radialGradient id="paint32_radial_1_303" cx="0" cy="0" r="1" gradientUnits="userSpaceOnUse" gradientTransform="translate(238 340) rotate(90) scale(48 5)">
<stop offset="0.0364583" stop-color="#FFF1E4"/>
<stop offset="1" stop-color="#3A71FF" stop-opacity="0"/>
</radialGradient>
<radialGradient id="paint33_radial_1_303" cx="0" cy="0" r="1" gradientUnits="userSpaceOnUse" gradientTransform="translate(238 340) rotate(90) scale(48 5)">
<stop offset="0.0364583" stop-color="#FFF1E4"/>
<stop offset="1" stop-color="#3A71FF" stop-opacity="0"/>
</radialGradient>
<radialGradient id="paint34_radial_1_303" cx="0" cy="0" r="1" gradientUnits="userSpaceOnUse" gradientTransform="translate(713 48) rotate(90) scale(48 5)">
<stop offset="0.151042" stop-color="#FFF1E4"/>
<stop offset="1" stop-color="#FFC83A" stop-opacity="0"/>
</radialGradient>
<radialGradient id="paint35_radial_1_303" cx="0" cy="0" r="1" gradientUnits="userSpaceOnUse" gradientTransform="translate(713 48) rotate(90) scale(48 5)">
<stop offset="0.151042" stop-color="#FFF1E4"/>
<stop offset="1" stop-color="#FFC83A" stop-opacity="0"/>
</radialGradient>
<radialGradient id="paint36_radial_1_303" cx="0" cy="0" r="1" gradientUnits="userSpaceOnUse" gradientTransform="translate(354 734) rotate(90) scale(48 5)">
<stop offset="0.151042" stop-color="#F0FFE4"/>
<stop offset="1" stop-color="#3A71FF" stop-opacity="0"/>
</radialGradient>
<radialGradient id="paint37_radial_1_303" cx="0" cy="0" r="1" gradientUnits="userSpaceOnUse" gradientTransform="translate(354 734) rotate(90) scale(48 5)">
<stop offset="0.151042" stop-color="#F0FFE4"/>
<stop offset="1" stop-color="#3A71FF" stop-opacity="0"/>
</radialGradient>
<radialGradient id="paint38_radial_1_303" cx="0" cy="0" r="1" gradientUnits="userSpaceOnUse" gradientTransform="translate(1108 131) rotate(90) scale(48 5)">
<stop offset="0.151042" stop-color="white"/>
<stop offset="1" stop-color="white" stop-opacity="0"/>
</radialGradient>
<radialGradient id="paint39_radial_1_303" cx="0" cy="0" r="1" gradientUnits="userSpaceOnUse" gradientTransform="translate(1108 131) rotate(90) scale(48 5)">
<stop offset="0.151042" stop-color="white"/>
<stop offset="1" stop-color="white" stop-opacity="0"/>
</radialGradient>
<radialGradient id="paint40_radial_1_303" cx="0" cy="0" r="1" gradientUnits="userSpaceOnUse" gradientTransform="translate(1127 340) rotate(90) scale(5 48)">
<stop offset="0.109375" stop-color="white"/>
<stop offset="1" stop-color="white" stop-opacity="0"/>
</radialGradient>
<radialGradient id="paint41_radial_1_303" cx="0" cy="0" r="1" gradientUnits="userSpaceOnUse" gradientTransform="translate(1127 340) rotate(90) scale(4.99999 48)">
<stop offset="0.109375" stop-color="white"/>
<stop offset="1" stop-color="white" stop-opacity="0"/>
</radialGradient>
<radialGradient id="paint42_radial_1_303" cx="0" cy="0" r="1" gradientUnits="userSpaceOnUse" gradientTransform="translate(5 48) rotate(90) scale(48 5)">
<stop offset="0.0364583" stop-color="#FFF1E4"/>
<stop offset="1" stop-color="#3A71FF" stop-opacity="0"/>
</radialGradient>
<radialGradient id="paint43_radial_1_303" cx="0" cy="0" r="1" gradientUnits="userSpaceOnUse" gradientTransform="translate(5 48) rotate(90) scale(48 5)">
<stop offset="0.0364583" stop-color="#FFF1E4"/>
<stop offset="1" stop-color="#3A71FF" stop-opacity="0"/>
</radialGradient>
<radialGradient id="paint44_radial_1_303" cx="0" cy="0" r="1" gradientUnits="userSpaceOnUse" gradientTransform="translate(5 48) rotate(90) scale(48 5)">
<stop offset="0.151042" stop-color="#FFF1E4"/>
<stop offset="1" stop-color="#FFC83A" stop-opacity="0"/>
</radialGradient>
<radialGradient id="paint45_radial_1_303" cx="0" cy="0" r="1" gradientUnits="userSpaceOnUse" gradientTransform="translate(5 48) rotate(90) scale(48 5)">
<stop offset="0.151042" stop-color="#FFF1E4"/>
<stop offset="1" stop-color="#FFC83A" stop-opacity="0"/>
</radialGradient>
<radialGradient id="paint46_radial_1_303" cx="0" cy="0" r="1" gradientUnits="userSpaceOnUse" gradientTransform="translate(5 48) rotate(90) scale(48 5)">
<stop offset="0.151042" stop-color="#F0FFE4"/>
<stop offset="1" stop-color="#3A71FF" stop-opacity="0"/>
</radialGradient>
<radialGradient id="paint47_radial_1_303" cx="0" cy="0" r="1" gradientUnits="userSpaceOnUse" gradientTransform="translate(5 48) rotate(90) scale(48 5)">
<stop offset="0.151042" stop-color="#F0FFE4"/>
<stop offset="1" stop-color="#3A71FF" stop-opacity="0"/>
</radialGradient>
<radialGradient id="paint48_radial_1_303" cx="0" cy="0" r="1" gradientUnits="userSpaceOnUse" gradientTransform="translate(5 48) rotate(90) scale(48 5)">
<stop offset="0.151042" stop-color="white"/>
<stop offset="1" stop-color="white" stop-opacity="0"/>
</radialGradient>
<radialGradient id="paint49_radial_1_303" cx="0" cy="0" r="1" gradientUnits="userSpaceOnUse" gradientTransform="translate(5 48) rotate(90) scale(48 5)">
<stop offset="0.151042" stop-color="white"/>
<stop offset="1" stop-color="white" stop-opacity="0"/>
</radialGradient>
<radialGradient id="paint50_radial_1_303" cx="0" cy="0" r="1" gradientUnits="userSpaceOnUse" gradientTransform="translate(5 48) rotate(90) scale(48 5)">
<stop offset="0.0364583" stop-color="#FFF1E4"/>
<stop offset="1" stop-color="#3A71FF" stop-opacity="0"/>
</radialGradient>
<radialGradient id="paint51_radial_1_303" cx="0" cy="0" r="1" gradientUnits="userSpaceOnUse" gradientTransform="translate(5 48) rotate(90) scale(48 5)">
<stop offset="0.0364583" stop-color="#FFF1E4"/>
<stop offset="1" stop-color="#3A71FF" stop-opacity="0"/>
</radialGradient>
<radialGradient id="paint52_radial_1_303" cx="0" cy="0" r="1" gradientUnits="userSpaceOnUse" gradientTransform="translate(5 48) rotate(90) scale(48 5)">
<stop offset="0.151042" stop-color="#FFF1E4"/>
<stop offset="1" stop-color="#FFC83A" stop-opacity="0"/>
</radialGradient>
<radialGradient id="paint53_radial_1_303" cx="0" cy="0" r="1" gradientUnits="userSpaceOnUse" gradientTransform="translate(5 48) rotate(90) scale(48 5)">
<stop offset="0.151042" stop-color="#FFF1E4"/>
<stop offset="1" stop-color="#FFC83A" stop-opacity="0"/>
</radialGradient>
<radialGradient id="paint54_radial_1_303" cx="0" cy="0" r="1" gradientUnits="userSpaceOnUse" gradientTransform="translate(5 48) rotate(90) scale(48 5)">
<stop offset="0.151042" stop-color="#F0FFE4"/>
<stop offset="1" stop-color="#3A71FF" stop-opacity="0"/>
</radialGradient>
<radialGradient id="paint55_radial_1_303" cx="0" cy="0" r="1" gradientUnits="userSpaceOnUse" gradientTransform="translate(5 48) rotate(90) scale(48 5)">
<stop offset="0.151042" stop-color="#F0FFE4"/>
<stop offset="1" stop-color="#3A71FF" stop-opacity="0"/>
</radialGradient>
<radialGradient id="paint56_radial_1_303" cx="0" cy="0" r="1" gradientUnits="userSpaceOnUse" gradientTransform="translate(5 48) rotate(90) scale(48 5)">
<stop offset="0.151042" stop-color="white"/>
<stop offset="1" stop-color="white" stop-opacity="0"/>
</radialGradient>
<radialGradient id="paint57_radial_1_303" cx="0" cy="0" r="1" gradientUnits="userSpaceOnUse" gradientTransform="translate(5 48) rotate(90) scale(48 5)">
<stop offset="0.151042" stop-color="white"/>
<stop offset="1" stop-color="white" stop-opacity="0"/>
</radialGradient>
<radialGradient id="paint58_radial_1_303" cx="0" cy="0" r="1" gradientUnits="userSpaceOnUse" gradientTransform="translate(5 48) rotate(90) scale(48 5)">
<stop offset="0.0364583" stop-color="#FFF1E4"/>
<stop offset="1" stop-color="#3A71FF" stop-opacity="0"/>
</radialGradient>
<radialGradient id="paint59_radial_1_303" cx="0" cy="0" r="1" gradientUnits="userSpaceOnUse" gradientTransform="translate(5 48) rotate(90) scale(48 5)">
<stop offset="0.0364583" stop-color="#FFF1E4"/>
<stop offset="1" stop-color="#3A71FF" stop-opacity="0"/>
</radialGradient>
<radialGradient id="paint60_radial_1_303" cx="0" cy="0" r="1" gradientUnits="userSpaceOnUse" gradientTransform="translate(5 48) rotate(90) scale(48 5)">
<stop offset="0.151042" stop-color="#FFF1E4"/>
<stop offset="1" stop-color="#FFC83A" stop-opacity="0"/>
</radialGradient>
<radialGradient id="paint61_radial_1_303" cx="0" cy="0" r="1" gradientUnits="userSpaceOnUse" gradientTransform="translate(5 48) rotate(90) scale(48 5)">
<stop offset="0.151042" stop-color="#FFF1E4"/>
<stop offset="1" stop-color="#FFC83A" stop-opacity="0"/>
</radialGradient>
<radialGradient id="paint62_radial_1_303" cx="0" cy="0" r="1" gradientUnits="userSpaceOnUse" gradientTransform="translate(5 48) rotate(90) scale(48 5)">
<stop offset="0.151042" stop-color="#F0FFE4"/>
<stop offset="1" stop-color="#3A71FF" stop-opacity="0"/>
</radialGradient>
<radialGradient id="paint63_radial_1_303" cx="0" cy="0" r="1" gradientUnits="userSpaceOnUse" gradientTransform="translate(5 48) rotate(90) scale(48 5)">
<stop offset="0.151042" stop-color="#F0FFE4"/>
<stop offset="1" stop-color="#3A71FF" stop-opacity="0"/>
</radialGradient>
<radialGradient id="paint64_radial_1_303" cx="0" cy="0" r="1" gradientUnits="userSpaceOnUse" gradientTransform="translate(5 48) rotate(90) scale(48 5)">
<stop offset="0.151042" stop-color="white"/>
<stop offset="1" stop-color="white" stop-opacity="0"/>
</radialGradient>
<radialGradient id="paint65_radial_1_303" cx="0" cy="0" r="1" gradientUnits="userSpaceOnUse" gradientTransform="translate(5 48) rotate(90) scale(48 5)">
<stop offset="0.151042" stop-color="white"/>
<stop offset="1" stop-color="white" stop-opacity="0"/>
</radialGradient>
<radialGradient id="paint66_radial_1_303" cx="0" cy="0" r="1" gradientUnits="userSpaceOnUse" gradientTransform="translate(5 48) rotate(90) scale(48 5)">
<stop offset="0.0364583" stop-color="#FFF1E4"/>
<stop offset="1" stop-color="#3A71FF" stop-opacity="0"/>
</radialGradient>
<radialGradient id="paint67_radial_1_303" cx="0" cy="0" r="1" gradientUnits="userSpaceOnUse" gradientTransform="translate(5 48) rotate(90) scale(48 5)">
<stop offset="0.0364583" stop-color="#FFF1E4"/>
<stop offset="1" stop-color="#3A71FF" stop-opacity="0"/>
</radialGradient>
<radialGradient id="paint68_radial_1_303" cx="0" cy="0" r="1" gradientUnits="userSpaceOnUse" gradientTransform="translate(5 48) rotate(90) scale(48 5)">
<stop offset="0.151042" stop-color="#FFF1E4"/>
<stop offset="1" stop-color="#FFC83A" stop-opacity="0"/>
</radialGradient>
<radialGradient id="paint69_radial_1_303" cx="0" cy="0" r="1" gradientUnits="userSpaceOnUse" gradientTransform="translate(5 48) rotate(90) scale(48 5)">
<stop offset="0.151042" stop-color="#FFF1E4"/>
<stop offset="1" stop-color="#FFC83A" stop-opacity="0"/>
</radialGradient>
<radialGradient id="paint70_radial_1_303" cx="0" cy="0" r="1" gradientUnits="userSpaceOnUse" gradientTransform="translate(5 48) rotate(90) scale(48 5)">
<stop offset="0.151042" stop-color="#F0FFE4"/>
<stop offset="1" stop-color="#3A71FF" stop-opacity="0"/>
</radialGradient>
<radialGradient id="paint71_radial_1_303" cx="0" cy="0" r="1" gradientUnits="userSpaceOnUse" gradientTransform="translate(5 48) rotate(90) scale(48 5)">
<stop offset="0.151042" stop-color="#F0FFE4"/>
<stop offset="1" stop-color="#3A71FF" stop-opacity="0"/>
</radialGradient>
<radialGradient id="paint72_radial_1_303" cx="0" cy="0" r="1" gradientUnits="userSpaceOnUse" gradientTransform="translate(5 48) rotate(90) scale(48 5)">
<stop offset="0.151042" stop-color="white"/>
<stop offset="1" stop-color="white" stop-opacity="0"/>
</radialGradient>
<radialGradient id="paint73_radial_1_303" cx="0" cy="0" r="1" gradientUnits="userSpaceOnUse" gradientTransform="translate(5 48) rotate(90) scale(48 5)">
<stop offset="0.151042" stop-color="white"/>
<stop offset="1" stop-color="white" stop-opacity="0"/>
</radialGradient>
<radialGradient id="paint74_radial_1_303" cx="0" cy="0" r="1" gradientUnits="userSpaceOnUse" gradientTransform="translate(5 48) rotate(90) scale(48 5)">
<stop offset="0.0364583" stop-color="#FFF1E4"/>
<stop offset="1" stop-color="#3A71FF" stop-opacity="0"/>
</radialGradient>
<radialGradient id="paint75_radial_1_303" cx="0" cy="0" r="1" gradientUnits="userSpaceOnUse" gradientTransform="translate(5 48) rotate(90) scale(48 5)">
<stop offset="0.0364583" stop-color="#FFF1E4"/>
<stop offset="1" stop-color="#3A71FF" stop-opacity="0"/>
</radialGradient>
<radialGradient id="paint76_radial_1_303" cx="0" cy="0" r="1" gradientUnits="userSpaceOnUse" gradientTransform="translate(5 48) rotate(90) scale(48 5)">
<stop offset="0.151042" stop-color="#FFF1E4"/>
<stop offset="1" stop-color="#FFC83A" stop-opacity="0"/>
</radialGradient>
<radialGradient id="paint77_radial_1_303" cx="0" cy="0" r="1" gradientUnits="userSpaceOnUse" gradientTransform="translate(5 48) rotate(90) scale(48 5)">
<stop offset="0.151042" stop-color="#FFF1E4"/>
<stop offset="1" stop-color="#FFC83A" stop-opacity="0"/>
</radialGradient>
<radialGradient id="paint78_radial_1_303" cx="0" cy="0" r="1" gradientUnits="userSpaceOnUse" gradientTransform="translate(5 48) rotate(90) scale(48 5)">
<stop offset="0.151042" stop-color="#F0FFE4"/>
<stop offset="1" stop-color="#3A71FF" stop-opacity="0"/>
</radialGradient>
<radialGradient id="paint79_radial_1_303" cx="0" cy="0" r="1" gradientUnits="userSpaceOnUse" gradientTransform="translate(5 48) rotate(90) scale(48 5)">
<stop offset="0.151042" stop-color="#F0FFE4"/>
<stop offset="1" stop-color="#3A71FF" stop-opacity="0"/>
</radialGradient>
<radialGradient id="paint80_radial_1_303" cx="0" cy="0" r="1" gradientUnits="userSpaceOnUse" gradientTransform="translate(5 48) rotate(90) scale(48 5)">
<stop offset="0.151042" stop-color="white"/>
<stop offset="1" stop-color="white" stop-opacity="0"/>
</radialGradient>
<radialGradient id="paint81_radial_1_303" cx="0" cy="0" r="1" gradientUnits="userSpaceOnUse" gradientTransform="translate(5 48) rotate(90) scale(48 5)">
<stop offset="0.151042" stop-color="white"/>
<stop offset="1" stop-color="white" stop-opacity="0"/>
</radialGradient>
<radialGradient id="paint82_radial_1_303" cx="0" cy="0" r="1" gradientUnits="userSpaceOnUse" gradientTransform="translate(48 5) rotate(90) scale(5 48)">
<stop offset="0.109375" stop-color="white"/>
<stop offset="1" stop-color="white" stop-opacity="0"/>
</radialGradient>
<radialGradient id="paint83_radial_1_303" cx="0" cy="0" r="1" gradientUnits="userSpaceOnUse" gradientTransform="translate(48 4.99999) rotate(90) scale(4.99999 48)">
<stop offset="0.109375" stop-color="white"/>
<stop offset="1" stop-color="white" stop-opacity="0"/>
</radialGradient>
</defs>
</svg>
