<svg width="822" height="703" viewBox="0 0 822 703" fill="none" xmlns="http://www.w3.org/2000/svg">
<path d="M368.72 69.368V72.392H349.568V69.368H368.72ZM361.772 111.12L350.504 71.088H353.744L365.012 111.12H361.772ZM383.884 81.348V83.796L376.216 79.692V76.848L383.884 81.348ZM404.902 80.88L406.198 83.22L401.194 85.308L406.234 87.36L404.866 89.772L400.51 86.604L401.086 92.04H398.386L398.926 86.604L394.57 89.808L393.166 87.36L398.17 85.272L393.166 83.256L394.498 80.844L398.962 84.048L398.386 78.576H401.122L400.51 84.048L404.902 80.88ZM431.05 90.42V93.192H416.686V90.42H431.05ZM444.362 105.216C443.738 105.216 443.21 105 442.778 104.568C442.346 104.136 442.13 103.608 442.13 102.984C442.13 102.36 442.346 101.832 442.778 101.4C443.21 100.968 443.738 100.752 444.362 100.752C444.962 100.752 445.466 100.968 445.874 101.4C446.306 101.832 446.522 102.36 446.522 102.984C446.522 103.608 446.306 104.136 445.874 104.568C445.466 105 444.962 105.216 444.362 105.216ZM363.234 148.696V148.372C365.706 145.828 367.578 142.864 368.85 139.48C370.146 136.096 370.794 132.544 370.794 128.824C370.794 125.008 370.11 121.336 368.742 117.808C367.398 114.256 365.382 111.22 362.694 108.7V108.376H366.114C368.634 110.704 370.566 113.668 371.91 117.268C373.278 120.844 373.962 124.696 373.962 128.824C373.962 132.856 373.314 136.612 372.018 140.092C370.746 143.572 368.958 146.44 366.654 148.696H363.234ZM438.341 143.368V146.392H419.189V143.368H438.341ZM456.211 118.348V120.796L448.543 116.692V113.848L456.211 118.348ZM479.749 127.42V130.192H465.385V127.42H479.749ZM493.062 142.216C492.438 142.216 491.91 142 491.478 141.568C491.046 141.136 490.83 140.608 490.83 139.984C490.83 139.36 491.046 138.832 491.478 138.4C491.91 137.968 492.438 137.752 493.062 137.752C493.662 137.752 494.166 137.968 494.574 138.4C495.006 138.832 495.222 139.36 495.222 139.984C495.222 140.608 495.006 141.136 494.574 141.568C494.166 142 493.662 142.216 493.062 142.216ZM349.604 179.216C348.98 179.216 348.452 179 348.02 178.568C347.588 178.136 347.372 177.608 347.372 176.984C347.372 176.36 347.588 175.832 348.02 175.4C348.452 174.968 348.98 174.752 349.604 174.752C350.204 174.752 350.708 174.968 351.116 175.4C351.548 175.832 351.764 176.36 351.764 176.984C351.764 177.608 351.548 178.136 351.116 178.568C350.708 179 350.204 179.216 349.604 179.216ZM394.718 179.216C394.094 179.216 393.566 179 393.134 178.568C392.702 178.136 392.486 177.608 392.486 176.984C392.486 176.36 392.702 175.832 393.134 175.4C393.566 174.968 394.094 174.752 394.718 174.752C395.318 174.752 395.822 174.968 396.23 175.4C396.662 175.832 396.878 176.36 396.878 176.984C396.878 177.608 396.662 178.136 396.23 178.568C395.822 179 395.318 179.216 394.718 179.216ZM394.718 163.808C394.094 163.808 393.566 163.592 393.134 163.16C392.702 162.728 392.486 162.2 392.486 161.576C392.486 160.952 392.702 160.424 393.134 159.992C393.566 159.56 394.094 159.344 394.718 159.344C395.318 159.344 395.822 159.56 396.23 159.992C396.662 160.424 396.878 160.952 396.878 161.576C396.878 162.2 396.662 162.728 396.23 163.16C395.822 163.592 395.318 163.808 394.718 163.808ZM428.684 155.348V157.796L421.016 153.692V150.848L428.684 155.348ZM439.586 179.216C438.962 179.216 438.434 179 438.002 178.568C437.57 178.136 437.354 177.608 437.354 176.984C437.354 176.36 437.57 175.832 438.002 175.4C438.434 174.968 438.962 174.752 439.586 174.752C440.186 174.752 440.69 174.968 441.098 175.4C441.53 175.832 441.746 176.36 441.746 176.984C441.746 177.608 441.53 178.136 441.098 178.568C440.69 179 440.186 179.216 439.586 179.216ZM468.982 179.216C468.358 179.216 467.83 179 467.398 178.568C466.966 178.136 466.75 177.608 466.75 176.984C466.75 176.36 466.966 175.832 467.398 175.4C467.83 174.968 468.358 174.752 468.982 174.752C469.582 174.752 470.086 174.968 470.494 175.4C470.926 175.832 471.142 176.36 471.142 176.984C471.142 177.608 470.926 178.136 470.494 178.568C470.086 179 469.582 179.216 468.982 179.216ZM349.604 216.216C348.98 216.216 348.452 216 348.02 215.568C347.588 215.136 347.372 214.608 347.372 213.984C347.372 213.36 347.588 212.832 348.02 212.4C348.452 211.968 348.98 211.752 349.604 211.752C350.204 211.752 350.708 211.968 351.116 212.4C351.548 212.832 351.764 213.36 351.764 213.984C351.764 214.608 351.548 215.136 351.116 215.568C350.708 216 350.204 216.216 349.604 216.216ZM349.604 200.808C348.98 200.808 348.452 200.592 348.02 200.16C347.588 199.728 347.372 199.2 347.372 198.576C347.372 197.952 347.588 197.424 348.02 196.992C348.452 196.56 348.98 196.344 349.604 196.344C350.204 196.344 350.708 196.56 351.116 196.992C351.548 197.424 351.764 197.952 351.764 198.576C351.764 199.2 351.548 199.728 351.116 200.16C350.708 200.592 350.204 200.808 349.604 200.808ZM398.222 217.368V220.392H379.07V217.368H398.222ZM459.393 187.344L458.961 194.508H456.693L456.225 187.344H459.393ZM514.235 222.12L502.967 182.088H506.207L517.475 222.12H514.235ZM350.468 237.772C349.844 237.772 349.316 237.556 348.884 237.124C348.452 236.692 348.236 236.164 348.236 235.54C348.236 234.916 348.452 234.388 348.884 233.956C349.316 233.524 349.844 233.308 350.468 233.308C351.068 233.308 351.572 233.524 351.98 233.956C352.412 234.388 352.628 234.916 352.628 235.54C352.628 236.164 352.412 236.692 351.98 237.124C351.572 237.556 351.068 237.772 350.468 237.772ZM352.844 248.464L348.812 258.148H346.616L349.244 248.464H352.844ZM391.05 228.88L392.346 231.22L387.342 233.308L392.382 235.36L391.014 237.772L386.658 234.604L387.234 240.04H384.534L385.074 234.604L380.718 237.808L379.314 235.36L384.318 233.272L379.314 231.256L380.646 228.844L385.11 232.048L384.534 226.576H387.27L386.658 232.048L391.05 228.88ZM409.026 229.348V231.796L401.358 227.692V224.848L409.026 229.348ZM454.762 254.368V257.392H435.61V254.368H454.762ZM468.168 253.216C467.544 253.216 467.016 253 466.584 252.568C466.152 252.136 465.936 251.608 465.936 250.984C465.936 250.36 466.152 249.832 466.584 249.4C467.016 248.968 467.544 248.752 468.168 248.752C468.768 248.752 469.272 248.968 469.68 249.4C470.112 249.832 470.328 250.36 470.328 250.984C470.328 251.608 470.112 252.136 469.68 252.568C469.272 253 468.768 253.216 468.168 253.216ZM533.464 229.348V231.796L525.796 227.692V224.848L533.464 229.348ZM554.482 228.88L555.778 231.22L550.774 233.308L555.814 235.36L554.446 237.772L550.09 234.604L550.666 240.04H547.966L548.506 234.604L544.15 237.808L542.746 235.36L547.75 233.272L542.746 231.256L544.078 228.844L548.542 232.048L547.966 226.576H550.702L550.09 232.048L554.482 228.88ZM580.63 238.42V241.192H566.266V238.42H580.63ZM593.942 253.216C593.318 253.216 592.79 253 592.358 252.568C591.926 252.136 591.71 251.608 591.71 250.984C591.71 250.36 591.926 249.832 592.358 249.4C592.79 248.968 593.318 248.752 593.942 248.752C594.542 248.752 595.046 248.968 595.454 249.4C595.886 249.832 596.102 250.36 596.102 250.984C596.102 251.608 595.886 252.136 595.454 252.568C595.046 253 594.542 253.216 593.942 253.216ZM626.736 254.368V257.392H607.584V254.368H626.736ZM354.068 266.348V268.796L346.4 264.692V261.848L354.068 266.348ZM377.607 275.42V278.192H363.243V275.42H377.607ZM390.919 290.216C390.295 290.216 389.767 290 389.335 289.568C388.903 289.136 388.687 288.608 388.687 287.984C388.687 287.36 388.903 286.832 389.335 286.4C389.767 285.968 390.295 285.752 390.919 285.752C391.519 285.752 392.023 285.968 392.431 286.4C392.863 286.832 393.079 287.36 393.079 287.984C393.079 288.608 392.863 289.136 392.431 289.568C392.023 290 391.519 290.216 390.919 290.216ZM417.233 275.42V278.192H402.869V275.42H417.233ZM431.157 261.344L430.725 268.508H428.457L427.989 261.344H431.157ZM604.036 266.348V268.796L596.368 264.692V261.848L604.036 266.348ZM627.574 275.42V278.192H613.21V275.42H627.574ZM640.887 290.216C640.263 290.216 639.735 290 639.303 289.568C638.871 289.136 638.655 288.608 638.655 287.984C638.655 287.36 638.871 286.832 639.303 286.4C639.735 285.968 640.263 285.752 640.887 285.752C641.487 285.752 641.991 285.968 642.399 286.4C642.831 286.832 643.047 287.36 643.047 287.984C643.047 288.608 642.831 289.136 642.399 289.568C641.991 290 641.487 290.216 640.887 290.216ZM381.904 311.772C381.28 311.772 380.752 311.556 380.32 311.124C379.888 310.692 379.672 310.164 379.672 309.54C379.672 308.916 379.888 308.388 380.32 307.956C380.752 307.524 381.28 307.308 381.904 307.308C382.504 307.308 383.008 307.524 383.416 307.956C383.848 308.388 384.064 308.916 384.064 309.54C384.064 310.164 383.848 310.692 383.416 311.124C383.008 311.556 382.504 311.772 381.904 311.772ZM384.28 322.464L380.248 332.148H378.052L380.68 322.464H384.28ZM511.14 303.348V305.796L503.472 301.692V298.848L511.14 303.348ZM636.529 303.348V305.796L628.861 301.692V298.848L636.529 303.348ZM647.431 327.216C646.807 327.216 646.279 327 645.847 326.568C645.415 326.136 645.199 325.608 645.199 324.984C645.199 324.36 645.415 323.832 645.847 323.4C646.279 322.968 646.807 322.752 647.431 322.752C648.031 322.752 648.535 322.968 648.943 323.4C649.375 323.832 649.591 324.36 649.591 324.984C649.591 325.608 649.375 326.136 648.943 326.568C648.535 327 648.031 327.216 647.431 327.216ZM381.04 364.216C380.416 364.216 379.888 364 379.456 363.568C379.024 363.136 378.808 362.608 378.808 361.984C378.808 361.36 379.024 360.832 379.456 360.4C379.888 359.968 380.416 359.752 381.04 359.752C381.64 359.752 382.144 359.968 382.552 360.4C382.984 360.832 383.2 361.36 383.2 361.984C383.2 362.608 382.984 363.136 382.552 363.568C382.144 364 381.64 364.216 381.04 364.216ZM381.04 348.808C380.416 348.808 379.888 348.592 379.456 348.16C379.024 347.728 378.808 347.2 378.808 346.576C378.808 345.952 379.024 345.424 379.456 344.992C379.888 344.56 380.416 344.344 381.04 344.344C381.64 344.344 382.144 344.56 382.552 344.992C382.984 345.424 383.2 345.952 383.2 346.576C383.2 347.2 382.984 347.728 382.552 348.16C382.144 348.592 381.64 348.808 381.04 348.808ZM394.824 364.216C394.2 364.216 393.672 364 393.24 363.568C392.808 363.136 392.592 362.608 392.592 361.984C392.592 361.36 392.808 360.832 393.24 360.4C393.672 359.968 394.2 359.752 394.824 359.752C395.424 359.752 395.928 359.968 396.336 360.4C396.768 360.832 396.984 361.36 396.984 361.984C396.984 362.608 396.768 363.136 396.336 363.568C395.928 364 395.424 364.216 394.824 364.216ZM518.526 364.216C517.902 364.216 517.374 364 516.942 363.568C516.51 363.136 516.294 362.608 516.294 361.984C516.294 361.36 516.51 360.832 516.942 360.4C517.374 359.968 517.902 359.752 518.526 359.752C519.126 359.752 519.63 359.968 520.038 360.4C520.47 360.832 520.686 361.36 520.686 361.984C520.686 362.608 520.47 363.136 520.038 363.568C519.63 364 519.126 364.216 518.526 364.216ZM670.114 370.12L658.846 330.088H662.086L673.354 370.12H670.114ZM381.04 401.216C380.416 401.216 379.888 401 379.456 400.568C379.024 400.136 378.808 399.608 378.808 398.984C378.808 398.36 379.024 397.832 379.456 397.4C379.888 396.968 380.416 396.752 381.04 396.752C381.64 396.752 382.144 396.968 382.552 397.4C382.984 397.832 383.2 398.36 383.2 398.984C383.2 399.608 382.984 400.136 382.552 400.568C382.144 401 381.64 401.216 381.04 401.216ZM422.604 407.12L411.336 367.088H414.576L425.844 407.12H422.604ZM471.687 401.216C471.063 401.216 470.535 401 470.103 400.568C469.671 400.136 469.455 399.608 469.455 398.984C469.455 398.36 469.671 397.832 470.103 397.4C470.535 396.968 471.063 396.752 471.687 396.752C472.287 396.752 472.791 396.968 473.199 397.4C473.631 397.832 473.847 398.36 473.847 398.984C473.847 399.608 473.631 400.136 473.199 400.568C472.791 401 472.287 401.216 471.687 401.216ZM532.518 401.216C531.894 401.216 531.366 401 530.934 400.568C530.502 400.136 530.286 399.608 530.286 398.984C530.286 398.36 530.502 397.832 530.934 397.4C531.366 396.968 531.894 396.752 532.518 396.752C533.118 396.752 533.622 396.968 534.03 397.4C534.462 397.832 534.678 398.36 534.678 398.984C534.678 399.608 534.462 400.136 534.03 400.568C533.622 401 533.118 401.216 532.518 401.216ZM532.518 385.808C531.894 385.808 531.366 385.592 530.934 385.16C530.502 384.728 530.286 384.2 530.286 383.576C530.286 382.952 530.502 382.424 530.934 381.992C531.366 381.56 531.894 381.344 532.518 381.344C533.118 381.344 533.622 381.56 534.03 381.992C534.462 382.424 534.678 382.952 534.678 383.576C534.678 384.2 534.462 384.728 534.03 385.16C533.622 385.592 533.118 385.808 532.518 385.808ZM593.455 401.216C592.831 401.216 592.303 401 591.871 400.568C591.439 400.136 591.223 399.608 591.223 398.984C591.223 398.36 591.439 397.832 591.871 397.4C592.303 396.968 592.831 396.752 593.455 396.752C594.055 396.752 594.559 396.968 594.967 397.4C595.399 397.832 595.615 398.36 595.615 398.984C595.615 399.608 595.399 400.136 594.967 400.568C594.559 401 594.055 401.216 593.455 401.216ZM619.77 386.42V389.192H605.406V386.42H619.77ZM633.694 372.344L633.262 379.508H630.994L630.526 372.344H633.694ZM676.368 401.216C675.744 401.216 675.216 401 674.784 400.568C674.352 400.136 674.136 399.608 674.136 398.984C674.136 398.36 674.352 397.832 674.784 397.4C675.216 396.968 675.744 396.752 676.368 396.752C676.968 396.752 677.472 396.968 677.88 397.4C678.312 397.832 678.528 398.36 678.528 398.984C678.528 399.608 678.312 400.136 677.88 400.568C677.472 401 676.968 401.216 676.368 401.216ZM381.652 409.344L381.22 416.508H378.952L378.484 409.344H381.652ZM459.159 439.368V442.392H440.007V439.368H459.159ZM472.566 438.216C471.942 438.216 471.414 438 470.982 437.568C470.55 437.136 470.334 436.608 470.334 435.984C470.334 435.36 470.55 434.832 470.982 434.4C471.414 433.968 471.942 433.752 472.566 433.752C473.166 433.752 473.67 433.968 474.078 434.4C474.51 434.832 474.726 435.36 474.726 435.984C474.726 436.608 474.51 437.136 474.078 437.568C473.67 438 473.166 438.216 472.566 438.216ZM487.108 422.772C486.484 422.772 485.956 422.556 485.524 422.124C485.092 421.692 484.876 421.164 484.876 420.54C484.876 419.916 485.092 419.388 485.524 418.956C485.956 418.524 486.484 418.308 487.108 418.308C487.708 418.308 488.212 418.524 488.62 418.956C489.052 419.388 489.268 419.916 489.268 420.54C489.268 421.164 489.052 421.692 488.62 422.124C488.212 422.556 487.708 422.772 487.108 422.772ZM489.484 433.464L485.452 443.148H483.256L485.884 433.464H489.484ZM534.156 422.772C533.532 422.772 533.004 422.556 532.572 422.124C532.14 421.692 531.924 421.164 531.924 420.54C531.924 419.916 532.14 419.388 532.572 418.956C533.004 418.524 533.532 418.308 534.156 418.308C534.756 418.308 535.26 418.524 535.668 418.956C536.1 419.388 536.316 419.916 536.316 420.54C536.316 421.164 536.1 421.692 535.668 422.124C535.26 422.556 534.756 422.772 534.156 422.772ZM536.532 433.464L532.5 443.148H530.304L532.932 433.464H536.532ZM580.951 409.344L580.519 416.508H578.251L577.783 409.344H580.951ZM686.496 438.216C685.872 438.216 685.344 438 684.912 437.568C684.48 437.136 684.264 436.608 684.264 435.984C684.264 435.36 684.48 434.832 684.912 434.4C685.344 433.968 685.872 433.752 686.496 433.752C687.096 433.752 687.6 433.968 688.008 434.4C688.44 434.832 688.656 435.36 688.656 435.984C688.656 436.608 688.44 437.136 688.008 437.568C687.6 438 687.096 438.216 686.496 438.216ZM686.496 422.808C685.872 422.808 685.344 422.592 684.912 422.16C684.48 421.728 684.264 421.2 684.264 420.576C684.264 419.952 684.48 419.424 684.912 418.992C685.344 418.56 685.872 418.344 686.496 418.344C687.096 418.344 687.6 418.56 688.008 418.992C688.44 419.424 688.656 419.952 688.656 420.576C688.656 421.2 688.44 421.728 688.008 422.16C687.6 422.592 687.096 422.808 686.496 422.808ZM381.04 475.216C380.416 475.216 379.888 475 379.456 474.568C379.024 474.136 378.808 473.608 378.808 472.984C378.808 472.36 379.024 471.832 379.456 471.4C379.888 470.968 380.416 470.752 381.04 470.752C381.64 470.752 382.144 470.968 382.552 471.4C382.984 471.832 383.2 472.36 383.2 472.984C383.2 473.608 382.984 474.136 382.552 474.568C382.144 475 381.64 475.216 381.04 475.216ZM381.04 459.808C380.416 459.808 379.888 459.592 379.456 459.16C379.024 458.728 378.808 458.2 378.808 457.576C378.808 456.952 379.024 456.424 379.456 455.992C379.888 455.56 380.416 455.344 381.04 455.344C381.64 455.344 382.144 455.56 382.552 455.992C382.984 456.424 383.2 456.952 383.2 457.576C383.2 458.2 382.984 458.728 382.552 459.16C382.144 459.592 381.64 459.808 381.04 459.808ZM426.871 446.344L426.439 453.508H424.171L423.703 446.344H426.871ZM472.605 478.816H469.329V446.38H472.605V478.816ZM549.876 459.772C549.252 459.772 548.724 459.556 548.292 459.124C547.86 458.692 547.644 458.164 547.644 457.54C547.644 456.916 547.86 456.388 548.292 455.956C548.724 455.524 549.252 455.308 549.876 455.308C550.476 455.308 550.98 455.524 551.388 455.956C551.82 456.388 552.036 456.916 552.036 457.54C552.036 458.164 551.82 458.692 551.388 459.124C550.98 459.556 550.476 459.772 549.876 459.772ZM552.252 470.464L548.22 480.148H546.024L548.652 470.464H552.252ZM675.512 459.772C674.888 459.772 674.36 459.556 673.928 459.124C673.496 458.692 673.28 458.164 673.28 457.54C673.28 456.916 673.496 456.388 673.928 455.956C674.36 455.524 674.888 455.308 675.512 455.308C676.112 455.308 676.616 455.524 677.024 455.956C677.456 456.388 677.672 456.916 677.672 457.54C677.672 458.164 677.456 458.692 677.024 459.124C676.616 459.556 676.112 459.772 675.512 459.772ZM677.888 470.464L673.856 480.148H671.66L674.288 470.464H677.888ZM702.896 460.42V463.192H688.532V460.42H702.896ZM716.208 475.216C715.584 475.216 715.056 475 714.624 474.568C714.192 474.136 713.976 473.608 713.976 472.984C713.976 472.36 714.192 471.832 714.624 471.4C715.056 470.968 715.584 470.752 716.208 470.752C716.808 470.752 717.312 470.968 717.72 471.4C718.152 471.832 718.368 472.36 718.368 472.984C718.368 473.608 718.152 474.136 717.72 474.568C717.312 475 716.808 475.216 716.208 475.216ZM381.904 496.772C381.28 496.772 380.752 496.556 380.32 496.124C379.888 495.692 379.672 495.164 379.672 494.54C379.672 493.916 379.888 493.388 380.32 492.956C380.752 492.524 381.28 492.308 381.904 492.308C382.504 492.308 383.008 492.524 383.416 492.956C383.848 493.388 384.064 493.916 384.064 494.54C384.064 495.164 383.848 495.692 383.416 496.124C383.008 496.556 382.504 496.772 381.904 496.772ZM384.28 507.464L380.248 517.148H378.052L380.68 507.464H384.28ZM412.982 483.344L412.55 490.508H410.282L409.814 483.344H412.982ZM471.373 512.216C470.749 512.216 470.221 512 469.789 511.568C469.357 511.136 469.141 510.608 469.141 509.984C469.141 509.36 469.357 508.832 469.789 508.4C470.221 507.968 470.749 507.752 471.373 507.752C471.973 507.752 472.477 507.968 472.885 508.4C473.317 508.832 473.533 509.36 473.533 509.984C473.533 510.608 473.317 511.136 472.885 511.568C472.477 512 471.973 512.216 471.373 512.216ZM471.373 496.808C470.749 496.808 470.221 496.592 469.789 496.16C469.357 495.728 469.141 495.2 469.141 494.576C469.141 493.952 469.357 493.424 469.789 492.992C470.221 492.56 470.749 492.344 471.373 492.344C471.973 492.344 472.477 492.56 472.885 492.992C473.317 493.424 473.533 493.952 473.533 494.576C473.533 495.2 473.317 495.728 472.885 496.16C472.477 496.592 471.973 496.808 471.373 496.808ZM500.875 512.216C500.251 512.216 499.723 512 499.291 511.568C498.859 511.136 498.643 510.608 498.643 509.984C498.643 509.36 498.859 508.832 499.291 508.4C499.723 507.968 500.251 507.752 500.875 507.752C501.475 507.752 501.979 507.968 502.387 508.4C502.819 508.832 503.035 509.36 503.035 509.984C503.035 510.608 502.819 511.136 502.387 511.568C501.979 512 501.475 512.216 500.875 512.216ZM500.875 496.808C500.251 496.808 499.723 496.592 499.291 496.16C498.859 495.728 498.643 495.2 498.643 494.576C498.643 493.952 498.859 493.424 499.291 492.992C499.723 492.56 500.251 492.344 500.875 492.344C501.475 492.344 501.979 492.56 502.387 492.992C502.819 493.424 503.035 493.952 503.035 494.576C503.035 495.2 502.819 495.728 502.387 496.16C501.979 496.592 501.475 496.808 500.875 496.808ZM519.123 488.348V490.796L511.455 486.692V483.848L519.123 488.348ZM542.661 497.42V500.192H528.297V497.42H542.661ZM555.973 512.216C555.349 512.216 554.821 512 554.389 511.568C553.957 511.136 553.741 510.608 553.741 509.984C553.741 509.36 553.957 508.832 554.389 508.4C554.821 507.968 555.349 507.752 555.973 507.752C556.573 507.752 557.077 507.968 557.485 508.4C557.917 508.832 558.133 509.36 558.133 509.984C558.133 510.608 557.917 511.136 557.485 511.568C557.077 512 556.573 512.216 555.973 512.216ZM555.973 496.808C555.349 496.808 554.821 496.592 554.389 496.16C553.957 495.728 553.741 495.2 553.741 494.576C553.741 493.952 553.957 493.424 554.389 492.992C554.821 492.56 555.349 492.344 555.973 492.344C556.573 492.344 557.077 492.56 557.485 492.992C557.917 493.424 558.133 493.952 558.133 494.576C558.133 495.2 557.917 495.728 557.485 496.16C557.077 496.592 556.573 496.808 555.973 496.808ZM667.461 513.368V516.392H648.309V513.368H667.461ZM680.868 512.216C680.244 512.216 679.716 512 679.284 511.568C678.852 511.136 678.636 510.608 678.636 509.984C678.636 509.36 678.852 508.832 679.284 508.4C679.716 507.968 680.244 507.752 680.868 507.752C681.468 507.752 681.972 507.968 682.38 508.4C682.812 508.832 683.028 509.36 683.028 509.984C683.028 510.608 682.812 511.136 682.38 511.568C681.972 512 681.468 512.216 680.868 512.216ZM699.01 488.348V490.796L691.342 486.692V483.848L699.01 488.348ZM720.028 487.88L721.324 490.22L716.32 492.308L721.36 494.36L719.992 496.772L715.636 493.604L716.212 499.04H713.512L714.052 493.604L709.696 496.808L708.292 494.36L713.296 492.272L708.292 490.256L709.624 487.844L714.088 491.048L713.512 485.576H716.248L715.636 491.048L720.028 487.88ZM750.122 496.772C749.498 496.772 748.97 496.556 748.538 496.124C748.106 495.692 747.89 495.164 747.89 494.54C747.89 493.916 748.106 493.388 748.538 492.956C748.97 492.524 749.498 492.308 750.122 492.308C750.722 492.308 751.226 492.524 751.634 492.956C752.066 493.388 752.282 493.916 752.282 494.54C752.282 495.164 752.066 495.692 751.634 496.124C751.226 496.556 750.722 496.772 750.122 496.772ZM752.498 507.464L748.466 517.148H746.27L748.898 507.464H752.498ZM349.604 549.216C348.98 549.216 348.452 549 348.02 548.568C347.588 548.136 347.372 547.608 347.372 546.984C347.372 546.36 347.588 545.832 348.02 545.4C348.452 544.968 348.98 544.752 349.604 544.752C350.204 544.752 350.708 544.968 351.116 545.4C351.548 545.832 351.764 546.36 351.764 546.984C351.764 547.608 351.548 548.136 351.116 548.568C350.708 549 350.204 549.216 349.604 549.216ZM373.399 524.88L374.695 527.22L369.691 529.308L374.731 531.36L373.363 533.772L369.007 530.604L369.583 536.04H366.883L367.423 530.604L363.067 533.808L361.663 531.36L366.667 529.272L361.663 527.256L362.995 524.844L367.459 528.048L366.883 522.576H369.619L369.007 528.048L373.399 524.88ZM387.523 520.344L387.091 527.508H384.823L384.355 520.344H387.523ZM425.675 515.088L415.811 555.12H412.571L422.399 515.088H425.675ZM469.155 549.216C468.531 549.216 468.003 549 467.571 548.568C467.139 548.136 466.923 547.608 466.923 546.984C466.923 546.36 467.139 545.832 467.571 545.4C468.003 544.968 468.531 544.752 469.155 544.752C469.755 544.752 470.259 544.968 470.667 545.4C471.099 545.832 471.315 546.36 471.315 546.984C471.315 547.608 471.099 548.136 470.667 548.568C470.259 549 469.755 549.216 469.155 549.216ZM492.95 524.88L494.246 527.22L489.242 529.308L494.282 531.36L492.914 533.772L488.558 530.604L489.134 536.04H486.434L486.974 530.604L482.618 533.808L481.214 531.36L486.218 529.272L481.214 527.256L482.546 524.844L487.01 528.048L486.434 522.576H489.17L488.558 528.048L492.95 524.88ZM507.074 520.344L506.642 527.508H504.374L503.906 520.344H507.074ZM534.894 533.772C534.27 533.772 533.742 533.556 533.31 533.124C532.878 532.692 532.662 532.164 532.662 531.54C532.662 530.916 532.878 530.388 533.31 529.956C533.742 529.524 534.27 529.308 534.894 529.308C535.494 529.308 535.998 529.524 536.406 529.956C536.838 530.388 537.054 530.916 537.054 531.54C537.054 532.164 536.838 532.692 536.406 533.124C535.998 533.556 535.494 533.772 534.894 533.772ZM537.27 544.464L533.238 554.148H531.042L533.67 544.464H537.27ZM565.36 549.216C564.736 549.216 564.208 549 563.776 548.568C563.344 548.136 563.128 547.608 563.128 546.984C563.128 546.36 563.344 545.832 563.776 545.4C564.208 544.968 564.736 544.752 565.36 544.752C565.96 544.752 566.464 544.968 566.872 545.4C567.304 545.832 567.52 546.36 567.52 546.984C567.52 547.608 567.304 548.136 566.872 548.568C566.464 549 565.96 549.216 565.36 549.216ZM589.154 524.88L590.45 527.22L585.446 529.308L590.486 531.36L589.118 533.772L584.762 530.604L585.338 536.04H582.638L583.178 530.604L578.822 533.808L577.418 531.36L582.422 529.272L577.418 527.256L578.75 524.844L583.214 528.048L582.638 522.576H585.374L584.762 528.048L589.154 524.88ZM607.13 525.348V527.796L599.462 523.692V520.848L607.13 525.348ZM630.668 534.42V537.192H616.304V534.42H630.668ZM677.374 537.228H669.706V545.004H666.646V537.228H659.014V534.456H666.646V526.644H669.706V534.456H677.374V537.228ZM691.004 520.344L690.572 527.508H688.304L687.836 520.344H691.004ZM738.142 525.348V527.796L730.474 523.692V520.848L738.142 525.348ZM759.16 524.88L760.456 527.22L755.452 529.308L760.492 531.36L759.124 533.772L754.768 530.604L755.344 536.04H752.644L753.184 530.604L748.828 533.808L747.424 531.36L752.428 529.272L747.424 527.256L748.756 524.844L753.22 528.048L752.644 522.576H755.38L754.768 528.048L759.16 524.88ZM773.284 520.344L772.852 527.508H770.584L770.116 520.344H773.284ZM338.351 562.348V564.796L330.683 560.692V557.848L338.351 562.348ZM359.369 561.88L360.665 564.22L355.661 566.308L360.701 568.36L359.333 570.772L354.977 567.604L355.553 573.04H352.853L353.393 567.604L349.037 570.808L347.633 568.36L352.637 566.272L347.633 564.256L348.965 561.844L353.429 565.048L352.853 559.576H355.589L354.977 565.048L359.369 561.88ZM385.517 571.42V574.192H371.153V571.42H385.517ZM408.945 561.88L410.241 564.22L405.237 566.308L410.277 568.36L408.909 570.772L404.553 567.604L405.129 573.04H402.429L402.969 567.604L398.613 570.808L397.209 568.36L402.213 566.272L397.209 564.256L398.541 561.844L403.005 565.048L402.429 559.576H405.165L404.553 565.048L408.945 561.88ZM474.074 562.348V564.796L466.406 560.692V557.848L474.074 562.348ZM495.092 561.88L496.388 564.22L491.384 566.308L496.424 568.36L495.056 570.772L490.7 567.604L491.276 573.04H488.576L489.116 567.604L484.76 570.808L483.356 568.36L488.36 566.272L483.356 564.256L484.688 561.844L489.152 565.048L488.576 559.576H491.312L490.7 565.048L495.092 561.88ZM521.24 571.42V574.192H506.876V571.42H521.24ZM544.668 561.88L545.964 564.22L540.96 566.308L546 568.36L544.632 570.772L540.276 567.604L540.852 573.04H538.152L538.692 567.604L534.336 570.808L532.932 568.36L537.936 566.272L532.932 564.256L534.264 561.844L538.728 565.048L538.152 559.576H540.888L540.276 565.048L544.668 561.88ZM594.079 562.348V564.796L586.411 560.692V557.848L594.079 562.348ZM615.097 561.88L616.393 564.22L611.389 566.308L616.429 568.36L615.061 570.772L610.705 567.604L611.281 573.04H608.581L609.121 567.604L604.765 570.808L603.361 568.36L608.365 566.272L603.361 564.256L604.693 561.844L609.157 565.048L608.581 559.576H611.317L610.705 565.048L615.097 561.88ZM641.245 571.42V574.192H626.881V571.42H641.245ZM664.673 561.88L665.969 564.22L660.965 566.308L666.005 568.36L664.637 570.772L660.281 567.604L660.857 573.04H658.157L658.697 567.604L654.341 570.808L652.937 568.36L657.941 566.272L652.937 564.256L654.269 561.844L658.733 565.048L658.157 559.576H660.893L660.281 565.048L664.673 561.88ZM678.797 557.344L678.365 564.508H676.097L675.629 557.344H678.797Z" fill="#8D8D8D"/>
</svg>
