<svg width="1920" height="1080" viewBox="0 0 1920 1080" fill="none" xmlns="http://www.w3.org/2000/svg">
<g clip-path="url(#clip0_20_4)">
<rect width="1920" height="1080" fill="#1F1F1F"/>
<rect x="0.5" y="0.5" width="63" height="1079" stroke="#2F2F2F"/>
<rect x="448.5" y="0.5" width="63" height="1079" stroke="#2F2F2F"/>
<rect x="896.5" y="0.5" width="63" height="1079" stroke="#2F2F2F"/>
<rect x="1344.5" y="0.5" width="63" height="1079" stroke="#2F2F2F"/>
<rect x="1472.5" y="0.5" width="63" height="1079" stroke="#2F2F2F"/>
<rect x="64.5" y="0.5" width="63" height="1079" stroke="#2F2F2F"/>
<rect x="512.5" y="0.5" width="63" height="1079" stroke="#2F2F2F"/>
<rect x="960.5" y="0.5" width="63" height="1079" stroke="#2F2F2F"/>
<rect x="1408.5" y="0.5" width="63" height="1079" stroke="#2F2F2F"/>
<rect x="1536.5" y="0.5" width="63" height="1079" stroke="#2F2F2F"/>
<rect x="128.5" y="0.5" width="63" height="1079" stroke="#2F2F2F"/>
<rect x="576.5" y="0.5" width="63" height="1079" stroke="#2F2F2F"/>
<rect x="1024.5" y="0.5" width="63" height="1079" stroke="#2F2F2F"/>
<rect x="1472.5" y="0.5" width="63" height="1079" stroke="#2F2F2F"/>
<rect x="1600.5" y="0.5" width="63" height="1079" stroke="#2F2F2F"/>
<rect x="192.5" y="0.5" width="63" height="1079" stroke="#2F2F2F"/>
<rect x="640.5" y="0.5" width="63" height="1079" stroke="#2F2F2F"/>
<rect x="1088.5" y="0.5" width="63" height="1079" stroke="#2F2F2F"/>
<rect x="1536.5" y="0.5" width="63" height="1079" stroke="#2F2F2F"/>
<rect x="1664.5" y="0.5" width="63" height="1079" stroke="#2F2F2F"/>
<rect x="256.5" y="0.5" width="63" height="1079" stroke="#2F2F2F"/>
<rect x="704.5" y="0.5" width="63" height="1079" stroke="#2F2F2F"/>
<rect x="1152.5" y="0.5" width="63" height="1079" stroke="#2F2F2F"/>
<rect x="1600.5" y="0.5" width="63" height="1079" stroke="#2F2F2F"/>
<rect x="1728.5" y="0.5" width="63" height="1079" stroke="#2F2F2F"/>
<rect x="320.5" y="0.5" width="63" height="1079" stroke="#2F2F2F"/>
<rect x="768.5" y="0.5" width="63" height="1079" stroke="#2F2F2F"/>
<rect x="1216.5" y="0.5" width="63" height="1079" stroke="#2F2F2F"/>
<rect x="1664.5" y="0.5" width="63" height="1079" stroke="#2F2F2F"/>
<rect x="1792.5" y="0.5" width="63" height="1079" stroke="#2F2F2F"/>
<rect x="384.5" y="0.5" width="63" height="1079" stroke="#2F2F2F"/>
<rect x="832.5" y="0.5" width="63" height="1079" stroke="#2F2F2F"/>
<rect x="1280.5" y="0.5" width="63" height="1079" stroke="#2F2F2F"/>
<rect x="1728.5" y="0.5" width="63" height="1079" stroke="#2F2F2F"/>
<rect x="1856.5" y="0.5" width="63" height="1079" stroke="#2F2F2F"/>
<rect x="0.5" y="1068.5" width="63" height="1087" transform="rotate(-90 0.5 1068.5)" stroke="#2F2F2F"/>
<rect x="0.5" y="620.5" width="63" height="1087" transform="rotate(-90 0.5 620.5)" stroke="#2F2F2F"/>
<rect x="0.5" y="172.5" width="63" height="1087" transform="rotate(-90 0.5 172.5)" stroke="#2F2F2F"/>
<rect x="0.499878" y="44.5" width="63" height="1087" transform="rotate(-90 0.499878 44.5)" stroke="#2F2F2F"/>
<rect x="0.5" y="1004.5" width="63" height="1087" transform="rotate(-90 0.5 1004.5)" stroke="#2F2F2F"/>
<rect x="0.5" y="556.5" width="63" height="1087" transform="rotate(-90 0.5 556.5)" stroke="#2F2F2F"/>
<rect x="0.499878" y="108.5" width="63" height="1087" transform="rotate(-90 0.499878 108.5)" stroke="#2F2F2F"/>
<rect x="0.5" y="940.5" width="63" height="1087" transform="rotate(-90 0.5 940.5)" stroke="#2F2F2F"/>
<rect x="0.5" y="492.5" width="63" height="1087" transform="rotate(-90 0.5 492.5)" stroke="#2F2F2F"/>
<rect x="0.499878" y="44.5" width="63" height="1087" transform="rotate(-90 0.499878 44.5)" stroke="#2F2F2F"/>
<rect x="0.5" y="876.5" width="63" height="1087" transform="rotate(-90 0.5 876.5)" stroke="#2F2F2F"/>
<rect x="0.5" y="428.5" width="63" height="1087" transform="rotate(-90 0.5 428.5)" stroke="#2F2F2F"/>
<rect x="0.5" y="812.5" width="63" height="1087" transform="rotate(-90 0.5 812.5)" stroke="#2F2F2F"/>
<rect x="0.5" y="364.5" width="63" height="1087" transform="rotate(-90 0.5 364.5)" stroke="#2F2F2F"/>
<rect x="0.5" y="748.5" width="63" height="1087" transform="rotate(-90 0.5 748.5)" stroke="#2F2F2F"/>
<rect x="0.5" y="300.5" width="63" height="1087" transform="rotate(-90 0.5 300.5)" stroke="#2F2F2F"/>
<rect x="0.5" y="1132.5" width="63" height="1087" transform="rotate(-90 0.5 1132.5)" stroke="#2F2F2F"/>
<rect x="0.5" y="684.5" width="63" height="1087" transform="rotate(-90 0.5 684.5)" stroke="#2F2F2F"/>
<rect x="0.5" y="236.5" width="63" height="1087" transform="rotate(-90 0.5 236.5)" stroke="#2F2F2F"/>
<rect x="1088.5" y="1068.5" width="63" height="1087" transform="rotate(-90 1088.5 1068.5)" stroke="#2F2F2F"/>
<rect x="1088.5" y="620.5" width="63" height="1087" transform="rotate(-90 1088.5 620.5)" stroke="#2F2F2F"/>
<rect x="1088.5" y="172.5" width="63" height="1087" transform="rotate(-90 1088.5 172.5)" stroke="#2F2F2F"/>
<rect x="1088.5" y="44.5" width="63" height="1087" transform="rotate(-90 1088.5 44.5)" stroke="#2F2F2F"/>
<rect x="1088.5" y="1004.5" width="63" height="1087" transform="rotate(-90 1088.5 1004.5)" stroke="#2F2F2F"/>
<rect x="1088.5" y="556.5" width="63" height="1087" transform="rotate(-90 1088.5 556.5)" stroke="#2F2F2F"/>
<rect x="1088.5" y="108.5" width="63" height="1087" transform="rotate(-90 1088.5 108.5)" stroke="#2F2F2F"/>
<rect x="1088.5" y="940.5" width="63" height="1087" transform="rotate(-90 1088.5 940.5)" stroke="#2F2F2F"/>
<rect x="1088.5" y="492.5" width="63" height="1087" transform="rotate(-90 1088.5 492.5)" stroke="#2F2F2F"/>
<rect x="1088.5" y="44.5" width="63" height="1087" transform="rotate(-90 1088.5 44.5)" stroke="#2F2F2F"/>
<rect x="1088.5" y="876.5" width="63" height="1087" transform="rotate(-90 1088.5 876.5)" stroke="#2F2F2F"/>
<rect x="1088.5" y="428.5" width="63" height="1087" transform="rotate(-90 1088.5 428.5)" stroke="#2F2F2F"/>
<rect x="1088.5" y="812.5" width="63" height="1087" transform="rotate(-90 1088.5 812.5)" stroke="#2F2F2F"/>
<rect x="1088.5" y="364.5" width="63" height="1087" transform="rotate(-90 1088.5 364.5)" stroke="#2F2F2F"/>
<rect x="1088.5" y="748.5" width="63" height="1087" transform="rotate(-90 1088.5 748.5)" stroke="#2F2F2F"/>
<rect x="1088.5" y="300.5" width="63" height="1087" transform="rotate(-90 1088.5 300.5)" stroke="#2F2F2F"/>
<rect x="1088.5" y="1132.5" width="63" height="1087" transform="rotate(-90 1088.5 1132.5)" stroke="#2F2F2F"/>
<rect x="1088.5" y="684.5" width="63" height="1087" transform="rotate(-90 1088.5 684.5)" stroke="#2F2F2F"/>
<rect x="1088.5" y="236.5" width="63" height="1087" transform="rotate(-90 1088.5 236.5)" stroke="#2F2F2F"/>
</g>
<defs>
<clipPath id="clip0_20_4">
<rect width="1920" height="1080" fill="white"/>
</clipPath>
</defs>
</svg>
