<svg id="visual" viewBox="0 0 900 600" width="900" height="600" xmlns="http://www.w3.org/2000/svg" xmlns:xlink="http://www.w3.org/1999/xlink" version="1.1"><rect x="0" y="0" width="900" height="600" fill="#001122"></rect><g fill="none" stroke="#111458" stroke-width="2"><circle r="30" cx="205" cy="375"></circle><circle r="12" cx="597" cy="237"></circle><circle r="11" cx="302" cy="205"></circle><circle r="21" cx="459" cy="584"></circle><circle r="19" cx="798" cy="39"></circle><circle r="21" cx="5" cy="595"></circle><circle r="23" cx="33" cy="184"></circle><circle r="18" cx="144" cy="422"></circle><circle r="28" cx="630" cy="428"></circle><circle r="18" cx="446" cy="270"></circle><circle r="14" cx="504" cy="390"></circle><circle r="22" cx="751" cy="245"></circle><circle r="16" cx="49" cy="415"></circle><circle r="18" cx="84" cy="39"></circle><circle r="18" cx="390" cy="156"></circle><circle r="27" cx="628" cy="497"></circle><circle r="12" cx="157" cy="228"></circle><circle r="16" cx="583" cy="5"></circle><circle r="14" cx="861" cy="376"></circle><circle r="12" cx="293" cy="454"></circle><circle r="26" cx="111" cy="332"></circle></g></svg>