<svg width="636" height="536" viewBox="0 0 636 536" fill="none" xmlns="http://www.w3.org/2000/svg">
<g filter="url(#filter0_d_5_186)">
<rect x="22" y="2" width="591.33" height="349" rx="15" fill="#121518"/>
<ellipse cx="43.0782" cy="20.6774" rx="8.54523" ry="8.00459" fill="#EF534F"/>
<ellipse cx="67.0049" cy="20.6774" rx="8.54523" ry="8.00459" fill="#F0B23D"/>
<ellipse cx="92.0709" cy="20.6774" rx="8.54523" ry="8.00459" fill="#30BD44"/>
<path d="M27.6968 39.3548H607.633V331.529C607.633 338.156 602.261 343.529 595.633 343.529H39.6968C33.0694 343.529 27.6968 338.156 27.6968 331.529V39.3548Z" fill="#1C2126"/>
<rect x="330" y="100.286" width="263.193" height="161.159" fill="#29323B"/>
<rect x="348" y="116.112" width="228" height="21.6563" fill="#374450"/>
<rect x="348" y="146.931" width="228" height="21.6563" fill="#374450"/>
<rect x="348" y="181.081" width="228" height="21.6563" fill="#374450"/>
<rect x="348" y="214.399" width="228" height="21.6563" fill="#374450"/>
<rect x="67" y="100.286" width="263.193" height="161.159" fill="#37424E"/>
</g>
<g filter="url(#filter1_d_5_186)">
<rect x="75" y="174" width="480.536" height="320" rx="15" fill="#121518"/>
<ellipse cx="92.1289" cy="191.125" rx="6.94417" ry="7.33945" fill="#EF534F"/>
<ellipse cx="111.573" cy="191.125" rx="6.94417" ry="7.33945" fill="#F0B23D"/>
<ellipse cx="131.942" cy="191.125" rx="6.94417" ry="7.33945" fill="#30BD44"/>
<path d="M79.6294 208.251H550.907V475.15C550.907 481.777 545.534 487.15 538.907 487.15H91.6294C85.002 487.15 79.6294 481.777 79.6294 475.15V208.251Z" fill="#1C2126"/>
<rect x="129.627" y="243.48" width="213.88" height="147.768" fill="#29323B"/>
<rect x="464.799" y="285.56" width="65.7381" height="19.5719" fill="#29323B"/>
<rect x="464.799" y="313.939" width="65.7381" height="19.5719" fill="#29323B"/>
<rect x="464.799" y="345.254" width="65.7381" height="19.5719" fill="#29323B"/>
<rect x="464.799" y="375.59" width="65.7381" height="19.5719" fill="#29323B"/>
<rect x="376.84" y="243.48" width="65.7381" height="19.5719" fill="#29323B"/>
<rect x="228.698" y="276.752" width="213.88" height="147.768" fill="#37424E"/>
</g>
<defs>
<filter id="filter0_d_5_186" x="0" y="0" width="635.33" height="393" filterUnits="userSpaceOnUse" color-interpolation-filters="sRGB">
<feFlood flood-opacity="0" result="BackgroundImageFix"/>
<feColorMatrix in="SourceAlpha" type="matrix" values="0 0 0 0 0 0 0 0 0 0 0 0 0 0 0 0 0 0 127 0" result="hardAlpha"/>
<feOffset dy="20"/>
<feGaussianBlur stdDeviation="11"/>
<feComposite in2="hardAlpha" operator="out"/>
<feColorMatrix type="matrix" values="0 0 0 0 0 0 0 0 0 0 0 0 0 0 0 0 0 0 0.48 0"/>
<feBlend mode="normal" in2="BackgroundImageFix" result="effect1_dropShadow_5_186"/>
<feBlend mode="normal" in="SourceGraphic" in2="effect1_dropShadow_5_186" result="shape"/>
</filter>
<filter id="filter1_d_5_186" x="53" y="172" width="524.536" height="364" filterUnits="userSpaceOnUse" color-interpolation-filters="sRGB">
<feFlood flood-opacity="0" result="BackgroundImageFix"/>
<feColorMatrix in="SourceAlpha" type="matrix" values="0 0 0 0 0 0 0 0 0 0 0 0 0 0 0 0 0 0 127 0" result="hardAlpha"/>
<feOffset dy="20"/>
<feGaussianBlur stdDeviation="11"/>
<feComposite in2="hardAlpha" operator="out"/>
<feColorMatrix type="matrix" values="0 0 0 0 0 0 0 0 0 0 0 0 0 0 0 0 0 0 0.48 0"/>
<feBlend mode="normal" in2="BackgroundImageFix" result="effect1_dropShadow_5_186"/>
<feBlend mode="normal" in="SourceGraphic" in2="effect1_dropShadow_5_186" result="shape"/>
</filter>
</defs>
</svg>
