<svg id="visual" viewBox="0 0 900 600" width="900" height="600" xmlns="http://www.w3.org/2000/svg" xmlns:xlink="http://www.w3.org/1999/xlink" version="1.1"><rect width="900" height="600" fill="#161616"></rect><g><g transform="translate(714 574)"><path d="M0 -126.6L109.6 -63.3L109.6 63.3L0 126.6L-109.6 63.3L-109.6 -63.3Z" fill="none" stroke="#FA8B2F" stroke-width="2"></path></g><g transform="translate(29 273)"><path d="M0 -99L85.7 -49.5L85.7 49.5L0 99L-85.7 49.5L-85.7 -49.5Z" fill="none" stroke="#FA8B2F" stroke-width="2"></path></g><g transform="translate(230 3)"><path d="M0 -85L73.6 -42.5L73.6 42.5L0 85L-73.6 42.5L-73.6 -42.5Z" stroke="#FA8B2F" fill="none" stroke-width="2"></path></g><g transform="translate(823 43)"><path d="M0 -94L81.4 -47L81.4 47L0 94L-81.4 47L-81.4 -47Z" stroke="#FA8B2F" fill="none" stroke-width="2"></path></g><g transform="translate(270 548)"><path d="M0 -63L54.6 -31.5L54.6 31.5L0 63L-54.6 31.5L-54.6 -31.5Z" stroke="#FA8B2F" fill="none" stroke-width="2"></path></g><g transform="translate(586 218)"><path d="M0 -103L89.2 -51.5L89.2 51.5L0 103L-89.2 51.5L-89.2 -51.5Z" stroke="#FA8B2F" fill="none" stroke-width="2"></path></g><g transform="translate(813 333)"><path d="M0 -85L73.6 -42.5L73.6 42.5L0 85L-73.6 42.5L-73.6 -42.5Z" stroke="#FA8B2F" fill="none" stroke-width="2"></path></g></g></svg>