<?xml version="1.0" encoding="UTF-8"?>
<svg xmlns="http://www.w3.org/2000/svg" xmlns:xlink="http://www.w3.org/1999/xlink" viewBox="0 0 250 250" width="250px" height="250px">
<g id="surface6973188">
<path style=" stroke:none;fill-rule:nonzero;fill:rgb(98.039216%,54.509807%,18.431373%);fill-opacity:1;" d="M 94.53125 35 C 94.53125 35 62.695312 37.1875 41.875 53.90625 C 41.777344 53.945312 41.660156 54.003906 41.5625 54.0625 C 37.949219 57.402344 35.234375 62.578125 31.875 70 C 28.515625 77.421875 24.960938 86.972656 21.71875 97.65625 C 15.253906 119.042969 10 145.292969 10 170 C 9.980469 170.878906 10.195312 171.738281 10.625 172.5 C 17.929688 185.332031 31.367188 193.085938 43.90625 197.96875 C 56.445312 202.851562 68.027344 204.804688 73.90625 205 C 75.566406 205.058594 77.148438 204.296875 78.125 202.96875 L 90.3125 186.09375 C 100.136719 188.417969 111.660156 190 125 190 C 138.339844 190 149.863281 188.417969 159.6875 186.09375 L 171.875 202.96875 C 172.851562 204.296875 174.433594 205.058594 176.09375 205 C 181.972656 204.804688 193.554688 202.851562 206.09375 197.96875 C 218.632812 193.085938 232.070312 185.332031 239.375 172.5 C 239.804688 171.738281 240.019531 170.878906 240 170 C 240 145.292969 234.746094 119.042969 228.28125 97.65625 C 225.039062 86.972656 221.484375 77.421875 218.125 70 C 214.765625 62.578125 212.050781 57.402344 208.4375 54.0625 C 208.339844 54.003906 208.222656 53.945312 208.125 53.90625 C 187.304688 37.1875 155.46875 35 155.46875 35 C 155.097656 34.960938 154.746094 34.960938 154.375 35 C 152.636719 35.234375 151.171875 36.367188 150.46875 37.96875 C 150.46875 37.96875 148.769531 41.699219 147.65625 47.03125 C 137.910156 45.46875 129.707031 45 125 45 C 120.292969 45 112.089844 45.46875 102.34375 47.03125 C 101.230469 41.699219 99.53125 37.96875 99.53125 37.96875 C 98.671875 36.015625 96.660156 34.824219 94.53125 35 Z M 91.40625 45.78125 C 91.777344 46.796875 92.03125 47.753906 92.34375 48.90625 C 81.074219 51.523438 68.730469 55.800781 57.1875 62.96875 C 55.371094 63.730469 54.179688 65.488281 54.121094 67.460938 C 54.082031 69.414062 55.195312 71.230469 56.953125 72.089844 C 58.730469 72.929688 60.839844 72.675781 62.34375 71.40625 C 85.507812 57.050781 114.980469 55 125 55 C 135.019531 55 164.492188 57.050781 187.65625 71.40625 C 189.160156 72.675781 191.269531 72.929688 193.046875 72.089844 C 194.804688 71.230469 195.917969 69.414062 195.878906 67.460938 C 195.820312 65.488281 194.628906 63.730469 192.8125 62.96875 C 181.269531 55.800781 168.925781 51.523438 157.65625 48.90625 C 157.96875 47.753906 158.222656 46.796875 158.59375 45.78125 C 164.296875 46.484375 186.464844 49.472656 201.5625 61.40625 C 202.539062 62.304688 205.9375 67.304688 209.0625 74.21875 C 212.1875 81.132812 215.46875 90.136719 218.59375 100.46875 C 224.6875 120.625 229.609375 145.488281 229.84375 168.28125 C 224.160156 177.480469 213.496094 184.316406 202.5 188.59375 C 192.5 192.480469 183.164062 194.21875 178.28125 194.6875 L 169.84375 183.28125 C 174.140625 181.894531 178.007812 180.390625 181.40625 178.90625 C 194.023438 173.359375 200.78125 167.5 200.78125 167.5 C 202.851562 165.644531 203.027344 162.460938 201.171875 160.390625 C 199.316406 158.320312 196.132812 158.144531 194.0625 160 C 194.0625 160 188.828125 164.785156 177.34375 169.84375 C 173.125 171.699219 168.007812 173.535156 162.1875 175.15625 C 160.839844 175 159.492188 175.390625 158.4375 176.25 C 149.121094 178.515625 138.046875 180 125 180 C 111.855469 180 100.761719 178.378906 91.40625 176.09375 C 90.351562 175.390625 89.0625 175.097656 87.8125 175.3125 C 81.972656 173.691406 76.894531 171.699219 72.65625 169.84375 C 61.171875 164.785156 55.9375 160 55.9375 160 C 54.804688 158.945312 53.242188 158.496094 51.71875 158.75 C 49.785156 159.042969 48.183594 160.429688 47.65625 162.324219 C 47.109375 164.199219 47.734375 166.230469 49.21875 167.5 C 49.21875 167.5 55.976562 173.359375 68.59375 178.90625 C 71.992188 180.390625 75.859375 181.894531 80.15625 183.28125 L 71.71875 194.6875 C 66.835938 194.21875 57.5 192.480469 47.5 188.59375 C 36.503906 184.316406 25.839844 177.480469 20.15625 168.28125 C 20.390625 145.488281 25.3125 120.625 31.40625 100.46875 C 34.53125 90.136719 37.8125 81.132812 40.9375 74.21875 C 44.0625 67.304688 47.460938 62.304688 48.4375 61.40625 C 63.535156 49.472656 85.703125 46.484375 91.40625 45.78125 Z M 92.5 105 C 79.746094 105 70 116.582031 70 130 C 70 143.417969 79.746094 155 92.5 155 C 105.253906 155 115 143.417969 115 130 C 115 116.582031 105.253906 105 92.5 105 Z M 157.5 105 C 144.746094 105 135 116.582031 135 130 C 135 143.417969 144.746094 155 157.5 155 C 170.253906 155 180 143.417969 180 130 C 180 116.582031 170.253906 105 157.5 105 Z M 92.5 115 C 99.082031 115 105 121.328125 105 130 C 105 138.671875 99.082031 145 92.5 145 C 85.917969 145 80 138.671875 80 130 C 80 121.328125 85.917969 115 92.5 115 Z M 157.5 115 C 164.082031 115 170 121.328125 170 130 C 170 138.671875 164.082031 145 157.5 145 C 150.917969 145 145 138.671875 145 130 C 145 121.328125 150.917969 115 157.5 115 Z M 157.5 115 "/>
</g>
</svg>
