<svg id="visual" viewBox="0 0 960 540" width="960" height="540" xmlns="http://www.w3.org/2000/svg" xmlns:xlink="http://www.w3.org/1999/xlink" version="1.1"><rect x="0" y="0" width="960" height="540" fill="#001220"></rect><path d="M0 438L22.8 440.5C45.7 443 91.3 448 137 445.7C182.7 443.3 228.3 433.7 274 427C319.7 420.3 365.3 416.7 411.2 418C457 419.3 503 425.7 548.8 430.5C594.7 435.3 640.3 438.7 686 440.7C731.7 442.7 777.3 443.3 823 441.8C868.7 440.3 914.3 436.7 937.2 434.8L960 433L960 541L937.2 541C914.3 541 868.7 541 823 541C777.3 541 731.7 541 686 541C640.3 541 594.7 541 548.8 541C503 541 457 541 411.2 541C365.3 541 319.7 541 274 541C228.3 541 182.7 541 137 541C91.3 541 45.7 541 22.8 541L0 541Z" fill="#243062"></path><path d="M0 447L22.8 452.3C45.7 457.7 91.3 468.3 137 472.8C182.7 477.3 228.3 475.7 274 469.7C319.7 463.7 365.3 453.3 411.2 453.5C457 453.7 503 464.3 548.8 471.8C594.7 479.3 640.3 483.7 686 484.2C731.7 484.7 777.3 481.3 823 477.7C868.7 474 914.3 470 937.2 468L960 466L960 541L937.2 541C914.3 541 868.7 541 823 541C777.3 541 731.7 541 686 541C640.3 541 594.7 541 548.8 541C503 541 457 541 411.2 541C365.3 541 319.7 541 274 541C228.3 541 182.7 541 137 541C91.3 541 45.7 541 22.8 541L0 541Z" fill="#182044"></path><path d="M0 491L22.8 494.3C45.7 497.7 91.3 504.3 137 508.7C182.7 513 228.3 515 274 510C319.7 505 365.3 493 411.2 493C457 493 503 505 548.8 504.8C594.7 504.7 640.3 492.3 686 488.8C731.7 485.3 777.3 490.7 823 491.2C868.7 491.7 914.3 487.3 937.2 485.2L960 483L960 541L937.2 541C914.3 541 868.7 541 823 541C777.3 541 731.7 541 686 541C640.3 541 594.7 541 548.8 541C503 541 457 541 411.2 541C365.3 541 319.7 541 274 541C228.3 541 182.7 541 137 541C91.3 541 45.7 541 22.8 541L0 541Z" fill="#0d1128"></path></svg>