<svg id="visual" viewBox="0 0 675 900" width="675" height="900" xmlns="http://www.w3.org/2000/svg" xmlns:xlink="http://www.w3.org/1999/xlink" version="1.1"><rect x="0" y="0" width="675" height="900" fill="#140021"></rect><path d="M0 376L96 376L96 422L193 422L193 488L289 488L289 479L386 479L386 378L482 378L482 441L579 441L579 431L675 431L675 505L675 901L675 901L579 901L579 901L482 901L482 901L386 901L386 901L289 901L289 901L193 901L193 901L96 901L96 901L0 901Z" fill="#9900ff"></path><path d="M0 690L96 690L96 634L193 634L193 592L289 592L289 590L386 590L386 536L482 536L482 553L579 553L579 608L675 608L675 649L675 901L675 901L579 901L579 901L482 901L482 901L386 901L386 901L289 901L289 901L193 901L193 901L96 901L96 901L0 901Z" fill="#7700c6"></path><path d="M0 779L96 779L96 753L193 753L193 677L289 677L289 750L386 750L386 690L482 690L482 726L579 726L579 694L675 694L675 730L675 901L675 901L579 901L579 901L482 901L482 901L386 901L386 901L289 901L289 901L193 901L193 901L96 901L96 901L0 901Z" fill="#560090"></path></svg>