<svg id="visual" viewBox="0 0 675 900" width="675" height="900" xmlns="http://www.w3.org/2000/svg" xmlns:xlink="http://www.w3.org/1999/xlink" version="1.1"><path d="M0 109L10.2 103C20.3 97 40.7 85 61.2 77.5C81.7 70 102.3 67 122.8 79C143.3 91 163.7 118 184 119.5C204.3 121 224.7 97 245.2 94C265.7 91 286.3 109 306.8 107.5C327.3 106 347.7 85 368.2 73C388.7 61 409.3 58 429.8 73C450.3 88 470.7 121 491 127C511.3 133 531.7 112 552.2 100C572.7 88 593.3 85 613.8 94C634.3 103 654.7 124 664.8 134.5L675 145L675 0L664.8 0C654.7 0 634.3 0 613.8 0C593.3 0 572.7 0 552.2 0C531.7 0 511.3 0 491 0C470.7 0 450.3 0 429.8 0C409.3 0 388.7 0 368.2 0C347.7 0 327.3 0 306.8 0C286.3 0 265.7 0 245.2 0C224.7 0 204.3 0 184 0C163.7 0 143.3 0 122.8 0C102.3 0 81.7 0 61.2 0C40.7 0 20.3 0 10.2 0L0 0Z" fill="#6198ff"></path><path d="M0 235L10.2 242.5C20.3 250 40.7 265 61.2 260.5C81.7 256 102.3 232 122.8 233.5C143.3 235 163.7 262 184 271C204.3 280 224.7 271 245.2 269.5C265.7 268 286.3 274 306.8 280C327.3 286 347.7 292 368.2 277C388.7 262 409.3 226 429.8 218.5C450.3 211 470.7 232 491 248.5C511.3 265 531.7 277 552.2 262C572.7 247 593.3 205 613.8 212.5C634.3 220 654.7 277 664.8 305.5L675 334L675 143L664.8 132.5C654.7 122 634.3 101 613.8 92C593.3 83 572.7 86 552.2 98C531.7 110 511.3 131 491 125C470.7 119 450.3 86 429.8 71C409.3 56 388.7 59 368.2 71C347.7 83 327.3 104 306.8 105.5C286.3 107 265.7 89 245.2 92C224.7 95 204.3 119 184 117.5C163.7 116 143.3 89 122.8 77C102.3 65 81.7 68 61.2 75.5C40.7 83 20.3 95 10.2 101L0 107Z" fill="#3c80ff"></path><path d="M0 559L10.2 566.5C20.3 574 40.7 589 61.2 577C81.7 565 102.3 526 122.8 524.5C143.3 523 163.7 559 184 571C204.3 583 224.7 571 245.2 547C265.7 523 286.3 487 306.8 485.5C327.3 484 347.7 517 368.2 514C388.7 511 409.3 472 429.8 482.5C450.3 493 470.7 553 491 580C511.3 607 531.7 601 552.2 587.5C572.7 574 593.3 553 613.8 527.5C634.3 502 654.7 472 664.8 457L675 442L675 332L664.8 303.5C654.7 275 634.3 218 613.8 210.5C593.3 203 572.7 245 552.2 260C531.7 275 511.3 263 491 246.5C470.7 230 450.3 209 429.8 216.5C409.3 224 388.7 260 368.2 275C347.7 290 327.3 284 306.8 278C286.3 272 265.7 266 245.2 267.5C224.7 269 204.3 278 184 269C163.7 260 143.3 233 122.8 231.5C102.3 230 81.7 254 61.2 258.5C40.7 263 20.3 248 10.2 240.5L0 233Z" fill="#0066ff"></path><path d="M0 640L10.2 653.5C20.3 667 40.7 694 61.2 686.5C81.7 679 102.3 637 122.8 634C143.3 631 163.7 667 184 691C204.3 715 224.7 727 245.2 695.5C265.7 664 286.3 589 306.8 587.5C327.3 586 347.7 658 368.2 668.5C388.7 679 409.3 628 429.8 625C450.3 622 470.7 667 491 683.5C511.3 700 531.7 688 552.2 683.5C572.7 679 593.3 682 613.8 665.5C634.3 649 654.7 613 664.8 595L675 577L675 440L664.8 455C654.7 470 634.3 500 613.8 525.5C593.3 551 572.7 572 552.2 585.5C531.7 599 511.3 605 491 578C470.7 551 450.3 491 429.8 480.5C409.3 470 388.7 509 368.2 512C347.7 515 327.3 482 306.8 483.5C286.3 485 265.7 521 245.2 545C224.7 569 204.3 581 184 569C163.7 557 143.3 521 122.8 522.5C102.3 524 81.7 563 61.2 575C40.7 587 20.3 572 10.2 564.5L0 557Z" fill="#0059dd"></path><path d="M0 901L10.2 901C20.3 901 40.7 901 61.2 901C81.7 901 102.3 901 122.8 901C143.3 901 163.7 901 184 901C204.3 901 224.7 901 245.2 901C265.7 901 286.3 901 306.8 901C327.3 901 347.7 901 368.2 901C388.7 901 409.3 901 429.8 901C450.3 901 470.7 901 491 901C511.3 901 531.7 901 552.2 901C572.7 901 593.3 901 613.8 901C634.3 901 654.7 901 664.8 901L675 901L675 575L664.8 593C654.7 611 634.3 647 613.8 663.5C593.3 680 572.7 677 552.2 681.5C531.7 686 511.3 698 491 681.5C470.7 665 450.3 620 429.8 623C409.3 626 388.7 677 368.2 666.5C347.7 656 327.3 584 306.8 585.5C286.3 587 265.7 662 245.2 693.5C224.7 725 204.3 713 184 689C163.7 665 143.3 629 122.8 632C102.3 635 81.7 677 61.2 684.5C40.7 692 20.3 665 10.2 651.5L0 638Z" fill="#004cbb"></path></svg>