<svg id="visual" viewBox="0 0 675 900" width="675" height="900" xmlns="http://www.w3.org/2000/svg" xmlns:xlink="http://www.w3.org/1999/xlink" version="1.1"><g stroke-width="1" stroke-linejoin="bevel"><path d="M280 419L296 398L218 413Z" fill="#19435d" stroke="#19435d"></path><path d="M296 398L291 333L218 413Z" fill="#00101c" stroke="#00101c"></path><path d="M233 306L181 369L218 413Z" fill="#00101c" stroke="#00101c"></path><path d="M291 333L233 306L218 413Z" fill="#00101c" stroke="#00101c"></path><path d="M160 457L212 461L218 413Z" fill="#081a28" stroke="#081a28"></path><path d="M218 413L212 461L280 419Z" fill="#081a28" stroke="#081a28"></path><path d="M181 369L160 457L218 413Z" fill="#246688" stroke="#246688"></path><path d="M158 256L159 268L233 306Z" fill="#246688" stroke="#246688"></path><path d="M233 306L159 268L181 369Z" fill="#15384f" stroke="#15384f"></path><path d="M181 369L86 376L160 457Z" fill="#277297" stroke="#277297"></path><path d="M402 342L358 278L291 333Z" fill="#0c2435" stroke="#0c2435"></path><path d="M291 333L312 224L233 306Z" fill="#205a7a" stroke="#205a7a"></path><path d="M406 421L402 342L296 398Z" fill="#277297" stroke="#277297"></path><path d="M296 398L402 342L291 333Z" fill="#246688" stroke="#246688"></path><path d="M243 185L158 256L233 306Z" fill="#081a28" stroke="#081a28"></path><path d="M159 268L86 376L181 369Z" fill="#1d4e6b" stroke="#1d4e6b"></path><path d="M345 531L406 421L280 419Z" fill="#277297" stroke="#277297"></path><path d="M280 419L406 421L296 398Z" fill="#081a28" stroke="#081a28"></path><path d="M66 285L86 376L159 268Z" fill="#00101c" stroke="#00101c"></path><path d="M358 278L312 224L291 333Z" fill="#0c2435" stroke="#0c2435"></path><path d="M160 457L227 555L212 461Z" fill="#00101c" stroke="#00101c"></path><path d="M279 561L345 531L280 419Z" fill="#19435d" stroke="#19435d"></path><path d="M120 526L227 555L160 457Z" fill="#19435d" stroke="#19435d"></path><path d="M279 561L280 419L212 461Z" fill="#297ea6" stroke="#297ea6"></path><path d="M402 342L380 255L358 278Z" fill="#246688" stroke="#246688"></path><path d="M358 278L380 255L312 224Z" fill="#297ea6" stroke="#297ea6"></path><path d="M227 555L279 561L212 461Z" fill="#277297" stroke="#277297"></path><path d="M279 561L331 550L345 531Z" fill="#246688" stroke="#246688"></path><path d="M406 421L435 338L402 342Z" fill="#15384f" stroke="#15384f"></path><path d="M402 342L435 338L380 255Z" fill="#19435d" stroke="#19435d"></path><path d="M345 531L429 445L406 421Z" fill="#0c2435" stroke="#0c2435"></path><path d="M406 421L429 445L435 338Z" fill="#277297" stroke="#277297"></path><path d="M414 569L429 445L345 531Z" fill="#15384f" stroke="#15384f"></path><path d="M53 419L120 526L160 457Z" fill="#0c2435" stroke="#0c2435"></path><path d="M188 137L243 185L194 103Z" fill="#297ea6" stroke="#297ea6"></path><path d="M312 224L243 185L233 306Z" fill="#19435d" stroke="#19435d"></path><path d="M0 335L53 419L86 376Z" fill="#205a7a" stroke="#205a7a"></path><path d="M86 376L53 419L160 457Z" fill="#277297" stroke="#277297"></path><path d="M81 200L66 285L158 256Z" fill="#0c2435" stroke="#0c2435"></path><path d="M158 256L66 285L159 268Z" fill="#00101c" stroke="#00101c"></path><path d="M120 526L153 587L227 555Z" fill="#0c2435" stroke="#0c2435"></path><path d="M227 555L245 622L279 561Z" fill="#1d4e6b" stroke="#1d4e6b"></path><path d="M90 611L153 587L120 526Z" fill="#081a28" stroke="#081a28"></path><path d="M153 587L245 622L227 555Z" fill="#297ea6" stroke="#297ea6"></path><path d="M279 561L308 672L331 550Z" fill="#246688" stroke="#246688"></path><path d="M188 137L121 175L158 256Z" fill="#00101c" stroke="#00101c"></path><path d="M0 470L36 496L53 419Z" fill="#19435d" stroke="#19435d"></path><path d="M53 419L36 496L120 526Z" fill="#19435d" stroke="#19435d"></path><path d="M430 597L414 569L308 672Z" fill="#19435d" stroke="#19435d"></path><path d="M331 550L414 569L345 531Z" fill="#1d4e6b" stroke="#1d4e6b"></path><path d="M121 175L81 200L158 256Z" fill="#297ea6" stroke="#297ea6"></path><path d="M309 118L243 185L312 224Z" fill="#205a7a" stroke="#205a7a"></path><path d="M243 185L188 137L158 256Z" fill="#1d4e6b" stroke="#1d4e6b"></path><path d="M428 151L358 151L380 255Z" fill="#205a7a" stroke="#205a7a"></path><path d="M380 255L358 151L312 224Z" fill="#19435d" stroke="#19435d"></path><path d="M0 297L0 335L66 285Z" fill="#112e42" stroke="#112e42"></path><path d="M66 285L0 335L86 376Z" fill="#081a28" stroke="#081a28"></path><path d="M491 278L489 279L541 361Z" fill="#0c2435" stroke="#0c2435"></path><path d="M435 338L489 279L380 255Z" fill="#277297" stroke="#277297"></path><path d="M489 279L435 338L541 361Z" fill="#277297" stroke="#277297"></path><path d="M541 361L435 338L429 445Z" fill="#246688" stroke="#246688"></path><path d="M489 279L466 187L380 255Z" fill="#277297" stroke="#277297"></path><path d="M0 226L0 297L66 285Z" fill="#112e42" stroke="#112e42"></path><path d="M0 335L0 470L53 419Z" fill="#112e42" stroke="#112e42"></path><path d="M36 496L90 611L120 526Z" fill="#205a7a" stroke="#205a7a"></path><path d="M358 151L309 118L312 224Z" fill="#246688" stroke="#246688"></path><path d="M414 569L488 530L429 445Z" fill="#081a28" stroke="#081a28"></path><path d="M308 672L414 569L331 550Z" fill="#246688" stroke="#246688"></path><path d="M414 569L430 597L488 530Z" fill="#1d4e6b" stroke="#1d4e6b"></path><path d="M0 590L90 611L36 496Z" fill="#081a28" stroke="#081a28"></path><path d="M153 587L195 678L245 622Z" fill="#277297" stroke="#277297"></path><path d="M351 75L305 102L309 118Z" fill="#081a28" stroke="#081a28"></path><path d="M309 118L194 103L243 185Z" fill="#297ea6" stroke="#297ea6"></path><path d="M305 102L194 103L309 118Z" fill="#297ea6" stroke="#297ea6"></path><path d="M188 137L89 146L121 175Z" fill="#246688" stroke="#246688"></path><path d="M121 175L89 146L81 200Z" fill="#15384f" stroke="#15384f"></path><path d="M194 103L89 146L188 137Z" fill="#205a7a" stroke="#205a7a"></path><path d="M81 200L0 226L66 285Z" fill="#277297" stroke="#277297"></path><path d="M0 470L0 520L36 496Z" fill="#19435d" stroke="#19435d"></path><path d="M491 278L466 187L489 279Z" fill="#1d4e6b" stroke="#1d4e6b"></path><path d="M358 151L351 75L309 118Z" fill="#205a7a" stroke="#205a7a"></path><path d="M553 462L541 361L429 445Z" fill="#00101c" stroke="#00101c"></path><path d="M491 278L561 200L466 187Z" fill="#15384f" stroke="#15384f"></path><path d="M466 187L428 151L380 255Z" fill="#15384f" stroke="#15384f"></path><path d="M195 678L308 672L245 622Z" fill="#19435d" stroke="#19435d"></path><path d="M245 622L308 672L279 561Z" fill="#0c2435" stroke="#0c2435"></path><path d="M0 137L0 226L81 200Z" fill="#00101c" stroke="#00101c"></path><path d="M145 706L195 678L153 587Z" fill="#0c2435" stroke="#0c2435"></path><path d="M560 486L553 462L488 530Z" fill="#15384f" stroke="#15384f"></path><path d="M488 530L553 462L429 445Z" fill="#297ea6" stroke="#297ea6"></path><path d="M485 644L514 561L430 597Z" fill="#205a7a" stroke="#205a7a"></path><path d="M430 597L514 561L488 530Z" fill="#246688" stroke="#246688"></path><path d="M428 151L351 75L358 151Z" fill="#081a28" stroke="#081a28"></path><path d="M220 0L155 35L194 103Z" fill="#00101c" stroke="#00101c"></path><path d="M476 70L351 75L428 151Z" fill="#081a28" stroke="#081a28"></path><path d="M557 524L560 486L488 530Z" fill="#277297" stroke="#277297"></path><path d="M553 462L577 356L541 361Z" fill="#0c2435" stroke="#0c2435"></path><path d="M675 343L577 356L675 423Z" fill="#297ea6" stroke="#297ea6"></path><path d="M541 361L577 356L491 278Z" fill="#00101c" stroke="#00101c"></path><path d="M0 520L0 590L36 496Z" fill="#0c2435" stroke="#0c2435"></path><path d="M90 611L145 706L153 587Z" fill="#15384f" stroke="#15384f"></path><path d="M514 561L557 524L488 530Z" fill="#1d4e6b" stroke="#1d4e6b"></path><path d="M560 486L589 503L553 462Z" fill="#205a7a" stroke="#205a7a"></path><path d="M49 674L145 706L90 611Z" fill="#15384f" stroke="#15384f"></path><path d="M195 678L288 725L308 672Z" fill="#1d4e6b" stroke="#1d4e6b"></path><path d="M258 751L288 725L195 678Z" fill="#1d4e6b" stroke="#1d4e6b"></path><path d="M412 706L485 644L430 597Z" fill="#00101c" stroke="#00101c"></path><path d="M412 706L430 597L308 672Z" fill="#246688" stroke="#246688"></path><path d="M514 561L602 634L557 524Z" fill="#19435d" stroke="#19435d"></path><path d="M45 86L0 137L89 146Z" fill="#297ea6" stroke="#297ea6"></path><path d="M89 146L0 137L81 200Z" fill="#277297" stroke="#277297"></path><path d="M155 35L89 146L194 103Z" fill="#0c2435" stroke="#0c2435"></path><path d="M0 635L49 674L90 611Z" fill="#205a7a" stroke="#205a7a"></path><path d="M0 590L0 635L90 611Z" fill="#277297" stroke="#277297"></path><path d="M602 634L589 503L557 524Z" fill="#205a7a" stroke="#205a7a"></path><path d="M557 524L589 503L560 486Z" fill="#112e42" stroke="#112e42"></path><path d="M631 313L561 200L491 278Z" fill="#205a7a" stroke="#205a7a"></path><path d="M466 187L512 134L428 151Z" fill="#1d4e6b" stroke="#1d4e6b"></path><path d="M555 186L512 134L466 187Z" fill="#19435d" stroke="#19435d"></path><path d="M220 0L194 103L305 102Z" fill="#112e42" stroke="#112e42"></path><path d="M561 200L555 186L466 187Z" fill="#297ea6" stroke="#297ea6"></path><path d="M155 35L45 86L89 146Z" fill="#00101c" stroke="#00101c"></path><path d="M393 744L412 706L308 672Z" fill="#297ea6" stroke="#297ea6"></path><path d="M160 769L258 751L195 678Z" fill="#19435d" stroke="#19435d"></path><path d="M288 725L393 744L308 672Z" fill="#246688" stroke="#246688"></path><path d="M160 769L195 678L145 706Z" fill="#297ea6" stroke="#297ea6"></path><path d="M319 0L220 0L305 102Z" fill="#1d4e6b" stroke="#1d4e6b"></path><path d="M155 35L103 0L45 86Z" fill="#297ea6" stroke="#297ea6"></path><path d="M319 0L305 102L351 75Z" fill="#081a28" stroke="#081a28"></path><path d="M542 112L476 70L512 134Z" fill="#15384f" stroke="#15384f"></path><path d="M512 134L476 70L428 151Z" fill="#246688" stroke="#246688"></path><path d="M675 343L631 313L577 356Z" fill="#0c2435" stroke="#0c2435"></path><path d="M577 356L631 313L491 278Z" fill="#1d4e6b" stroke="#1d4e6b"></path><path d="M619 156L542 112L555 186Z" fill="#00101c" stroke="#00101c"></path><path d="M355 0L319 0L351 75Z" fill="#19435d" stroke="#19435d"></path><path d="M306 794L393 744L288 725Z" fill="#277297" stroke="#277297"></path><path d="M412 706L473 714L485 644Z" fill="#0c2435" stroke="#0c2435"></path><path d="M418 0L355 0L351 75Z" fill="#081a28" stroke="#081a28"></path><path d="M393 744L423 738L412 706Z" fill="#15384f" stroke="#15384f"></path><path d="M485 644L574 666L514 561Z" fill="#205a7a" stroke="#205a7a"></path><path d="M555 186L542 112L512 134Z" fill="#297ea6" stroke="#297ea6"></path><path d="M619 156L555 186L561 200Z" fill="#112e42" stroke="#112e42"></path><path d="M79 755L145 706L49 674Z" fill="#297ea6" stroke="#297ea6"></path><path d="M79 755L160 769L145 706Z" fill="#297ea6" stroke="#297ea6"></path><path d="M258 751L306 794L288 725Z" fill="#277297" stroke="#277297"></path><path d="M423 738L473 714L412 706Z" fill="#297ea6" stroke="#297ea6"></path><path d="M220 0L115 0L155 35Z" fill="#297ea6" stroke="#297ea6"></path><path d="M45 86L0 60L0 137Z" fill="#15384f" stroke="#15384f"></path><path d="M0 0L0 60L45 86Z" fill="#246688" stroke="#246688"></path><path d="M115 0L103 0L155 35Z" fill="#00101c" stroke="#00101c"></path><path d="M0 767L79 755L49 674Z" fill="#277297" stroke="#277297"></path><path d="M476 70L418 0L351 75Z" fill="#0c2435" stroke="#0c2435"></path><path d="M509 0L418 0L476 70Z" fill="#277297" stroke="#277297"></path><path d="M393 744L437 831L423 738Z" fill="#19435d" stroke="#19435d"></path><path d="M196 861L306 794L258 751Z" fill="#00101c" stroke="#00101c"></path><path d="M675 423L577 356L553 462Z" fill="#112e42" stroke="#112e42"></path><path d="M675 237L619 156L561 200Z" fill="#246688" stroke="#246688"></path><path d="M675 559L675 423L589 503Z" fill="#277297" stroke="#277297"></path><path d="M589 503L675 423L553 462Z" fill="#00101c" stroke="#00101c"></path><path d="M539 720L485 644L473 714Z" fill="#297ea6" stroke="#297ea6"></path><path d="M539 720L574 666L485 644Z" fill="#246688" stroke="#246688"></path><path d="M539 720L473 714L516 858Z" fill="#081a28" stroke="#081a28"></path><path d="M675 237L561 200L631 313Z" fill="#112e42" stroke="#112e42"></path><path d="M542 112L509 0L476 70Z" fill="#246688" stroke="#246688"></path><path d="M574 666L602 634L514 561Z" fill="#15384f" stroke="#15384f"></path><path d="M675 343L675 287L631 313Z" fill="#277297" stroke="#277297"></path><path d="M79 755L156 806L160 769Z" fill="#0c2435" stroke="#0c2435"></path><path d="M160 769L156 806L258 751Z" fill="#00101c" stroke="#00101c"></path><path d="M437 831L473 714L423 738Z" fill="#112e42" stroke="#112e42"></path><path d="M574 666L618 718L602 634Z" fill="#15384f" stroke="#15384f"></path><path d="M675 287L675 237L631 313Z" fill="#297ea6" stroke="#297ea6"></path><path d="M103 0L0 0L45 86Z" fill="#205a7a" stroke="#205a7a"></path><path d="M602 634L675 559L589 503Z" fill="#277297" stroke="#277297"></path><path d="M675 576L675 559L602 634Z" fill="#112e42" stroke="#112e42"></path><path d="M597 0L509 0L542 112Z" fill="#1d4e6b" stroke="#1d4e6b"></path><path d="M0 635L0 767L49 674Z" fill="#19435d" stroke="#19435d"></path><path d="M79 755L101 831L156 806Z" fill="#1d4e6b" stroke="#1d4e6b"></path><path d="M675 102L610 84L619 156Z" fill="#246688" stroke="#246688"></path><path d="M619 156L610 84L542 112Z" fill="#19435d" stroke="#19435d"></path><path d="M675 656L675 576L602 634Z" fill="#1d4e6b" stroke="#1d4e6b"></path><path d="M0 767L101 831L79 755Z" fill="#112e42" stroke="#112e42"></path><path d="M156 806L196 861L258 751Z" fill="#246688" stroke="#246688"></path><path d="M101 831L196 861L156 806Z" fill="#277297" stroke="#277297"></path><path d="M387 863L437 831L393 744Z" fill="#1d4e6b" stroke="#1d4e6b"></path><path d="M387 863L393 744L306 794Z" fill="#297ea6" stroke="#297ea6"></path><path d="M539 720L618 718L574 666Z" fill="#246688" stroke="#246688"></path><path d="M675 237L675 135L619 156Z" fill="#15384f" stroke="#15384f"></path><path d="M610 84L597 0L542 112Z" fill="#15384f" stroke="#15384f"></path><path d="M625 864L618 718L539 720Z" fill="#0c2435" stroke="#0c2435"></path><path d="M278 900L387 863L306 794Z" fill="#297ea6" stroke="#297ea6"></path><path d="M437 831L516 858L473 714Z" fill="#081a28" stroke="#081a28"></path><path d="M618 718L675 656L602 634Z" fill="#112e42" stroke="#112e42"></path><path d="M675 135L675 102L619 156Z" fill="#246688" stroke="#246688"></path><path d="M675 0L597 0L610 84Z" fill="#246688" stroke="#246688"></path><path d="M196 861L278 900L306 794Z" fill="#246688" stroke="#246688"></path><path d="M222 900L278 900L196 861Z" fill="#00101c" stroke="#00101c"></path><path d="M183 900L222 900L196 861Z" fill="#00101c" stroke="#00101c"></path><path d="M112 900L196 861L101 831Z" fill="#246688" stroke="#246688"></path><path d="M112 900L183 900L196 861Z" fill="#081a28" stroke="#081a28"></path><path d="M0 859L112 900L101 831Z" fill="#297ea6" stroke="#297ea6"></path><path d="M278 900L396 900L387 863Z" fill="#246688" stroke="#246688"></path><path d="M387 863L396 900L437 831Z" fill="#277297" stroke="#277297"></path><path d="M0 767L0 859L101 831Z" fill="#277297" stroke="#277297"></path><path d="M471 900L516 858L437 831Z" fill="#00101c" stroke="#00101c"></path><path d="M618 718L675 728L675 656Z" fill="#0c2435" stroke="#0c2435"></path><path d="M625 864L675 728L618 718Z" fill="#081a28" stroke="#081a28"></path><path d="M396 900L471 900L437 831Z" fill="#1d4e6b" stroke="#1d4e6b"></path><path d="M516 858L625 864L539 720Z" fill="#205a7a" stroke="#205a7a"></path><path d="M675 102L675 0L610 84Z" fill="#081a28" stroke="#081a28"></path><path d="M0 859L0 900L112 900Z" fill="#297ea6" stroke="#297ea6"></path><path d="M471 900L548 900L516 858Z" fill="#205a7a" stroke="#205a7a"></path><path d="M548 900L625 864L516 858Z" fill="#0c2435" stroke="#0c2435"></path><path d="M548 900L610 900L625 864Z" fill="#205a7a" stroke="#205a7a"></path><path d="M675 900L675 855L625 864Z" fill="#00101c" stroke="#00101c"></path><path d="M625 864L675 855L675 728Z" fill="#00101c" stroke="#00101c"></path><path d="M610 900L675 900L625 864Z" fill="#246688" stroke="#246688"></path></g></svg>