<svg id="visual" viewBox="0 0 900 200" width="900" height="200" xmlns="http://www.w3.org/2000/svg" xmlns:xlink="http://www.w3.org/1999/xlink" version="1.1"><rect x="0" y="0" width="900" height="200" fill="#161616"></rect><g fill="#FA8B2F"><circle r="21" cx="391" cy="3"></circle><circle r="11" cx="474" cy="106"></circle><circle r="16" cx="470" cy="173"></circle><circle r="12" cx="897" cy="139"></circle><circle r="11" cx="136" cy="163"></circle><circle r="10" cx="117" cy="95"></circle><circle r="15" cx="364" cy="112"></circle><circle r="13" cx="28" cy="88"></circle><circle r="10" cx="268" cy="109"></circle><circle r="11" cx="564" cy="25"></circle><circle r="12" cx="696" cy="107"></circle><circle r="15" cx="742" cy="62"></circle><circle r="16" cx="312" cy="174"></circle><circle r="19" cx="642" cy="72"></circle><circle r="12" cx="860" cy="119"></circle><circle r="11" cx="532" cy="101"></circle><circle r="13" cx="216" cy="18"></circle><circle r="16" cx="528" cy="189"></circle><circle r="15" cx="385" cy="173"></circle><circle r="18" cx="29" cy="39"></circle></g></svg>