<svg id="visual" viewBox="0 0 900 200" width="900" height="200" xmlns="http://www.w3.org/2000/svg" xmlns:xlink="http://www.w3.org/1999/xlink" version="1.1"><g stroke-width="17" stroke-linejoin="bevel"><path d="M381 125L335 137L394 200Z" fill="#b0652a" stroke="#161616"></path><path d="M335 137L280 200L394 200Z" fill="#fa8b2f" stroke="#161616"></path><path d="M394 200L485 200L381 125Z" fill="#fa8b2f" stroke="#161616"></path><path d="M485 200L515 139L381 125Z" fill="#6a4123" stroke="#161616"></path><path d="M503 0L364 0L381 125Z" fill="#543620" stroke="#161616"></path><path d="M381 125L364 0L335 137Z" fill="#3f2b1d" stroke="#161616"></path><path d="M161 112L187 200L280 200Z" fill="#3f2b1d" stroke="#161616"></path><path d="M161 112L280 200L335 137Z" fill="#814d26" stroke="#161616"></path><path d="M364 0L286 0L335 137Z" fill="#b0652a" stroke="#161616"></path><path d="M286 0L161 112L335 137Z" fill="#2b201a" stroke="#161616"></path><path d="M515 139L503 0L381 125Z" fill="#c8712c" stroke="#161616"></path><path d="M286 0L188 0L161 112Z" fill="#3f2b1d" stroke="#161616"></path><path d="M633 200L604 98L515 139Z" fill="#b0652a" stroke="#161616"></path><path d="M515 139L604 98L503 0Z" fill="#543620" stroke="#161616"></path><path d="M188 0L116 91L161 112Z" fill="#3f2b1d" stroke="#161616"></path><path d="M161 112L93 200L187 200Z" fill="#b0652a" stroke="#161616"></path><path d="M485 200L633 200L515 139Z" fill="#814d26" stroke="#161616"></path><path d="M116 91L93 200L161 112Z" fill="#fa8b2f" stroke="#161616"></path><path d="M693 86L615 0L604 98Z" fill="#543620" stroke="#161616"></path><path d="M604 98L615 0L503 0Z" fill="#2b201a" stroke="#161616"></path><path d="M188 0L116 0L116 91Z" fill="#985928" stroke="#161616"></path><path d="M0 70L0 200L93 200Z" fill="#6a4123" stroke="#161616"></path><path d="M633 200L693 86L604 98Z" fill="#3f2b1d" stroke="#161616"></path><path d="M688 200L693 86L633 200Z" fill="#c8712c" stroke="#161616"></path><path d="M0 70L93 200L116 91Z" fill="#6a4123" stroke="#161616"></path><path d="M116 0L0 70L116 91Z" fill="#2b201a" stroke="#161616"></path><path d="M801 129L728 0L693 86Z" fill="#b0652a" stroke="#161616"></path><path d="M693 86L728 0L615 0Z" fill="#6a4123" stroke="#161616"></path><path d="M116 0L0 0L0 70Z" fill="#e17e2e" stroke="#161616"></path><path d="M688 200L801 129L693 86Z" fill="#b0652a" stroke="#161616"></path><path d="M688 200L837 200L801 129Z" fill="#985928" stroke="#161616"></path><path d="M900 71L818 0L801 129Z" fill="#e17e2e" stroke="#161616"></path><path d="M801 129L818 0L728 0Z" fill="#c8712c" stroke="#161616"></path><path d="M837 200L900 200L801 129Z" fill="#161616" stroke="#161616"></path><path d="M900 200L900 71L801 129Z" fill="#6a4123" stroke="#161616"></path><path d="M900 71L900 0L818 0Z" fill="#543620" stroke="#161616"></path></g></svg>