<svg id="visual" viewBox="0 0 900 200" width="900" height="200" xmlns="http://www.w3.org/2000/svg" xmlns:xlink="http://www.w3.org/1999/xlink" version="1.1"><path d="M818 200L809 200L809 187L791 187L791 173L791 173L791 160L782 160L782 147L755 147L755 133L818 133L818 120L791 120L791 107L782 107L782 93L836 93L836 80L764 80L764 67L755 67L755 53L791 53L791 40L809 40L809 27L791 27L791 13L764 13L764 0L900 0L900 13L900 13L900 27L900 27L900 40L900 40L900 53L900 53L900 67L900 67L900 80L900 80L900 93L900 93L900 107L900 107L900 120L900 120L900 133L900 133L900 147L900 147L900 160L900 160L900 173L900 173L900 187L900 187L900 200L900 200Z" fill="#161616"></path><path d="M755 200L773 200L773 187L764 187L764 173L737 173L737 160L737 160L737 147L701 147L701 133L773 133L773 120L746 120L746 107L746 107L746 93L791 93L791 80L737 80L737 67L710 67L710 53L746 53L746 40L782 40L782 27L737 27L737 13L737 13L737 0L765 0L765 13L792 13L792 27L810 27L810 40L792 40L792 53L756 53L756 67L765 67L765 80L837 80L837 93L783 93L783 107L792 107L792 120L819 120L819 133L756 133L756 147L783 147L783 160L792 160L792 173L792 173L792 187L810 187L810 200L819 200Z" fill="#2b201a"></path><path d="M728 200L746 200L746 187L728 187L728 173L683 173L683 160L683 160L683 147L656 147L656 133L746 133L746 120L701 120L701 107L719 107L719 93L746 93L746 80L692 80L692 67L683 67L683 53L701 53L701 40L746 40L746 27L710 27L710 13L692 13L692 0L738 0L738 13L738 13L738 27L783 27L783 40L747 40L747 53L711 53L711 67L738 67L738 80L792 80L792 93L747 93L747 107L747 107L747 120L774 120L774 133L702 133L702 147L738 147L738 160L738 160L738 173L765 173L765 187L774 187L774 200L756 200Z" fill="#3f2b1d"></path><path d="M665 200L710 200L710 187L656 187L656 173L593 173L593 160L611 160L611 147L620 147L620 133L683 133L683 120L611 120L611 107L647 107L647 93L701 93L701 80L638 80L638 67L647 67L647 53L629 53L629 40L656 40L656 27L620 27L620 13L611 13L611 0L693 0L693 13L711 13L711 27L747 27L747 40L702 40L702 53L684 53L684 67L693 67L693 80L747 80L747 93L720 93L720 107L702 107L702 120L747 120L747 133L657 133L657 147L684 147L684 160L684 160L684 173L729 173L729 187L747 187L747 200L729 200Z" fill="#543620"></path><path d="M512 200L503 200L503 187L449 187L449 173L476 173L476 160L503 160L503 147L503 147L503 133L494 133L494 120L494 120L494 107L467 107L467 93L431 93L431 80L440 80L440 67L395 67L395 53L467 53L467 40L476 40L476 27L404 27L404 13L440 13L440 0L612 0L612 13L621 13L621 27L657 27L657 40L630 40L630 53L648 53L648 67L639 67L639 80L702 80L702 93L648 93L648 107L612 107L612 120L684 120L684 133L621 133L621 147L612 147L612 160L594 160L594 173L657 173L657 187L711 187L711 200L666 200Z" fill="#6a4123"></path><path d="M476 200L431 200L431 187L377 187L377 173L413 173L413 160L431 160L431 147L449 147L449 133L431 133L431 120L431 120L431 107L422 107L422 93L386 93L386 80L386 80L386 67L332 67L332 53L413 53L413 40L431 40L431 27L350 27L350 13L368 13L368 0L441 0L441 13L405 13L405 27L477 27L477 40L468 40L468 53L396 53L396 67L441 67L441 80L432 80L432 93L468 93L468 107L495 107L495 120L495 120L495 133L504 133L504 147L504 147L504 160L477 160L477 173L450 173L450 187L504 187L504 200L513 200Z" fill="#814d26"></path><path d="M449 200L368 200L368 187L314 187L314 173L350 173L350 160L395 160L395 147L413 147L413 133L368 133L368 120L377 120L377 107L368 107L368 93L350 93L350 80L323 80L323 67L269 67L269 53L368 53L368 40L395 40L395 27L323 27L323 13L332 13L332 0L369 0L369 13L351 13L351 27L432 27L432 40L414 40L414 53L333 53L333 67L387 67L387 80L387 80L387 93L423 93L423 107L432 107L432 120L432 120L432 133L450 133L450 147L432 147L432 160L414 160L414 173L378 173L378 187L432 187L432 200L477 200Z" fill="#985928"></path><path d="M332 200L305 200L305 187L224 187L224 173L269 173L269 160L296 160L296 147L350 147L350 133L323 133L323 120L296 120L296 107L305 107L305 93L242 93L242 80L224 80L224 67L206 67L206 53L287 53L287 40L314 40L314 27L269 27L269 13L251 13L251 0L333 0L333 13L324 13L324 27L396 27L396 40L369 40L369 53L270 53L270 67L324 67L324 80L351 80L351 93L369 93L369 107L378 107L378 120L369 120L369 133L414 133L414 147L396 147L396 160L351 160L351 173L315 173L315 187L369 187L369 200L450 200Z" fill="#b0652a"></path><path d="M71 200L107 200L107 187L71 187L71 173L98 173L98 160L116 160L116 147L134 147L134 133L116 133L116 120L89 120L89 107L107 107L107 93L125 93L125 80L134 80L134 67L107 67L107 53L134 53L134 40L80 40L80 27L89 27L89 13L98 13L98 0L252 0L252 13L270 13L270 27L315 27L315 40L288 40L288 53L207 53L207 67L225 67L225 80L243 80L243 93L306 93L306 107L297 107L297 120L324 120L324 133L351 133L351 147L297 147L297 160L270 160L270 173L225 173L225 187L306 187L306 200L333 200Z" fill="#c8712c"></path><path d="M44 200L71 200L71 187L35 187L35 173L53 173L53 160L71 160L71 147L80 147L80 133L62 133L62 120L35 120L35 107L53 107L53 93L80 93L80 80L80 80L80 67L71 67L71 53L80 53L80 40L35 40L35 27L35 27L35 13L62 13L62 0L99 0L99 13L90 13L90 27L81 27L81 40L135 40L135 53L108 53L108 67L135 67L135 80L126 80L126 93L108 93L108 107L90 107L90 120L117 120L117 133L135 133L135 147L117 147L117 160L99 160L99 173L72 173L72 187L108 187L108 200L72 200Z" fill="#e17e2e"></path><path d="M0 200L0 200L0 187L0 187L0 173L0 173L0 160L0 160L0 147L0 147L0 133L0 133L0 120L0 120L0 107L0 107L0 93L0 93L0 80L0 80L0 67L0 67L0 53L0 53L0 40L0 40L0 27L0 27L0 13L0 13L0 0L63 0L63 13L36 13L36 27L36 27L36 40L81 40L81 53L72 53L72 67L81 67L81 80L81 80L81 93L54 93L54 107L36 107L36 120L63 120L63 133L81 133L81 147L72 147L72 160L54 160L54 173L36 173L36 187L72 187L72 200L45 200Z" fill="#fa8b2f"></path></svg>