<svg id="visual" viewBox="0 0 900 200" width="900" height="200" xmlns="http://www.w3.org/2000/svg" xmlns:xlink="http://www.w3.org/1999/xlink" version="1.1"><path d="M0 25L25 24.3C50 23.7 100 22.3 150 22.3C200 22.3 250 23.7 300 22.7C350 21.7 400 18.3 450 18.7C500 19 550 23 600 24.7C650 26.3 700 25.7 750 24C800 22.3 850 19.7 875 18.3L900 17L900 0L875 0C850 0 800 0 750 0C700 0 650 0 600 0C550 0 500 0 450 0C400 0 350 0 300 0C250 0 200 0 150 0C100 0 50 0 25 0L0 0Z" fill="#fa8b2f"></path><path d="M0 39L25 39C50 39 100 39 150 38.7C200 38.3 250 37.7 300 36.3C350 35 400 33 450 33.3C500 33.7 550 36.3 600 37.3C650 38.3 700 37.7 750 37C800 36.3 850 35.7 875 35.3L900 35L900 15L875 16.3C850 17.7 800 20.3 750 22C700 23.7 650 24.3 600 22.7C550 21 500 17 450 16.7C400 16.3 350 19.7 300 20.7C250 21.7 200 20.3 150 20.3C100 20.3 50 21.7 25 22.3L0 23Z" fill="#d0762d"></path><path d="M0 77L25 77C50 77 100 77 150 78.7C200 80.3 250 83.7 300 82.7C350 81.7 400 76.3 450 75C500 73.7 550 76.3 600 80.7C650 85 700 91 750 91.7C800 92.3 850 87.7 875 85.3L900 83L900 33L875 33.3C850 33.7 800 34.3 750 35C700 35.7 650 36.3 600 35.3C550 34.3 500 31.7 450 31.3C400 31 350 33 300 34.3C250 35.7 200 36.3 150 36.7C100 37 50 37 25 37L0 37Z" fill="#a8612a"></path><path d="M0 95L25 96.7C50 98.3 100 101.7 150 103.3C200 105 250 105 300 102.3C350 99.7 400 94.3 450 94C500 93.7 550 98.3 600 104C650 109.7 700 116.3 750 116.3C800 116.3 850 109.7 875 106.3L900 103L900 81L875 83.3C850 85.7 800 90.3 750 89.7C700 89 650 83 600 78.7C550 74.3 500 71.7 450 73C400 74.3 350 79.7 300 80.7C250 81.7 200 78.3 150 76.7C100 75 50 75 25 75L0 75Z" fill="#814d26"></path><path d="M0 151L25 152.3C50 153.7 100 156.3 150 156.3C200 156.3 250 153.7 300 153C350 152.3 400 153.7 450 154.3C500 155 550 155 600 156.7C650 158.3 700 161.7 750 163C800 164.3 850 163.7 875 163.3L900 163L900 101L875 104.3C850 107.7 800 114.3 750 114.3C700 114.3 650 107.7 600 102C550 96.3 500 91.7 450 92C400 92.3 350 97.7 300 100.3C250 103 200 103 150 101.3C100 99.7 50 96.3 25 94.7L0 93Z" fill="#5c3a21"></path><path d="M0 171L25 171.7C50 172.3 100 173.7 150 173.3C200 173 250 171 300 171C350 171 400 173 450 173C500 173 550 171 600 171.7C650 172.3 700 175.7 750 177C800 178.3 850 177.7 875 177.3L900 177L900 161L875 161.3C850 161.7 800 162.3 750 161C700 159.7 650 156.3 600 154.7C550 153 500 153 450 152.3C400 151.7 350 150.3 300 151C250 151.7 200 154.3 150 154.3C100 154.3 50 151.7 25 150.3L0 149Z" fill="#38271c"></path><path d="M0 201L25 201C50 201 100 201 150 201C200 201 250 201 300 201C350 201 400 201 450 201C500 201 550 201 600 201C650 201 700 201 750 201C800 201 850 201 875 201L900 201L900 175L875 175.3C850 175.7 800 176.3 750 175C700 173.7 650 170.3 600 169.7C550 169 500 171 450 171C400 171 350 169 300 169C250 169 200 171 150 171.3C100 171.7 50 170.3 25 169.7L0 169Z" fill="#161616"></path></svg>