<svg id="visual" viewBox="0 0 900 200" width="900" height="200" xmlns="http://www.w3.org/2000/svg" xmlns:xlink="http://www.w3.org/1999/xlink" version="1.1"><rect x="0" y="0" width="900" height="200" fill="#161616"></rect><defs><linearGradient id="grad1_0" x1="77.8%" y1="0%" x2="100%" y2="100%"><stop offset="-40%" stop-color="#fa8b2f" stop-opacity="1"></stop><stop offset="140%" stop-color="#fa8b2f" stop-opacity="1"></stop></linearGradient></defs><defs><linearGradient id="grad1_1" x1="77.8%" y1="0%" x2="100%" y2="100%"><stop offset="-40%" stop-color="#fa8b2f" stop-opacity="1"></stop><stop offset="140%" stop-color="#a8612a" stop-opacity="1"></stop></linearGradient></defs><defs><linearGradient id="grad1_2" x1="77.8%" y1="0%" x2="100%" y2="100%"><stop offset="-40%" stop-color="#5b3a21" stop-opacity="1"></stop><stop offset="140%" stop-color="#a8612a" stop-opacity="1"></stop></linearGradient></defs><defs><linearGradient id="grad1_3" x1="77.8%" y1="0%" x2="100%" y2="100%"><stop offset="-40%" stop-color="#5b3a21" stop-opacity="1"></stop><stop offset="140%" stop-color="#161616" stop-opacity="1"></stop></linearGradient></defs><defs><linearGradient id="grad2_0" x1="0%" y1="0%" x2="22.2%" y2="100%"><stop offset="-40%" stop-color="#fa8b2f" stop-opacity="1"></stop><stop offset="140%" stop-color="#fa8b2f" stop-opacity="1"></stop></linearGradient></defs><defs><linearGradient id="grad2_1" x1="0%" y1="0%" x2="22.2%" y2="100%"><stop offset="-40%" stop-color="#a8612a" stop-opacity="1"></stop><stop offset="140%" stop-color="#fa8b2f" stop-opacity="1"></stop></linearGradient></defs><defs><linearGradient id="grad2_2" x1="0%" y1="0%" x2="22.2%" y2="100%"><stop offset="-40%" stop-color="#a8612a" stop-opacity="1"></stop><stop offset="140%" stop-color="#5b3a21" stop-opacity="1"></stop></linearGradient></defs><defs><linearGradient id="grad2_3" x1="0%" y1="0%" x2="22.2%" y2="100%"><stop offset="-40%" stop-color="#161616" stop-opacity="1"></stop><stop offset="140%" stop-color="#5b3a21" stop-opacity="1"></stop></linearGradient></defs><g transform="translate(900, 0)"><path d="M0 200C-39.3 197.3 -78.6 194.5 -100 173.2C-121.4 151.9 -124.9 112 -138.6 80C-152.2 48 -176.1 24 -200 0L0 0Z" fill="#38271c"></path><path d="M0 150C-29.5 147.9 -59 145.9 -75 129.9C-91 113.9 -93.7 84 -103.9 60C-114.2 36 -132.1 18 -150 0L0 0Z" fill="#814d26"></path><path d="M0 100C-19.7 98.6 -39.3 97.3 -50 86.6C-60.7 75.9 -62.4 56 -69.3 40C-76.1 24 -88.1 12 -100 0L0 0Z" fill="#d0762d"></path><path d="M0 50C-9.8 49.3 -19.7 48.6 -25 43.3C-30.3 38 -31.2 28 -34.6 20C-38.1 12 -44 6 -50 0L0 0Z" fill="#fa8b2f"></path></g><g transform="translate(0, 200)"><path d="M0 -200C39.2 -197.2 78.4 -194.4 100 -173.2C121.6 -152 125.7 -112.4 139.4 -80.5C153.2 -48.6 176.6 -24.3 200 0L0 0Z" fill="#38271c"></path><path d="M0 -150C29.4 -147.9 58.8 -145.8 75 -129.9C91.2 -114 94.3 -84.3 104.6 -60.4C114.9 -36.4 132.4 -18.2 150 0L0 0Z" fill="#814d26"></path><path d="M0 -100C19.6 -98.6 39.2 -97.2 50 -86.6C60.8 -76 62.8 -56.2 69.7 -40.3C76.6 -24.3 88.3 -12.1 100 0L0 0Z" fill="#d0762d"></path><path d="M0 -50C9.8 -49.3 19.6 -48.6 25 -43.3C30.4 -38 31.4 -28.1 34.9 -20.1C38.3 -12.1 44.1 -6.1 50 0L0 0Z" fill="#fa8b2f"></path></g></svg>