<svg id="visual" viewBox="0 0 900 675" width="900" height="675" xmlns="http://www.w3.org/2000/svg" xmlns:xlink="http://www.w3.org/1999/xlink" version="1.1"><rect x="0" y="0" width="900" height="675" fill="#001220"></rect><path d="M0 96L10.7 106.7C21.3 117.3 42.7 138.7 64.2 142.2C85.7 145.7 107.3 131.3 128.8 125.7C150.3 120 171.7 123 193 125.5C214.3 128 235.7 130 257 126.7C278.3 123.3 299.7 114.7 321.2 111.7C342.7 108.7 364.3 111.3 385.8 115C407.3 118.7 428.7 123.3 450 124.8C471.3 126.3 492.7 124.7 514.2 126.3C535.7 128 557.3 133 578.8 133.2C600.3 133.3 621.7 128.7 643 131.2C664.3 133.7 685.7 143.3 707 138.5C728.3 133.7 749.7 114.3 771.2 110.2C792.7 106 814.3 117 835.8 116.8C857.3 116.7 878.7 105.3 889.3 99.7L900 94L900 0L889.3 0C878.7 0 857.3 0 835.8 0C814.3 0 792.7 0 771.2 0C749.7 0 728.3 0 707 0C685.7 0 664.3 0 643 0C621.7 0 600.3 0 578.8 0C557.3 0 535.7 0 514.2 0C492.7 0 471.3 0 450 0C428.7 0 407.3 0 385.8 0C364.3 0 342.7 0 321.2 0C299.7 0 278.3 0 257 0C235.7 0 214.3 0 193 0C171.7 0 150.3 0 128.8 0C107.3 0 85.7 0 64.2 0C42.7 0 21.3 0 10.7 0L0 0Z" fill="#243062"></path><path d="M0 99L10.7 92.5C21.3 86 42.7 73 64.2 74.7C85.7 76.3 107.3 92.7 128.8 93.5C150.3 94.3 171.7 79.7 193 73C214.3 66.3 235.7 67.7 257 71.7C278.3 75.7 299.7 82.3 321.2 86C342.7 89.7 364.3 90.3 385.8 88C407.3 85.7 428.7 80.3 450 84.3C471.3 88.3 492.7 101.7 514.2 103.7C535.7 105.7 557.3 96.3 578.8 95.3C600.3 94.3 621.7 101.7 643 104.8C664.3 108 685.7 107 707 99.2C728.3 91.3 749.7 76.7 771.2 72.3C792.7 68 814.3 74 835.8 73.3C857.3 72.7 878.7 65.3 889.3 61.7L900 58L900 0L889.3 0C878.7 0 857.3 0 835.8 0C814.3 0 792.7 0 771.2 0C749.7 0 728.3 0 707 0C685.7 0 664.3 0 643 0C621.7 0 600.3 0 578.8 0C557.3 0 535.7 0 514.2 0C492.7 0 471.3 0 450 0C428.7 0 407.3 0 385.8 0C364.3 0 342.7 0 321.2 0C299.7 0 278.3 0 257 0C235.7 0 214.3 0 193 0C171.7 0 150.3 0 128.8 0C107.3 0 85.7 0 64.2 0C42.7 0 21.3 0 10.7 0L0 0Z" fill="#062241"></path><path d="M0 25L10.7 32C21.3 39 42.7 53 64.2 53.3C85.7 53.7 107.3 40.3 128.8 39.7C150.3 39 171.7 51 193 52.3C214.3 53.7 235.7 44.3 257 39C278.3 33.7 299.7 32.3 321.2 36.2C342.7 40 364.3 49 385.8 53C407.3 57 428.7 56 450 51.3C471.3 46.7 492.7 38.3 514.2 39C535.7 39.7 557.3 49.3 578.8 53.5C600.3 57.7 621.7 56.3 643 55C664.3 53.7 685.7 52.3 707 51.2C728.3 50 749.7 49 771.2 46.7C792.7 44.3 814.3 40.7 835.8 37.8C857.3 35 878.7 33 889.3 32L900 31L900 0L889.3 0C878.7 0 857.3 0 835.8 0C814.3 0 792.7 0 771.2 0C749.7 0 728.3 0 707 0C685.7 0 664.3 0 643 0C621.7 0 600.3 0 578.8 0C557.3 0 535.7 0 514.2 0C492.7 0 471.3 0 450 0C428.7 0 407.3 0 385.8 0C364.3 0 342.7 0 321.2 0C299.7 0 278.3 0 257 0C235.7 0 214.3 0 193 0C171.7 0 150.3 0 128.8 0C107.3 0 85.7 0 64.2 0C42.7 0 21.3 0 10.7 0L0 0Z" fill="#001220"></path></svg>